{"glyphs":{"0":{"ha":806,"x_min":28,"x_max":778,"o":"m 778 506 q 749 736 778 639 q 670 897 721 833 q 551 992 620 961 q 401 1023 482 1023 q 252 992 321 1023 q 134 897 184 961 q 56 736 84 833 q 28 506 28 639 q 56 276 28 374 q 134 115 84 179 q 252 20 184 51 q 401 -11 321 -11 q 551 20 482 -11 q 670 115 620 51 q 749 276 721 179 q 778 506 778 374 m 556 506 q 542 334 556 401 q 507 229 529 267 q 458 176 485 190 q 401 162 430 162 q 345 176 373 162 q 297 229 318 190 q 263 334 276 267 q 250 506 250 401 q 263 678 250 611 q 297 783 276 745 q 345 836 318 822 q 401 850 373 850 q 458 836 430 850 q 507 783 485 822 q 542 678 529 745 q 556 506 556 611 "},"1":{"ha":806,"x_min":70,"x_max":730,"o":"m 730 156 l 563 156 l 563 1013 l 385 1013 l 70 748 l 138 658 q 153 644 143 651 q 177 635 164 638 q 205 635 190 633 q 235 649 220 638 l 351 745 q 349 705 349 725 q 348 666 348 685 l 348 156 l 153 156 l 153 0 l 730 0 l 730 156 "},"2":{"ha":806,"x_min":42,"x_max":753,"o":"m 678 194 l 489 194 q 419 188 457 194 q 344 170 382 182 l 542 373 q 618 454 582 414 q 681 536 653 494 q 723 626 708 579 q 739 729 739 674 q 716 848 739 794 q 651 940 694 901 q 549 1001 609 979 q 414 1023 489 1023 q 284 1005 344 1023 q 177 949 224 986 q 98 855 130 911 q 56 723 67 799 l 169 703 q 237 708 213 696 q 275 759 260 721 q 320 822 288 797 q 401 847 353 847 q 489 815 460 847 q 518 722 518 783 q 509 652 518 685 q 482 586 500 619 q 436 519 464 553 q 371 448 408 485 l 79 154 q 50 113 58 135 q 42 69 42 90 l 42 0 l 753 0 l 753 125 q 733 175 753 156 q 678 194 713 194 "},"3":{"ha":806,"x_min":33,"x_max":751,"o":"m 61 723 l 175 703 q 242 708 219 696 q 281 759 266 721 q 326 822 293 797 q 407 847 359 847 q 495 815 466 847 q 524 723 524 783 q 517 669 524 694 q 489 628 510 645 q 428 601 467 611 q 326 592 390 592 l 326 443 q 443 433 401 443 q 506 404 485 423 q 532 359 527 385 q 536 301 536 333 q 527 251 536 276 q 500 208 518 227 q 456 177 483 189 q 393 165 429 165 q 311 191 346 165 q 244 274 276 217 q 199 306 231 299 q 129 299 167 313 l 33 260 q 91 138 58 189 q 167 53 124 86 q 267 5 211 20 q 396 -11 324 -11 q 531 9 466 -11 q 644 68 595 28 q 722 167 693 108 q 751 308 751 227 q 583 537 751 478 q 648 568 619 549 q 695 613 676 586 q 724 676 714 640 q 733 760 733 713 q 713 861 733 813 q 651 944 692 908 q 553 1002 611 981 q 419 1023 494 1023 q 290 1005 350 1023 q 182 949 229 986 q 104 855 135 911 q 61 723 72 799 "},"4":{"ha":806,"x_min":-3,"x_max":774,"o":"m 483 393 l 222 393 l 490 768 q 484 709 486 738 q 483 657 483 681 l 483 393 m 774 393 l 670 393 l 670 1012 l 465 1012 l -3 383 l 19 276 q 39 245 23 258 q 76 233 56 233 l 483 233 l 483 0 l 670 0 l 670 233 l 733 233 q 764 244 753 233 q 774 272 774 256 l 774 393 "},"5":{"ha":806,"x_min":44,"x_max":742,"o":"m 308 656 l 337 823 l 578 823 q 637 830 613 823 q 676 851 661 838 q 698 883 691 865 q 705 923 705 901 l 705 1012 l 187 1012 l 101 506 l 234 469 q 367 495 299 495 q 485 457 444 495 q 527 344 527 418 q 518 274 527 307 q 491 216 510 241 q 441 177 472 192 q 367 163 410 163 q 295 174 324 163 q 244 199 266 185 q 204 224 222 213 q 165 235 185 235 q 135 228 149 235 q 110 207 121 221 l 44 118 q 104 68 71 92 q 177 27 138 45 q 261 -1 216 10 q 355 -11 306 -11 q 511 16 440 -11 q 633 91 582 42 q 714 207 685 140 q 742 355 742 274 q 721 476 742 419 q 658 575 700 533 q 556 641 617 617 q 415 665 494 665 q 363 663 390 665 q 308 656 337 661 "},"6":{"ha":806,"x_min":43,"x_max":774,"o":"m 401 159 q 334 170 363 159 q 287 203 306 182 q 259 255 268 225 q 250 322 250 285 q 261 390 250 360 q 292 441 272 419 q 339 474 312 463 q 399 485 366 485 q 464 474 435 485 q 515 442 494 463 q 547 391 535 422 q 558 322 558 360 q 546 257 558 287 q 513 206 534 228 q 464 172 492 184 q 401 159 435 159 m 367 623 l 393 653 l 693 1012 l 501 1012 q 432 997 463 1012 q 386 963 402 983 l 158 655 q 43 351 43 501 q 68 205 43 272 q 139 90 92 138 q 253 16 186 42 q 406 -11 321 -11 q 556 17 488 -11 q 673 92 624 44 q 747 203 721 140 q 774 338 774 267 q 748 473 774 415 q 679 567 722 530 q 583 623 637 605 q 475 641 530 641 q 367 623 415 641 "},"7":{"ha":806,"x_min":55,"x_max":766,"o":"m 766 1012 l 55 1012 l 55 870 q 59 852 55 861 q 70 837 63 844 q 85 827 76 831 q 103 823 94 823 l 549 823 q 512 777 528 801 q 480 724 496 753 l 119 0 l 276 0 q 347 21 320 0 q 388 71 374 42 l 740 815 q 757 857 748 832 q 766 922 766 881 l 766 1012 "},"8":{"ha":806,"x_min":42,"x_max":764,"o":"m 403 151 q 340 163 366 151 q 297 193 314 174 q 272 238 280 212 q 264 294 264 264 q 271 353 264 326 q 294 400 278 381 q 336 430 310 419 q 403 440 363 440 q 469 430 442 440 q 512 400 496 419 q 535 353 528 381 q 542 294 542 326 q 534 238 542 264 q 509 193 526 212 q 465 163 492 174 q 403 151 439 151 m 403 866 q 457 856 435 866 q 494 828 480 845 q 515 789 508 811 q 521 743 521 767 q 516 692 521 717 q 498 647 511 667 q 462 616 485 628 q 403 604 439 604 q 344 616 367 604 q 308 647 321 628 q 290 692 294 667 q 285 743 285 717 q 291 789 285 767 q 311 828 297 811 q 348 856 326 845 q 403 866 370 866 m 594 528 q 697 614 663 559 q 731 747 731 669 q 706 857 731 806 q 638 944 682 907 q 534 1002 594 981 q 403 1023 474 1023 q 271 1002 331 1023 q 167 944 211 981 q 99 857 124 907 q 75 747 75 806 q 109 614 75 669 q 212 528 143 559 q 134 488 167 512 q 82 434 102 465 q 51 367 61 403 q 42 290 42 331 q 68 166 42 222 q 141 71 94 110 q 256 10 189 32 q 403 -11 322 -11 q 550 10 483 -11 q 664 71 617 32 q 738 166 712 110 q 764 290 764 222 q 754 367 764 331 q 724 434 744 403 q 671 488 703 465 q 594 528 639 512 "},"9":{"ha":806,"x_min":44,"x_max":748,"o":"m 259 703 q 268 762 259 735 q 295 810 278 790 q 339 841 313 830 q 397 853 364 853 q 456 843 428 853 q 502 815 483 833 q 532 768 521 796 q 542 703 542 740 q 505 593 542 634 q 399 551 468 551 q 259 703 259 551 m 431 383 l 110 0 l 309 0 q 376 14 347 0 q 420 48 406 28 l 638 358 q 718 506 688 427 q 748 683 748 584 q 724 820 748 758 q 655 928 700 883 q 546 998 610 973 q 399 1023 481 1023 q 253 996 319 1023 q 141 924 188 969 q 69 817 94 878 q 44 687 44 756 q 69 557 44 612 q 134 466 94 502 q 223 412 174 430 q 322 394 272 394 q 467 428 403 394 q 450 406 459 417 q 431 383 441 395 "},"\u0000":{"ha":0,"x_min":0,"x_max":0,"o":""}," ":{"ha":321,"x_min":0,"x_max":0,"o":""},"A":{"ha":988,"x_min":-18,"x_max":1006,"o":"m 633 387 l 356 387 l 449 663 q 471 725 459 689 q 493 803 483 761 q 517 726 505 762 q 539 664 528 690 l 633 387 m 1006 0 l 614 1012 l 374 1012 l -18 0 l 165 0 q 214 16 194 0 q 242 51 234 31 l 301 227 l 686 227 l 746 51 q 774 14 756 28 q 824 0 793 0 l 1006 0 "},"Ą":{"ha":985,"x_min":-19,"x_max":1021,"o":"m 631 387 l 354 387 l 447 663 q 469 725 458 689 q 492 803 481 761 q 515 726 503 762 q 538 664 527 690 l 631 387 m 1021 -206 l 989 -129 q 969 -116 984 -116 q 963 -117 966 -116 q 956 -119 960 -118 q 946 -121 952 -120 q 929 -122 940 -122 q 901 -111 910 -122 q 892 -85 892 -101 q 911 -36 892 -58 q 957 0 930 -15 l 1004 0 l 613 1012 l 372 1012 l -19 0 l 164 0 q 213 16 193 0 q 240 51 233 31 l 300 227 l 685 227 l 744 51 q 773 14 754 28 q 822 0 792 0 l 831 0 q 756 -67 779 -31 q 732 -137 732 -102 q 770 -212 732 -183 q 883 -241 809 -241 q 960 -231 924 -241 q 1021 -206 997 -221 "},"Æ":{"ha":1299,"x_min":-23,"x_max":1252,"o":"m 636 387 l 390 387 l 526 698 q 554 764 540 728 q 581 840 568 799 l 636 387 m 804 831 l 1252 831 l 1252 1012 l 474 1012 l -23 0 l 155 0 q 209 14 186 0 q 242 51 231 28 l 319 227 l 655 227 l 683 0 l 1252 0 l 1252 181 l 883 181 l 854 422 l 1155 422 l 1155 595 l 833 595 l 804 831 "},"B":{"ha":930,"x_min":98,"x_max":881,"o":"m 498 177 l 333 177 l 333 429 l 497 429 q 570 421 541 429 q 617 397 599 413 q 642 360 635 382 q 649 310 649 338 q 643 262 649 285 q 620 219 637 238 q 574 189 603 201 q 498 177 544 177 m 333 836 l 470 836 q 539 830 510 836 q 586 809 567 824 q 614 770 605 794 q 623 710 623 747 q 611 649 623 674 q 578 611 600 625 q 525 592 556 597 q 455 586 494 586 l 333 586 l 333 836 m 470 1012 l 98 1012 l 98 0 l 502 0 q 664 23 593 0 q 783 88 735 47 q 856 185 831 129 q 881 305 881 240 q 833 445 881 391 q 685 524 785 499 q 764 563 731 540 q 817 614 797 586 q 848 673 838 641 q 858 738 858 704 q 836 851 858 801 q 769 938 815 902 q 649 992 722 973 q 470 1012 575 1012 "},"C":{"ha":910,"x_min":42,"x_max":906,"o":"m 780 262 q 760 257 769 262 q 742 246 750 253 q 701 215 721 227 q 658 195 681 203 q 608 185 635 188 q 550 182 582 182 q 446 203 494 182 q 361 266 397 225 q 303 368 324 308 q 282 506 282 428 q 301 643 282 583 q 355 745 320 703 q 439 808 390 786 q 545 829 487 829 q 609 824 582 829 q 657 810 637 818 q 693 793 678 802 q 720 775 708 783 q 744 762 733 767 q 767 756 755 756 q 797 764 786 756 q 815 782 807 772 l 894 888 q 828 942 865 917 q 748 985 792 967 q 654 1013 704 1003 q 547 1023 603 1023 q 342 985 435 1023 q 182 878 249 947 q 78 714 115 809 q 42 506 42 619 q 76 300 42 395 q 173 136 110 206 q 328 28 237 67 q 535 -11 419 -11 q 752 30 660 -11 q 906 150 844 70 l 813 248 q 797 259 805 256 q 780 262 788 262 "},"Ç":{"ha":910,"x_min":42,"x_max":906,"o":"m 906 150 l 813 248 q 797 259 805 256 q 780 262 788 262 q 760 257 769 262 q 742 246 750 253 q 701 215 721 227 q 658 195 681 203 q 608 185 635 188 q 550 182 582 182 q 446 203 494 182 q 361 266 397 225 q 303 368 324 308 q 282 506 282 428 q 301 643 282 583 q 355 745 320 703 q 439 808 390 786 q 545 829 487 829 q 609 824 582 829 q 657 810 637 818 q 693 793 678 802 q 720 775 708 783 q 744 762 733 767 q 767 756 755 756 q 797 764 786 756 q 815 782 807 772 l 894 888 q 828 942 865 917 q 748 985 792 967 q 654 1013 704 1003 q 547 1023 603 1023 q 342 985 435 1023 q 182 878 249 947 q 78 714 115 809 q 42 506 42 619 q 71 314 42 403 q 155 157 100 225 q 290 46 210 89 q 470 -8 369 3 l 438 -101 q 510 -115 489 -108 q 531 -137 531 -122 q 524 -151 531 -145 q 498 -158 516 -158 q 474 -155 483 -158 q 453 -153 464 -153 q 430 -172 434 -153 l 410 -236 q 461 -244 437 -242 q 513 -247 485 -247 q 589 -240 555 -247 q 648 -219 624 -233 q 686 -185 672 -205 q 699 -142 699 -166 q 694 -108 699 -124 q 675 -79 688 -92 q 641 -54 663 -65 q 585 -35 619 -43 l 592 -9 q 774 40 696 0 q 906 150 852 80 "},"D":{"ha":1057,"x_min":98,"x_max":1016,"o":"m 1016 506 q 978 708 1016 615 q 872 868 940 801 q 706 974 803 935 q 491 1012 609 1012 l 98 1012 l 98 0 l 491 0 q 706 38 609 0 q 872 143 803 76 q 978 304 940 211 q 1016 506 1016 397 m 776 506 q 756 370 776 431 q 700 268 737 310 q 611 203 664 226 q 491 181 558 181 l 334 181 l 334 831 l 491 831 q 611 809 558 831 q 700 744 664 786 q 756 642 737 702 q 776 506 776 581 "},"Ð":{"ha":1072,"x_min":-3,"x_max":1031,"o":"m 506 181 l 349 181 l 349 444 l 518 444 l 518 572 l 349 572 l 349 831 l 506 831 q 626 809 573 831 q 715 744 678 786 q 771 642 751 702 q 790 506 790 581 q 771 370 790 431 q 715 268 751 310 q 626 203 678 226 q 506 181 573 181 m 506 1012 l 113 1012 l 113 572 l -3 572 l -3 444 l 113 444 l 113 0 l 506 0 q 720 38 624 0 q 886 143 817 76 q 993 304 955 211 q 1031 506 1031 397 q 993 708 1031 615 q 886 868 955 801 q 720 974 817 935 q 506 1012 624 1012 "},"E":{"ha":796,"x_min":98,"x_max":749,"o":"m 334 831 l 749 831 l 749 1012 l 98 1012 l 98 0 l 749 0 l 749 181 l 334 181 l 334 422 l 652 422 l 652 595 l 334 595 l 334 831 "},"Ę":{"ha":796,"x_min":98,"x_max":749,"o":"m 334 831 l 749 831 l 749 1012 l 98 1012 l 98 0 l 560 0 q 484 -67 508 -31 q 460 -137 460 -102 q 499 -212 460 -183 q 612 -241 538 -241 q 689 -231 653 -241 q 749 -206 725 -221 l 717 -129 q 698 -116 713 -116 q 692 -117 694 -116 q 685 -119 689 -118 q 674 -121 681 -120 q 658 -122 668 -122 q 630 -111 639 -122 q 620 -85 620 -101 q 639 -36 620 -58 q 685 0 658 -15 l 749 0 l 749 181 l 334 181 l 334 422 l 652 422 l 652 595 l 334 595 l 334 831 "},"F":{"ha":787,"x_min":98,"x_max":749,"o":"m 334 831 l 749 831 l 749 1012 l 98 1012 l 98 0 l 334 0 l 334 394 l 680 394 l 680 575 l 334 575 l 334 831 "},"G":{"ha":1003,"x_min":40,"x_max":951,"o":"m 584 524 l 584 395 q 597 365 584 377 q 631 353 609 353 l 731 353 l 731 200 q 664 178 699 186 q 588 169 630 169 q 462 192 519 169 q 365 258 406 215 q 302 363 324 301 q 280 506 280 426 q 300 639 280 579 q 357 740 320 698 q 447 806 394 783 q 566 829 500 829 q 630 826 601 829 q 684 815 658 822 q 734 795 710 807 q 787 766 759 783 q 841 753 816 748 q 883 783 867 759 l 951 887 q 881 941 920 916 q 795 984 842 966 q 693 1013 749 1002 q 574 1023 638 1023 q 353 985 452 1023 q 184 878 254 947 q 77 714 115 809 q 40 506 40 619 q 79 300 40 395 q 192 136 119 206 q 367 28 265 67 q 594 -11 469 -11 q 778 15 690 -11 q 944 97 866 40 l 944 524 l 584 524 "},"H":{"ha":1079,"x_min":98,"x_max":981,"o":"m 981 1012 l 745 1012 l 745 589 l 334 589 l 334 1012 l 98 1012 l 98 0 l 334 0 l 334 428 l 745 428 l 745 0 l 981 0 l 981 1012 "},"Ħ":{"ha":1096,"x_min":9,"x_max":1087,"o":"m 753 718 l 753 589 l 342 589 l 342 718 l 753 718 m 1087 718 l 1087 850 l 990 850 l 990 1012 l 753 1012 l 753 850 l 342 850 l 342 1012 l 106 1012 l 106 850 l 9 850 l 9 718 l 106 718 l 106 0 l 342 0 l 342 428 l 753 428 l 753 0 l 990 0 l 990 718 l 1087 718 "},"I":{"ha":432,"x_min":98,"x_max":334,"o":"m 334 0 l 334 1012 l 98 1012 l 98 0 l 334 0 "},"Į":{"ha":432,"x_min":73,"x_max":362,"o":"m 362 -206 l 330 -129 q 310 -116 325 -116 q 304 -117 307 -116 q 297 -119 301 -118 q 287 -121 293 -120 q 270 -122 281 -122 q 242 -111 251 -122 q 233 -85 233 -101 q 252 -36 233 -58 q 298 0 271 -15 l 334 0 l 334 1012 l 98 1012 l 98 0 l 172 0 q 97 -67 120 -31 q 73 -137 73 -102 q 111 -212 73 -183 q 224 -241 150 -241 q 301 -231 265 -241 q 362 -206 338 -221 "},"J":{"ha":605,"x_min":14,"x_max":517,"o":"m 517 367 l 517 1012 l 282 1012 l 282 362 q 274 274 282 310 q 249 217 265 239 q 207 186 232 195 q 147 176 181 176 q 106 180 123 176 q 76 184 88 184 q 41 173 53 184 q 26 144 28 162 l 14 7 q 94 -7 56 -3 q 172 -11 133 -11 q 324 16 260 -11 q 432 93 389 44 q 495 213 474 143 q 517 367 517 282 "},"K":{"ha":981,"x_min":98,"x_max":1003,"o":"m 333 602 l 333 1012 l 98 1012 l 98 0 l 333 0 l 333 431 l 390 431 q 441 423 422 431 q 473 395 460 415 l 702 43 q 717 25 709 33 q 735 11 724 17 q 759 3 745 6 q 794 0 774 0 l 1003 0 l 698 469 q 658 515 679 497 q 610 542 636 532 q 678 603 647 560 l 978 1012 l 774 1012 q 716 1002 740 1012 q 673 965 693 992 l 445 635 q 370 602 422 602 l 333 602 "},"L":{"ha":729,"x_min":98,"x_max":708,"o":"m 708 188 l 333 188 l 333 1012 l 98 1012 l 98 0 l 708 0 l 708 188 "},"Ł":{"ha":753,"x_min":1,"x_max":732,"o":"m 732 188 l 357 188 l 357 453 l 561 558 q 589 601 589 569 l 589 756 l 357 641 l 357 1012 l 122 1012 l 122 537 l 26 488 q 1 450 1 477 l 1 292 l 122 351 l 122 0 l 732 0 l 732 188 "},"Ľ":{"ha":729,"x_min":98,"x_max":708,"o":"m 708 188 l 333 188 l 333 1012 l 98 1012 l 98 0 l 708 0 l 708 188 m 606 1041 l 460 1041 l 415 790 l 491 790 q 535 796 518 790 q 565 826 553 803 q 604 912 589 878 q 627 966 619 946 q 637 997 635 986 q 640 1013 640 1007 q 639 1022 640 1017 q 634 1031 638 1026 q 624 1038 631 1035 q 606 1041 617 1041 "},"M":{"ha":1333,"x_min":98,"x_max":1235,"o":"m 1235 1012 l 1056 1012 q 1030 1011 1041 1012 q 1009 1007 1018 1010 q 993 996 1000 1003 q 978 976 985 989 l 719 465 q 691 409 704 438 q 667 349 678 380 q 642 408 655 379 q 615 463 629 436 l 355 976 q 341 996 348 989 q 324 1007 333 1003 q 304 1011 315 1010 q 277 1012 292 1012 l 98 1012 l 98 0 l 305 0 l 305 582 q 303 626 305 602 q 300 675 302 650 l 569 153 q 602 117 581 129 q 651 104 624 104 l 683 104 q 731 117 710 104 q 765 153 752 129 l 1033 674 q 1030 626 1031 649 q 1028 582 1028 602 l 1028 0 l 1235 0 l 1235 1012 "},"N":{"ha":1079,"x_min":98,"x_max":981,"o":"m 981 1012 l 774 1012 l 774 476 q 776 425 774 452 q 781 368 777 397 l 299 976 q 282 994 290 988 q 266 1005 274 1001 q 247 1010 258 1009 q 222 1012 237 1012 l 98 1012 l 98 0 l 305 0 l 305 542 q 304 590 305 565 q 300 642 303 615 l 777 39 q 814 9 795 17 q 859 0 832 0 l 981 0 l 981 1012 "},"Ŋ":{"ha":1079,"x_min":98,"x_max":981,"o":"m 981 1012 l 774 1012 l 774 476 q 776 425 774 452 q 781 368 777 397 l 299 976 q 282 994 290 988 q 266 1005 274 1001 q 247 1010 258 1009 q 222 1012 237 1012 l 98 1012 l 98 0 l 305 0 l 305 542 q 304 590 305 565 q 300 642 303 615 l 774 43 l 774 21 q 751 -66 774 -38 q 683 -94 729 -94 q 667 -93 674 -94 q 654 -90 660 -92 q 644 -88 649 -89 q 633 -87 639 -87 q 605 -94 617 -87 q 586 -126 593 -102 l 563 -217 q 598 -231 581 -225 q 631 -240 615 -237 q 666 -245 648 -244 q 703 -247 683 -247 q 832 -225 779 -247 q 918 -164 885 -203 q 966 -72 951 -125 q 981 45 981 -18 l 981 1012 "},"O":{"ha":1131,"x_min":40,"x_max":1091,"o":"m 1091 506 q 1053 710 1091 615 q 947 874 1015 804 q 781 983 878 943 q 566 1023 684 1023 q 351 983 448 1023 q 184 874 253 944 q 77 710 115 805 q 40 506 40 616 q 77 302 40 397 q 184 138 115 208 q 351 28 253 68 q 566 -11 448 -11 q 781 28 684 -11 q 947 138 878 68 q 1053 302 1015 208 q 1091 506 1091 397 m 851 506 q 831 370 851 431 q 775 269 812 310 q 686 205 739 227 q 566 183 633 183 q 445 205 498 183 q 355 269 392 227 q 299 370 319 310 q 280 506 280 431 q 299 641 280 581 q 355 743 319 701 q 445 807 392 785 q 566 829 498 829 q 686 807 633 829 q 775 743 739 785 q 831 641 812 701 q 851 506 851 581 "},"Ø":{"ha":1131,"x_min":40,"x_max":1091,"o":"m 452 203 l 808 697 q 851 506 851 619 q 831 370 851 431 q 775 269 812 310 q 686 205 739 227 q 566 183 633 183 q 506 188 534 183 q 452 203 477 193 m 705 799 l 338 290 q 280 506 280 373 q 299 641 280 581 q 355 743 319 701 q 445 807 392 785 q 566 829 498 829 q 705 799 645 829 m 940 881 l 1067 1058 l 948 1058 q 916 1055 929 1058 q 892 1045 903 1052 q 873 1028 882 1039 q 852 1003 863 1018 l 824 964 q 704 1008 768 992 q 566 1023 640 1023 q 351 983 448 1023 q 184 874 253 944 q 77 710 115 805 q 40 506 40 616 q 84 285 40 385 q 211 113 129 184 l 73 -78 l 165 -78 q 233 -65 198 -78 q 292 -19 267 -51 l 332 37 q 442 1 384 13 q 566 -11 501 -11 q 781 28 684 -11 q 947 138 878 68 q 1053 302 1015 208 q 1091 506 1091 397 q 1052 715 1091 619 q 940 881 1013 810 "},"Œ":{"ha":1491,"x_min":42,"x_max":1444,"o":"m 539 176 q 430 200 477 176 q 349 266 382 223 q 299 369 316 308 q 282 506 282 431 q 299 642 282 581 q 349 746 316 703 q 430 812 382 789 q 539 835 477 835 q 647 812 599 835 q 726 746 694 789 q 776 642 759 703 q 793 506 793 581 q 776 369 793 431 q 726 266 759 308 q 647 200 694 223 q 539 176 599 176 m 1029 831 l 1444 831 l 1444 1012 l 821 1012 l 821 909 q 684 993 761 963 q 515 1023 608 1023 q 321 983 408 1023 q 172 874 234 944 q 76 710 110 805 q 42 506 42 616 q 76 302 42 397 q 172 138 110 208 q 321 28 234 68 q 515 -11 408 -11 q 684 19 608 -11 q 821 103 761 49 l 821 0 l 1444 0 l 1444 181 l 1029 181 l 1029 422 l 1347 422 l 1347 595 l 1029 595 l 1029 831 "},"P":{"ha":883,"x_min":98,"x_max":862,"o":"m 455 515 l 333 515 l 333 836 l 455 836 q 532 825 499 836 q 585 793 564 814 q 617 744 606 773 q 627 681 627 716 q 587 559 627 603 q 455 515 547 515 m 455 1012 l 98 1012 l 98 0 l 333 0 l 333 338 l 455 338 q 636 364 560 338 q 763 434 713 389 q 838 542 813 479 q 862 681 862 606 q 838 812 862 751 q 765 917 815 872 q 639 986 715 961 q 455 1012 562 1012 "},"Þ":{"ha":877,"x_min":98,"x_max":862,"o":"m 455 352 l 333 352 l 333 673 l 455 673 q 532 662 499 673 q 585 630 564 651 q 617 581 606 610 q 627 518 627 553 q 587 396 627 440 q 455 352 547 352 m 455 849 l 333 849 l 333 1012 l 98 1012 l 98 0 l 333 0 l 333 175 l 455 175 q 636 200 560 175 q 763 271 713 226 q 838 379 813 316 q 862 518 862 442 q 838 649 862 588 q 765 753 815 709 q 639 823 715 798 q 455 849 562 849 "},"Q":{"ha":1132,"x_min":40,"x_max":1149,"o":"m 281 506 q 300 641 281 581 q 356 743 319 701 q 445 807 392 785 q 567 829 499 829 q 687 807 634 829 q 776 743 740 785 q 832 641 813 701 q 851 506 851 581 q 832 370 851 431 q 776 269 813 310 q 687 205 740 227 q 567 183 634 183 q 445 205 499 183 q 356 269 392 227 q 300 370 319 310 q 281 506 281 431 m 1149 -190 l 892 90 q 977 170 940 125 q 1039 268 1014 215 q 1078 381 1065 321 q 1092 506 1092 441 q 1054 710 1092 615 q 947 874 1016 804 q 782 983 878 943 q 567 1023 685 1023 q 351 983 449 1023 q 185 874 254 944 q 78 710 116 805 q 40 506 40 616 q 78 302 40 397 q 185 138 116 208 q 351 28 254 68 q 567 -11 449 -11 q 694 2 635 -11 l 819 -139 q 881 -179 848 -168 q 956 -190 914 -190 l 1149 -190 "},"R":{"ha":913,"x_min":98,"x_max":926,"o":"m 427 536 l 333 536 l 333 836 l 427 836 q 561 799 518 836 q 605 694 605 761 q 595 632 605 661 q 564 582 585 603 q 509 548 542 560 q 427 536 475 536 m 926 0 l 710 352 q 674 394 694 376 q 631 424 654 412 q 718 472 681 442 q 782 538 756 501 q 821 619 808 575 q 834 712 834 663 q 812 831 834 776 q 741 926 790 886 q 614 989 692 967 q 427 1012 537 1012 l 98 1012 l 98 0 l 333 0 l 333 374 l 392 374 q 434 366 419 374 q 460 338 449 357 l 628 44 q 713 0 654 0 l 926 0 "},"S":{"ha":769,"x_min":19,"x_max":729,"o":"m 657 806 l 715 915 q 654 960 688 940 q 580 994 619 980 q 496 1016 540 1008 q 406 1023 452 1023 q 258 998 322 1023 q 149 930 193 972 q 81 833 104 888 q 58 722 58 779 q 78 603 58 651 q 129 523 97 555 q 201 470 160 490 q 283 437 241 451 q 366 413 326 424 q 438 387 406 401 q 489 350 469 372 q 508 292 508 328 q 473 203 508 231 q 374 175 438 175 q 292 188 326 175 q 230 217 257 201 q 182 247 203 233 q 140 260 161 260 q 111 252 124 260 q 89 232 97 244 l 19 122 q 90 68 49 92 q 176 26 130 44 q 270 -1 222 8 q 367 -11 319 -11 q 520 15 453 -11 q 634 86 588 41 q 705 193 681 132 q 729 324 729 254 q 710 432 729 388 q 659 508 690 477 q 586 560 627 540 q 503 595 546 580 q 420 622 461 610 q 348 649 380 634 q 297 683 317 663 q 278 734 278 703 q 310 810 278 782 q 408 838 342 838 q 476 828 447 838 q 530 806 506 818 q 571 783 553 793 q 606 773 590 773 q 635 781 624 773 q 657 806 647 790 "},"Ş":{"ha":769,"x_min":19,"x_max":729,"o":"m 657 806 l 715 915 q 654 960 688 940 q 580 994 619 980 q 496 1016 540 1008 q 406 1023 452 1023 q 258 998 322 1023 q 149 930 193 972 q 81 833 104 888 q 58 722 58 779 q 78 603 58 651 q 129 523 97 555 q 201 470 160 490 q 283 437 241 451 q 366 413 326 424 q 438 387 406 401 q 489 350 469 372 q 508 292 508 328 q 473 203 508 231 q 374 175 438 175 q 292 188 326 175 q 230 217 257 201 q 182 247 203 233 q 140 260 161 260 q 111 252 124 260 q 89 232 97 244 l 19 122 q 81 73 47 96 q 156 34 116 51 q 238 6 195 17 q 324 -9 281 -5 l 292 -101 q 364 -115 343 -108 q 385 -137 385 -122 q 378 -151 385 -145 q 352 -158 370 -158 q 328 -155 338 -158 q 308 -153 318 -153 q 284 -172 288 -153 l 265 -236 q 315 -244 291 -242 q 367 -247 339 -247 q 443 -240 409 -247 q 502 -219 478 -233 q 540 -185 526 -205 q 553 -142 553 -166 q 548 -108 553 -124 q 530 -79 542 -92 q 495 -54 517 -65 q 440 -35 473 -43 l 447 -4 q 567 37 515 7 q 656 110 620 67 q 710 208 692 153 q 729 324 729 263 q 710 432 729 388 q 659 508 690 477 q 586 560 627 540 q 503 595 546 580 q 420 622 461 610 q 348 649 380 634 q 297 683 317 663 q 278 734 278 703 q 310 810 278 782 q 408 838 342 838 q 476 828 447 838 q 530 806 506 818 q 571 783 553 793 q 606 773 590 773 q 635 781 624 773 q 657 806 647 790 "},"T":{"ha":846,"x_min":21,"x_max":825,"o":"m 825 826 l 825 1012 l 21 1012 l 21 826 l 306 826 l 306 0 l 540 0 l 540 826 l 825 826 "},"Ŧ":{"ha":860,"x_min":28,"x_max":832,"o":"m 547 826 l 832 826 l 832 1012 l 28 1012 l 28 826 l 313 826 l 313 593 l 104 593 l 104 465 l 313 465 l 313 0 l 547 0 l 547 465 l 756 465 l 756 593 l 547 593 l 547 826 "},"U":{"ha":1040,"x_min":85,"x_max":955,"o":"m 520 185 q 436 201 473 185 q 373 246 399 217 q 334 318 347 276 q 320 413 320 360 l 320 1012 l 85 1012 l 85 413 q 115 242 85 319 q 201 108 145 164 q 338 20 258 51 q 520 -11 419 -11 q 701 20 621 -11 q 838 108 782 51 q 925 242 894 164 q 955 413 955 319 l 955 1012 l 720 1012 l 720 413 q 707 317 720 359 q 667 246 693 275 q 605 201 642 217 q 520 185 567 185 "},"Ų":{"ha":1040,"x_min":85,"x_max":955,"o":"m 955 1012 l 720 1012 l 720 413 q 707 317 720 359 q 667 246 693 275 q 605 201 642 217 q 520 185 567 185 q 436 201 473 185 q 373 246 399 217 q 334 318 347 276 q 320 413 320 360 l 320 1012 l 85 1012 l 85 413 q 113 250 85 324 q 190 120 140 176 q 314 31 241 65 q 479 -10 388 -3 q 415 -72 435 -39 q 395 -137 395 -104 q 434 -212 395 -183 q 547 -241 472 -241 q 624 -231 588 -241 q 684 -206 660 -221 l 652 -129 q 633 -116 647 -116 q 626 -117 629 -116 q 619 -119 624 -118 q 609 -121 615 -120 q 592 -122 603 -122 q 564 -111 574 -122 q 555 -85 555 -101 q 572 -39 555 -60 q 614 -3 589 -18 q 757 46 694 10 q 865 137 821 83 q 932 261 908 191 q 955 413 955 331 l 955 1012 "},"V":{"ha":988,"x_min":-18,"x_max":1006,"o":"m 1006 1012 l 815 1012 q 766 996 786 1012 q 739 961 747 981 l 544 419 q 518 342 531 384 q 497 254 506 300 q 472 342 485 300 q 444 419 458 384 l 249 961 q 220 998 239 983 q 171 1012 201 1012 l -18 1012 l 388 0 l 600 0 l 1006 1012 "},"W":{"ha":1479,"x_min":3,"x_max":1476,"o":"m 1476 1012 l 1292 1012 q 1242 997 1263 1012 q 1215 961 1221 981 l 1076 433 q 1064 382 1070 409 q 1053 323 1058 354 q 1022 433 1040 385 l 860 961 q 831 998 850 983 q 782 1012 813 1012 l 713 1012 q 663 996 683 1012 q 636 961 642 981 l 472 433 q 442 317 454 383 q 429 379 435 349 q 417 433 423 408 l 278 961 q 251 998 272 984 q 200 1012 231 1012 l 3 1012 l 315 0 l 528 0 l 721 627 q 731 659 726 642 q 741 697 736 677 q 751 659 746 677 q 761 627 756 642 l 951 0 l 1164 0 l 1476 1012 "},"X":{"ha":958,"x_min":-9,"x_max":966,"o":"m 966 0 l 642 531 l 959 1012 l 734 1012 q 707 1005 718 1012 q 687 983 697 998 l 510 680 q 500 663 505 671 q 492 645 496 654 l 291 986 q 272 1006 283 1000 q 238 1012 261 1012 l 3 1012 l 317 521 l -9 0 l 210 0 q 244 12 231 0 q 267 38 258 24 l 456 365 q 469 392 463 376 l 672 38 q 694 11 680 22 q 731 0 708 0 l 966 0 "},"Y":{"ha":931,"x_min":-19,"x_max":949,"o":"m 583 385 l 949 1012 l 741 1012 q 714 1007 726 1012 q 693 995 702 1003 q 676 979 683 988 q 665 961 669 970 l 523 667 q 491 602 505 633 q 467 542 478 572 q 442 602 456 572 q 409 667 427 632 l 266 961 q 236 998 254 983 q 188 1012 219 1012 l -19 1012 l 348 385 l 348 0 l 583 0 l 583 385 "},"Z":{"ha":846,"x_min":19,"x_max":815,"o":"m 815 927 l 815 1012 l 58 1012 l 58 831 l 517 831 l 40 151 q 25 122 31 138 q 19 90 19 106 l 19 0 l 800 0 l 800 181 l 318 181 l 793 859 q 809 892 803 874 q 815 927 815 909 "},"a":{"ha":719,"x_min":24,"x_max":654,"o":"m 444 293 l 444 193 q 381 146 413 160 q 308 131 350 131 q 249 146 269 131 q 229 198 229 161 q 239 233 229 217 q 272 261 248 249 q 338 282 297 274 q 444 293 380 290 m 57 620 l 96 553 q 121 526 106 538 q 158 515 136 515 q 201 524 183 515 q 239 542 219 532 q 282 561 258 553 q 344 569 306 569 q 418 541 392 569 q 444 450 444 513 l 444 419 q 240 394 321 417 q 110 339 158 372 q 43 266 63 306 q 24 188 24 226 q 39 102 24 139 q 82 40 54 65 q 151 2 110 15 q 240 -11 191 -11 q 307 -5 277 -11 q 364 13 338 1 q 416 42 391 25 q 468 83 441 60 l 483 43 q 509 8 494 17 q 556 0 525 0 l 654 0 l 654 450 q 635 564 654 512 q 579 654 615 616 q 490 713 542 692 q 372 734 438 734 q 202 706 281 734 q 57 620 122 678 "},"ą":{"ha":719,"x_min":24,"x_max":718,"o":"m 444 293 l 444 193 q 381 146 413 160 q 308 131 350 131 q 249 146 269 131 q 229 198 229 161 q 239 233 229 217 q 272 261 248 249 q 338 282 297 274 q 444 293 380 290 m 718 -206 l 686 -129 q 667 -116 681 -116 q 660 -117 663 -116 q 653 -119 658 -118 q 643 -121 649 -120 q 626 -122 637 -122 q 598 -111 608 -122 q 589 -85 589 -101 q 608 -36 589 -58 q 654 0 627 -15 l 654 450 q 635 564 654 512 q 579 654 615 616 q 490 713 542 692 q 372 734 438 734 q 202 706 281 734 q 57 620 122 678 l 96 553 q 121 526 106 538 q 158 515 136 515 q 201 524 183 515 q 239 542 219 532 q 282 561 258 553 q 344 569 306 569 q 418 541 392 569 q 444 450 444 513 l 444 419 q 240 394 321 417 q 110 339 158 372 q 43 266 63 306 q 24 188 24 226 q 39 102 24 139 q 82 40 54 65 q 151 2 110 15 q 240 -11 191 -11 q 307 -5 277 -11 q 364 13 338 1 q 416 42 391 25 q 468 83 441 60 l 483 43 q 502 14 491 23 q 531 1 513 5 q 453 -66 478 -30 q 429 -137 429 -101 q 468 -212 429 -183 q 581 -241 506 -241 q 658 -231 622 -241 q 718 -206 694 -221 "},"æ":{"ha":1131,"x_min":25,"x_max":1094,"o":"m 446 308 l 446 297 q 435 219 446 251 q 407 168 425 188 q 364 140 389 149 q 310 131 339 131 q 251 150 271 131 q 231 206 231 168 q 240 241 231 224 q 274 272 249 258 q 340 295 298 285 q 446 308 381 304 m 903 433 l 650 433 q 692 544 659 506 q 786 583 725 583 q 841 569 819 583 q 877 533 864 555 q 897 485 891 512 q 903 433 903 458 m 651 308 l 1047 308 q 1071 311 1062 308 q 1085 324 1080 315 q 1092 348 1090 333 q 1094 388 1094 363 q 1072 530 1094 466 q 1009 638 1049 593 q 915 707 969 683 q 796 731 860 731 q 661 705 719 731 q 563 632 603 678 q 481 707 533 680 q 350 734 429 734 q 194 706 265 734 q 58 620 124 678 l 97 553 q 122 526 107 538 q 160 515 138 515 q 203 525 185 515 q 240 545 221 534 q 283 566 259 557 q 346 576 308 576 q 420 544 394 576 q 446 450 446 513 l 446 434 q 241 408 322 431 q 112 350 160 385 q 44 275 64 316 q 25 195 25 234 q 85 43 25 97 q 257 -11 146 -11 q 343 -4 301 -11 q 422 19 385 3 q 489 59 458 35 q 542 117 520 83 q 593 59 565 83 q 653 19 622 35 q 720 -4 685 3 q 790 -11 755 -11 q 866 -6 826 -11 q 944 13 905 -1 q 1022 50 984 26 q 1093 113 1060 74 l 1035 184 q 992 203 1022 203 q 961 194 974 203 q 930 176 948 186 q 885 158 913 167 q 811 150 858 150 q 706 188 747 150 q 651 308 664 225 "},"b":{"ha":798,"x_min":73,"x_max":760,"o":"m 288 196 l 288 501 q 346 552 317 535 q 415 569 375 569 q 468 559 444 569 q 507 524 491 548 q 530 462 522 500 q 538 370 538 424 q 528 265 538 308 q 499 196 517 222 q 455 159 481 170 q 399 147 429 147 q 341 158 369 147 q 288 196 313 169 m 288 644 l 288 1040 l 73 1040 l 73 0 l 216 0 q 249 8 237 0 q 267 39 262 17 l 275 75 q 309 40 292 56 q 349 13 327 24 q 396 -5 370 1 q 454 -11 422 -11 q 578 17 522 -11 q 675 96 635 45 q 738 219 716 147 q 760 378 760 290 q 741 524 760 458 q 687 635 722 589 q 601 706 651 681 q 490 731 551 731 q 380 707 429 731 q 288 644 330 683 "},"c":{"ha":676,"x_min":35,"x_max":665,"o":"m 602 549 l 659 625 q 544 704 608 677 q 395 731 480 731 q 240 703 307 731 q 127 625 173 674 q 59 507 82 575 q 35 362 35 440 q 62 203 35 273 q 134 86 89 134 q 240 14 180 39 q 366 -11 300 -11 q 442 -6 403 -11 q 519 13 481 -1 q 594 50 558 26 q 665 113 631 74 l 602 190 q 563 208 589 208 q 531 199 544 208 q 503 177 518 189 q 466 157 488 166 q 406 147 444 147 q 296 203 336 147 q 256 362 256 258 q 265 450 256 411 q 293 517 274 490 q 341 558 312 544 q 409 573 369 573 q 463 565 441 573 q 500 548 484 558 q 529 531 516 539 q 558 524 542 524 q 583 531 574 524 q 602 549 592 538 "},"ç":{"ha":677,"x_min":35,"x_max":665,"o":"m 665 113 l 602 190 q 563 208 589 208 q 531 199 544 208 q 503 177 518 189 q 466 157 488 166 q 406 147 444 147 q 296 203 336 147 q 256 362 256 258 q 265 450 256 411 q 293 517 274 490 q 341 558 312 544 q 409 573 369 573 q 463 565 441 573 q 500 548 484 558 q 529 531 516 539 q 558 524 542 524 q 583 531 574 524 q 602 549 592 538 l 659 625 q 544 704 608 677 q 395 731 480 731 q 240 703 307 731 q 127 625 173 674 q 59 507 82 575 q 35 362 35 440 q 57 220 35 283 q 115 110 78 156 q 201 34 151 63 q 306 -6 250 5 l 274 -101 q 345 -115 324 -108 q 367 -137 367 -122 q 359 -151 367 -145 q 333 -158 351 -158 q 309 -155 319 -158 q 289 -153 299 -153 q 265 -172 269 -153 l 246 -236 q 296 -244 272 -242 q 349 -247 320 -247 q 425 -240 390 -247 q 483 -219 459 -233 q 521 -185 508 -205 q 535 -142 535 -166 q 529 -108 535 -124 q 511 -79 524 -92 q 476 -54 498 -65 q 421 -35 454 -43 l 428 -8 q 489 4 458 -4 q 550 26 520 12 q 609 61 581 40 q 665 113 638 82 "},"d":{"ha":798,"x_min":38,"x_max":725,"o":"m 510 527 l 510 222 q 482 193 496 206 q 451 172 467 180 q 416 159 435 163 q 374 154 397 154 q 327 165 348 154 q 291 199 306 175 q 268 262 276 223 q 260 358 260 301 q 270 458 260 417 q 299 526 281 500 q 342 564 317 552 q 397 576 367 576 q 457 565 428 576 q 510 527 485 554 m 725 1040 l 510 1040 l 510 675 q 440 718 478 702 q 346 734 402 734 q 220 706 277 734 q 123 627 163 677 q 60 507 82 576 q 38 358 38 438 q 57 202 38 270 q 112 86 77 133 q 194 14 147 39 q 299 -11 242 -11 q 367 -4 335 -11 q 426 17 399 3 q 477 49 453 31 q 522 91 501 68 l 539 36 q 592 0 551 0 l 725 0 l 725 1040 "},"ď":{"ha":797,"x_min":38,"x_max":988,"o":"m 510 527 l 510 222 q 482 193 496 206 q 451 172 467 180 q 416 159 435 163 q 374 154 397 154 q 327 165 348 154 q 291 199 306 175 q 268 262 276 223 q 260 358 260 301 q 270 458 260 417 q 299 526 281 500 q 342 564 317 552 q 397 576 367 576 q 457 565 428 576 q 510 527 485 554 m 725 1040 l 510 1040 l 510 675 q 440 718 478 702 q 346 734 402 734 q 220 706 277 734 q 123 627 163 677 q 60 507 82 576 q 38 358 38 438 q 57 202 38 270 q 112 86 77 133 q 194 14 147 39 q 299 -11 242 -11 q 367 -4 335 -11 q 426 17 399 3 q 477 49 453 31 q 522 91 501 68 l 539 36 q 592 0 551 0 l 725 0 l 725 1040 m 954 1041 l 808 1041 l 763 790 l 839 790 q 883 796 866 790 q 913 826 901 803 q 952 912 937 878 q 975 966 967 946 q 985 997 983 986 q 988 1013 988 1007 q 986 1022 988 1017 q 982 1031 985 1026 q 972 1038 979 1035 q 954 1041 965 1041 "},"đ":{"ha":799,"x_min":39,"x_max":824,"o":"m 511 501 l 511 222 q 483 193 497 206 q 453 172 469 180 q 418 159 437 163 q 375 154 399 154 q 328 163 349 154 q 293 192 308 171 q 269 251 278 214 q 261 344 261 288 q 272 443 261 403 q 300 506 282 483 q 344 540 319 530 q 399 549 369 549 q 458 538 430 549 q 511 501 487 527 m 824 779 l 824 907 l 726 907 l 726 1040 l 511 1040 l 511 907 l 360 907 l 360 779 l 511 779 l 511 649 q 442 692 480 676 q 347 708 403 708 q 222 681 278 708 q 124 607 165 655 q 61 492 83 559 q 39 344 39 425 q 59 191 39 257 q 113 80 78 124 q 196 12 148 35 q 300 -11 244 -11 q 368 -4 337 -11 q 427 17 400 3 q 478 49 455 31 q 524 91 502 68 l 540 36 q 593 0 553 0 l 726 0 l 726 779 l 824 779 "},"ð":{"ha":798,"x_min":33,"x_max":758,"o":"m 391 147 q 334 159 360 147 q 288 194 308 171 q 258 252 269 217 q 247 332 247 287 q 257 394 247 365 q 286 444 267 423 q 334 478 306 466 q 401 491 363 491 q 497 462 460 491 q 554 390 534 433 q 538 272 552 319 q 502 198 524 225 q 451 159 480 170 q 391 147 422 147 m 595 835 l 641 858 q 664 885 659 867 q 658 920 669 902 l 615 988 l 488 914 q 361 970 428 948 q 220 1004 294 992 l 195 933 q 188 895 188 912 q 194 867 188 879 q 211 848 200 856 q 237 835 223 840 q 266 827 252 831 q 294 818 280 822 l 262 802 q 235 773 241 791 q 242 735 230 756 l 283 669 l 430 755 q 513 676 483 720 q 556 576 542 633 q 468 630 517 611 q 356 649 419 649 q 224 624 284 649 q 122 554 165 598 q 56 453 79 510 q 33 333 33 396 q 59 188 33 252 q 133 80 86 124 q 245 12 181 35 q 385 -11 310 -11 q 544 18 474 -11 q 661 102 613 47 q 733 239 708 158 q 758 424 758 320 q 714 661 758 560 q 595 835 671 763 "},"e":{"ha":749,"x_min":35,"x_max":714,"o":"m 521 447 l 253 447 q 299 548 264 513 q 394 583 333 583 q 453 571 429 583 q 493 540 478 559 q 514 497 508 521 q 521 447 521 472 m 250 322 l 665 322 q 689 325 680 322 q 704 338 699 328 q 712 362 710 347 q 714 401 714 377 q 690 541 714 479 q 623 644 666 602 q 521 709 581 687 q 390 731 462 731 q 242 703 308 731 q 130 626 176 674 q 59 513 84 577 q 35 376 35 448 q 64 208 35 280 q 142 87 92 135 q 258 14 192 38 q 400 -11 324 -11 q 477 -6 437 -11 q 559 13 518 -1 q 638 50 599 26 q 710 113 676 74 l 647 190 q 608 208 634 208 q 571 199 589 208 q 532 179 553 190 q 484 159 511 168 q 419 150 457 150 q 305 191 349 150 q 250 322 260 231 "},"ę":{"ha":749,"x_min":35,"x_max":714,"o":"m 521 447 l 253 447 q 299 548 264 513 q 394 583 333 583 q 453 571 429 583 q 493 540 478 559 q 514 497 508 521 q 521 447 521 472 m 250 322 l 665 322 q 689 325 680 322 q 704 338 699 328 q 712 362 710 347 q 714 401 714 377 q 690 541 714 479 q 623 644 666 602 q 521 709 581 687 q 390 731 462 731 q 242 703 308 731 q 130 626 176 674 q 59 513 84 577 q 35 376 35 448 q 60 218 35 287 q 128 101 85 150 q 230 25 172 53 q 357 -9 289 -3 q 293 -71 313 -38 q 272 -137 272 -104 q 311 -212 272 -183 q 424 -241 349 -241 q 501 -231 465 -241 q 561 -206 537 -221 l 529 -129 q 510 -116 524 -116 q 503 -117 506 -116 q 497 -119 501 -118 q 486 -121 492 -120 q 469 -122 480 -122 q 441 -111 451 -122 q 432 -85 432 -101 q 449 -40 432 -60 q 490 -4 465 -19 q 547 9 518 1 q 605 32 576 18 q 659 66 633 46 q 710 113 686 85 l 647 190 q 608 208 634 208 q 571 199 589 208 q 532 179 553 190 q 484 159 511 168 q 419 150 457 150 q 305 191 349 150 q 250 322 260 231 "},"f":{"ha":508,"x_min":25,"x_max":510,"o":"m 126 0 l 342 0 l 342 572 l 503 572 l 503 719 l 335 719 l 335 753 q 342 811 335 788 q 365 849 350 835 q 402 869 380 863 q 453 874 424 874 q 471 876 462 874 q 488 883 480 878 q 501 895 496 888 q 506 913 506 902 l 510 1018 q 464 1028 486 1025 q 415 1031 442 1031 q 294 1012 347 1031 q 203 957 240 992 q 146 872 166 922 q 126 760 126 822 l 126 719 l 25 719 l 25 634 q 40 599 25 611 q 79 582 55 588 l 126 572 l 126 0 "},"ﬀ":{"ha":969,"x_min":25,"x_max":972,"o":"m 126 0 l 342 0 l 342 572 l 588 572 l 588 0 l 803 0 l 803 572 l 965 572 l 965 719 l 796 719 l 796 766 q 803 825 796 801 q 826 862 811 848 q 863 882 841 876 q 914 888 885 888 q 932 890 923 888 q 949 896 941 892 q 962 908 957 901 q 967 926 967 915 l 972 1031 q 925 1041 947 1038 q 876 1044 903 1044 q 755 1025 808 1044 q 664 970 701 1006 q 607 885 627 935 q 588 773 588 835 l 588 719 l 335 719 l 335 740 q 342 798 335 775 q 365 835 350 822 q 402 855 380 849 q 453 860 424 860 q 488 869 471 860 q 506 900 505 878 l 510 1005 q 464 1014 486 1011 q 415 1017 442 1017 q 294 998 347 1017 q 203 944 240 979 q 146 858 166 908 q 126 746 126 808 l 126 719 l 25 719 l 25 634 q 40 599 25 611 q 79 582 55 588 l 126 572 l 126 0 "},"ﬁ":{"ha":870,"x_min":25,"x_max":792,"o":"m 126 0 l 342 0 l 342 572 l 576 572 l 576 0 l 792 0 l 792 719 l 335 719 l 335 722 q 345 797 335 765 q 384 852 356 830 q 458 885 411 874 q 578 896 506 896 q 612 901 596 896 q 629 924 628 907 l 636 1033 q 578 1043 612 1040 q 514 1046 545 1046 q 339 1021 413 1046 q 219 953 266 996 q 149 852 172 910 q 126 729 126 794 l 126 719 l 25 719 l 25 634 q 40 599 25 611 q 79 582 55 588 l 126 572 l 126 0 "},"ﬃ":{"ha":1331,"x_min":25,"x_max":1253,"o":"m 126 0 l 342 0 l 342 572 l 588 572 l 588 0 l 803 0 l 803 572 l 1038 572 l 1038 0 l 1253 0 l 1253 719 l 796 719 l 796 722 q 807 797 796 765 q 845 852 817 830 q 919 885 872 874 q 1039 896 967 896 q 1073 901 1057 896 q 1090 924 1089 907 l 1097 1033 q 1040 1043 1073 1040 q 975 1046 1006 1046 q 800 1021 874 1046 q 680 953 727 996 q 610 852 633 910 q 588 729 588 794 l 588 719 l 335 719 l 335 740 q 342 798 335 775 q 365 835 350 822 q 402 855 380 849 q 453 860 424 860 q 488 869 471 860 q 506 900 505 878 l 510 1005 q 464 1014 486 1011 q 415 1017 442 1017 q 294 998 347 1017 q 203 944 240 979 q 146 858 166 908 q 126 746 126 808 l 126 719 l 25 719 l 25 634 q 40 599 25 611 q 79 582 55 588 l 126 572 l 126 0 "},"ﬂ":{"ha":878,"x_min":25,"x_max":806,"o":"m 126 0 l 342 0 l 342 572 l 490 572 l 490 719 l 335 719 l 335 744 q 369 850 335 813 q 469 886 403 886 q 523 884 490 886 q 592 881 556 883 l 592 0 l 806 0 l 806 1026 l 685 1026 q 563 1030 623 1026 q 435 1034 503 1034 q 296 1009 354 1034 q 200 944 238 985 q 144 851 163 903 q 126 744 126 799 l 126 719 l 25 719 l 25 634 q 40 599 25 611 q 79 582 55 588 l 126 572 l 126 0 "},"ﬄ":{"ha":1340,"x_min":25,"x_max":1267,"o":"m 126 0 l 342 0 l 342 572 l 588 572 l 588 0 l 803 0 l 803 572 l 965 572 l 965 719 l 796 719 l 796 744 q 830 850 796 813 q 931 886 865 886 q 984 884 951 886 q 1053 881 1017 883 l 1053 0 l 1267 0 l 1267 1026 l 1127 1026 q 1015 1030 1071 1026 q 896 1034 958 1034 q 757 1009 815 1034 q 661 944 699 985 q 606 851 624 903 q 588 744 588 799 l 588 719 l 335 719 l 335 740 q 342 798 335 775 q 365 835 350 822 q 402 855 380 849 q 453 860 424 860 q 488 869 471 860 q 506 900 505 878 l 510 1005 q 464 1014 486 1011 q 415 1017 442 1017 q 294 998 347 1017 q 203 944 240 979 q 146 858 166 908 q 126 746 126 808 l 126 719 l 25 719 l 25 634 q 40 599 25 611 q 79 582 55 588 l 126 572 l 126 0 "},"g":{"ha":744,"x_min":26,"x_max":726,"o":"m 347 398 q 302 405 321 398 q 270 425 283 413 q 252 456 258 438 q 246 494 246 473 q 270 563 246 538 q 347 588 294 588 q 425 563 401 588 q 449 494 449 538 q 425 425 449 451 q 347 398 401 398 m 514 -26 q 507 -56 514 -42 q 482 -79 500 -69 q 435 -94 465 -89 q 358 -100 405 -100 q 287 -95 315 -100 q 242 -81 259 -90 q 219 -59 226 -72 q 213 -31 213 -47 q 225 7 213 -10 q 258 38 238 24 q 349 33 303 34 q 431 27 394 32 q 491 11 468 22 q 514 -26 514 -1 m 726 698 l 510 698 q 347 733 439 733 q 230 716 284 733 q 136 670 176 700 q 73 596 96 640 q 50 499 50 553 q 83 384 50 433 q 172 306 115 335 q 128 278 147 294 q 98 246 110 263 q 81 211 86 229 q 75 178 75 194 q 90 113 75 138 q 132 72 106 88 q 54 21 82 53 q 26 -59 26 -11 q 46 -130 26 -96 q 106 -190 65 -164 q 208 -232 147 -216 q 354 -248 269 -248 q 507 -226 440 -248 q 619 -168 574 -204 q 689 -85 665 -132 q 713 10 713 -39 q 693 95 713 62 q 642 149 674 129 q 569 178 610 169 q 486 191 528 188 q 403 196 444 195 q 331 200 363 197 q 279 211 299 203 q 260 238 260 219 q 283 270 260 256 q 315 266 299 267 q 347 265 331 265 q 462 282 408 265 q 555 328 515 298 q 616 401 594 358 q 639 499 639 444 q 636 532 639 516 q 630 563 634 548 l 682 575 q 716 591 706 581 q 726 619 726 601 l 726 698 "},"h":{"ha":792,"x_min":73,"x_max":726,"o":"m 288 657 l 288 1040 l 73 1040 l 73 0 l 288 0 l 288 514 q 348 555 317 540 q 415 569 379 569 q 486 540 462 569 q 510 458 510 510 l 510 0 l 726 0 l 726 458 q 710 567 726 517 q 663 654 694 617 q 586 711 631 690 q 481 731 540 731 q 373 711 418 731 q 288 657 327 690 "},"ĥ":{"ha":792,"x_min":-88,"x_max":726,"o":"m 288 657 l 288 1040 l 73 1040 l 73 0 l 288 0 l 288 514 q 348 555 317 540 q 415 569 379 569 q 486 540 462 569 q 510 458 510 510 l 510 0 l 726 0 l 726 458 q 710 567 726 517 q 663 654 694 617 q 586 711 631 690 q 481 731 540 731 q 373 711 418 731 q 288 657 327 690 m 447 1077 l 277 1270 l 81 1270 l -88 1077 l 60 1077 q 91 1082 73 1077 q 128 1109 109 1086 l 163 1163 q 170 1172 167 1168 q 176 1181 173 1176 q 182 1172 178 1176 q 188 1163 185 1168 l 223 1109 q 260 1082 242 1086 q 291 1077 278 1077 l 447 1077 "},"ħ":{"ha":792,"x_min":-21,"x_max":725,"o":"m 288 631 l 288 781 l 475 781 l 475 908 l 288 908 l 288 1040 l 72 1040 l 72 908 l -21 908 l -21 781 l 72 781 l 72 0 l 288 0 l 288 487 q 348 527 317 513 q 414 542 378 542 q 485 513 461 542 q 510 431 510 484 l 510 0 l 725 0 l 725 431 q 709 541 725 490 q 662 627 693 591 q 585 684 631 664 q 481 705 540 705 q 372 684 417 705 q 288 631 326 664 "},"i":{"ha":371,"x_min":56,"x_max":315,"o":"m 293 720 l 78 720 l 78 0 l 293 0 l 293 720 m 315 917 q 305 967 315 944 q 276 1007 294 990 q 234 1034 258 1024 q 183 1044 210 1044 q 134 1034 157 1044 q 93 1007 111 1024 q 66 967 76 990 q 56 917 56 944 q 66 869 56 892 q 93 830 76 847 q 134 802 111 813 q 183 792 157 792 q 234 802 210 792 q 276 830 258 813 q 305 869 294 847 q 315 917 315 892 "},"į":{"ha":371,"x_min":49,"x_max":338,"o":"m 183 792 q 234 802 210 792 q 276 830 258 813 q 305 869 294 847 q 315 917 315 892 q 305 967 315 944 q 276 1007 294 990 q 234 1034 258 1024 q 183 1044 210 1044 q 134 1034 157 1044 q 93 1007 111 1024 q 66 967 76 990 q 56 917 56 944 q 66 869 56 892 q 93 830 76 847 q 134 802 111 813 q 183 792 157 792 m 338 -206 l 306 -129 q 286 -116 301 -116 q 280 -117 283 -116 q 273 -119 277 -118 q 263 -121 269 -120 q 246 -122 256 -122 q 218 -111 227 -122 q 208 -85 208 -101 q 227 -36 208 -58 q 274 0 247 -15 l 293 0 l 293 720 l 78 720 l 78 0 l 148 0 q 72 -67 96 -31 q 49 -137 49 -102 q 87 -212 49 -183 q 200 -241 126 -241 q 277 -231 241 -241 q 338 -206 313 -221 "},"ı":{"ha":372,"x_min":78,"x_max":294,"o":"m 294 720 l 78 720 l 78 0 l 294 0 l 294 720 "},"j":{"ha":371,"x_min":-56,"x_max":315,"o":"m 293 720 l 78 720 l 78 -1 q 74 -47 78 -29 q 61 -75 70 -65 q 35 -90 51 -85 q -6 -94 19 -94 q -39 -101 -31 -94 q -49 -122 -47 -108 l -56 -235 q -9 -245 -31 -242 q 40 -248 14 -248 q 160 -228 112 -248 q 238 -175 208 -209 q 280 -97 267 -142 q 293 -1 293 -52 l 293 720 m 315 917 q 305 967 315 944 q 276 1007 294 990 q 234 1034 258 1024 q 183 1044 210 1044 q 134 1034 157 1044 q 93 1007 111 1024 q 66 967 76 990 q 56 917 56 944 q 66 869 56 892 q 93 830 76 847 q 134 802 111 813 q 183 792 157 792 q 234 802 210 792 q 276 830 258 813 q 305 869 294 847 q 315 917 315 892 "},"ȷ":{"ha":372,"x_min":-55,"x_max":294,"o":"m 294 720 l 78 720 l 78 -1 q 75 -47 78 -29 q 61 -75 71 -65 q 36 -90 52 -85 q -5 -94 20 -94 q -38 -101 -30 -94 q -48 -122 -47 -108 l -55 -235 q -8 -245 -31 -242 q 41 -248 15 -248 q 161 -228 113 -248 q 239 -175 209 -209 q 281 -97 268 -142 q 294 -1 294 -52 l 294 720 "},"k":{"ha":776,"x_min":73,"x_max":783,"o":"m 288 1040 l 73 1040 l 73 0 l 288 0 l 288 319 l 330 319 q 361 314 351 319 q 381 291 372 308 l 517 36 q 547 8 529 16 q 588 0 564 0 l 783 0 l 580 344 q 555 380 568 364 q 526 407 542 395 q 588 464 562 429 l 774 720 l 577 720 q 536 711 552 720 q 508 685 520 703 l 372 483 q 351 463 361 469 q 320 457 340 457 l 288 457 l 288 1040 "},"ĸ":{"ha":776,"x_min":73,"x_max":783,"o":"m 288 720 l 73 720 l 73 0 l 288 0 l 288 319 l 330 319 q 361 314 351 319 q 381 291 372 308 l 517 36 q 547 8 529 16 q 588 0 564 0 l 783 0 l 580 344 q 555 380 568 364 q 526 407 542 395 q 588 464 562 429 l 774 720 l 577 720 q 536 711 552 720 q 508 685 520 703 l 372 483 q 351 463 361 469 q 320 457 340 457 l 288 457 l 288 720 "},"ł":{"ha":485,"x_min":24,"x_max":465,"o":"m 465 731 l 348 685 l 348 1040 l 133 1040 l 133 613 l 49 578 q 24 540 24 568 l 24 416 l 133 458 l 133 0 l 348 0 l 348 531 l 438 567 q 465 610 465 577 l 465 731 "},"ľ":{"ha":360,"x_min":73,"x_max":566,"o":"m 288 1040 l 73 1040 l 73 0 l 288 0 l 288 1040 m 533 1041 l 387 1041 l 341 790 l 417 790 q 462 796 444 790 q 491 826 479 803 q 530 912 515 878 q 553 966 545 946 q 564 997 561 986 q 566 1013 566 1007 q 565 1022 566 1017 q 561 1031 564 1026 q 551 1038 558 1035 q 533 1041 544 1041 "},"m":{"ha":1182,"x_min":73,"x_max":1116,"o":"m 73 0 l 288 0 l 288 521 q 337 556 311 543 q 392 569 363 569 q 464 544 440 569 q 488 458 488 519 l 488 0 l 703 0 l 703 458 q 732 541 703 512 q 805 569 761 569 q 901 458 901 569 l 901 0 l 1116 0 l 1116 458 q 1099 573 1116 522 q 1050 659 1083 624 q 970 713 1018 694 q 860 731 922 731 q 793 724 827 731 q 730 703 760 717 q 673 665 699 688 q 629 608 647 641 q 564 698 607 664 q 456 731 522 731 q 399 725 425 731 q 350 707 373 718 q 308 680 328 695 q 271 645 289 664 l 259 684 q 206 720 247 720 l 73 720 l 73 0 "},"n":{"ha":792,"x_min":73,"x_max":726,"o":"m 272 642 l 259 684 q 206 720 247 720 l 73 720 l 73 0 l 288 0 l 288 514 q 348 555 317 540 q 415 569 379 569 q 486 540 462 569 q 510 458 510 510 l 510 0 l 726 0 l 726 458 q 710 567 726 517 q 663 654 694 617 q 586 711 631 690 q 481 731 540 731 q 417 725 447 731 q 362 707 388 718 q 315 678 337 695 q 272 642 292 662 "},"ŋ":{"ha":792,"x_min":73,"x_max":726,"o":"m 272 642 l 259 684 q 206 720 247 720 l 73 720 l 73 0 l 288 0 l 288 514 q 348 555 317 540 q 415 569 379 569 q 486 540 462 569 q 510 458 510 510 l 510 20 q 488 -67 510 -39 q 420 -94 466 -94 q 403 -93 410 -94 q 391 -91 397 -92 q 381 -89 385 -90 q 369 -87 376 -87 q 342 -95 354 -87 q 323 -127 330 -103 l 299 -218 q 335 -232 318 -226 q 368 -241 351 -237 q 402 -246 385 -244 q 440 -248 420 -248 q 570 -226 516 -248 q 659 -165 624 -203 q 710 -72 694 -126 q 726 45 726 -18 l 726 458 q 710 567 726 517 q 663 654 694 617 q 586 711 631 690 q 481 731 540 731 q 417 725 447 731 q 362 707 388 718 q 315 678 337 695 q 272 642 292 662 "},"o":{"ha":807,"x_min":35,"x_max":772,"o":"m 405 731 q 255 706 322 731 q 138 632 187 680 q 62 516 89 584 q 35 362 35 447 q 62 207 35 276 q 138 89 89 138 q 255 15 187 41 q 405 -11 322 -11 q 554 15 487 -11 q 670 89 622 41 q 745 207 718 138 q 772 362 772 276 q 745 516 772 447 q 670 632 718 584 q 554 706 622 680 q 405 731 487 731 m 405 149 q 293 201 328 149 q 258 360 258 253 q 293 519 258 467 q 405 572 328 572 q 514 519 479 572 q 549 360 549 467 q 514 201 549 253 q 405 149 479 149 "},"ø":{"ha":807,"x_min":17,"x_max":803,"o":"m 333 156 l 553 456 q 563 360 563 415 q 521 198 563 253 q 405 142 479 142 q 333 156 363 142 m 473 565 l 253 267 q 244 360 244 308 q 286 523 244 467 q 405 578 328 578 q 473 565 444 578 m 677 624 l 803 796 l 698 796 q 666 793 679 796 q 642 784 652 790 q 622 767 631 778 q 602 742 613 757 l 571 699 q 405 731 497 731 q 255 706 322 731 q 138 632 187 680 q 62 516 89 584 q 35 362 35 447 q 60 213 35 279 q 129 98 84 146 l 17 -54 l 95 -54 q 130 -51 112 -54 q 164 -41 147 -48 q 196 -23 181 -34 q 223 6 211 -11 l 235 23 q 405 -11 311 -11 q 554 15 487 -11 q 670 89 622 41 q 745 207 718 138 q 772 362 772 276 q 747 510 772 444 q 677 624 723 576 "},"œ":{"ha":1220,"x_min":35,"x_max":1184,"o":"m 392 149 q 290 201 322 149 q 258 360 258 253 q 290 519 258 467 q 392 572 322 572 q 494 519 462 572 q 526 360 526 467 q 494 201 526 253 q 392 149 462 149 m 992 433 l 740 433 q 782 544 749 506 q 876 583 815 583 q 931 569 908 583 q 967 533 953 555 q 986 485 981 512 q 992 433 992 458 m 741 308 l 1137 308 q 1160 311 1151 308 q 1175 324 1169 315 q 1182 348 1180 333 q 1184 388 1184 363 q 1161 530 1184 466 q 1099 638 1139 593 q 1004 707 1059 683 q 885 731 949 731 q 738 699 800 731 q 634 610 675 666 q 526 700 591 669 q 380 731 462 731 q 242 706 306 731 q 133 632 179 680 q 61 516 88 584 q 35 362 35 447 q 61 207 35 276 q 132 89 87 138 q 239 15 177 41 q 372 -11 300 -11 q 524 21 458 -11 q 635 113 591 53 q 685 57 657 81 q 745 19 713 34 q 810 -4 776 3 q 880 -11 844 -11 q 955 -6 916 -11 q 1034 13 994 -1 q 1111 50 1074 26 q 1183 113 1149 74 l 1119 190 q 1081 208 1106 208 q 1044 199 1061 208 q 1007 179 1026 190 q 961 159 987 168 q 901 150 936 150 q 795 188 837 150 q 741 308 753 225 "},"p":{"ha":799,"x_min":73,"x_max":760,"o":"m 288 196 l 288 501 q 347 552 316 535 q 424 569 377 569 q 471 559 450 569 q 507 525 492 549 q 530 462 522 501 q 538 366 538 423 q 528 265 538 306 q 499 197 517 223 q 456 159 481 171 q 401 147 431 147 q 341 158 369 147 q 288 196 313 169 m 275 631 l 259 684 q 206 720 247 720 l 73 720 l 73 -228 l 288 -228 l 288 48 q 358 5 319 21 q 452 -11 396 -11 q 577 17 521 -11 q 675 97 634 46 q 738 216 715 147 q 760 366 760 285 q 741 521 760 453 q 686 637 721 590 q 603 709 651 684 q 499 734 556 734 q 371 705 425 734 q 275 631 317 676 "},"þ":{"ha":799,"x_min":73,"x_max":760,"o":"m 288 196 l 288 501 q 347 552 316 535 q 424 569 377 569 q 471 559 450 569 q 507 525 492 549 q 530 462 522 501 q 538 366 538 423 q 528 265 538 306 q 499 197 517 223 q 456 159 481 171 q 401 147 431 147 q 341 158 369 147 q 288 196 313 169 m 288 644 l 288 1040 l 73 1040 l 73 -228 l 288 -228 l 288 60 q 320 31 303 44 q 357 9 337 18 q 400 -6 376 -1 q 452 -11 424 -11 q 577 17 521 -11 q 675 97 634 46 q 738 216 715 147 q 760 366 760 285 q 741 521 760 453 q 686 636 721 589 q 603 707 651 683 q 499 731 556 731 q 380 707 431 731 q 288 644 328 683 "},"q":{"ha":798,"x_min":38,"x_max":725,"o":"m 510 527 l 510 222 q 482 193 496 206 q 451 172 467 180 q 416 159 435 163 q 374 154 397 154 q 327 165 348 154 q 291 199 306 175 q 268 262 276 223 q 260 358 260 301 q 270 458 260 417 q 299 526 281 500 q 342 564 317 552 q 397 576 367 576 q 457 565 428 576 q 510 527 485 553 m 725 720 l 592 720 q 539 684 551 720 l 530 656 q 494 688 513 673 q 453 713 475 702 q 405 728 431 723 q 346 734 378 734 q 220 706 277 734 q 123 627 163 677 q 60 507 82 576 q 38 358 38 438 q 57 202 38 270 q 112 86 77 133 q 194 14 147 39 q 299 -11 242 -11 q 418 14 367 -11 q 510 78 469 38 l 510 -228 l 725 -228 l 725 720 "},"r":{"ha":530,"x_min":73,"x_max":530,"o":"m 274 609 l 263 669 q 257 693 260 683 q 245 709 253 703 q 227 717 238 715 q 201 720 217 720 l 73 720 l 73 0 l 288 0 l 288 438 q 336 507 308 482 q 411 532 364 532 q 430 531 419 532 q 449 529 440 530 q 468 527 459 528 q 483 526 477 526 q 505 532 497 526 q 516 553 513 538 l 530 711 q 451 734 499 734 q 351 701 394 734 q 274 609 308 667 "},"s":{"ha":619,"x_min":22,"x_max":583,"o":"m 531 563 l 579 638 q 533 675 559 658 q 474 705 506 692 q 406 724 442 717 q 331 731 369 731 q 206 713 259 731 q 117 663 152 694 q 64 591 81 632 q 46 503 46 549 q 60 419 46 454 q 99 361 75 385 q 152 321 122 337 q 214 294 183 306 q 275 275 245 283 q 329 256 306 266 q 367 232 353 246 q 382 197 382 218 q 377 174 382 185 q 362 153 372 163 q 334 139 351 144 q 292 134 317 134 q 233 142 256 134 q 192 160 210 151 q 160 178 175 170 q 126 187 145 187 q 93 179 106 187 q 72 157 81 171 l 22 78 q 72 43 43 59 q 136 15 101 26 q 207 -4 170 3 q 281 -11 244 -11 q 411 7 354 -11 q 506 58 467 25 q 564 135 544 90 q 583 234 583 181 q 569 309 583 278 q 531 362 555 340 q 478 399 508 384 q 417 425 448 414 q 356 445 385 436 q 302 464 326 454 q 264 488 278 474 q 250 521 250 501 q 272 564 250 549 q 335 580 294 580 q 385 573 363 580 q 425 559 408 567 q 458 545 443 551 q 489 538 474 538 q 513 544 503 538 q 531 563 522 549 "},"ş":{"ha":619,"x_min":22,"x_max":583,"o":"m 531 563 l 579 638 q 533 675 559 658 q 474 705 506 692 q 406 724 442 717 q 331 731 369 731 q 206 713 259 731 q 117 663 152 694 q 64 591 81 632 q 46 503 46 549 q 60 419 46 454 q 99 361 75 385 q 152 321 122 337 q 214 294 183 306 q 275 275 245 283 q 329 256 306 266 q 367 232 353 246 q 382 197 382 218 q 377 174 382 185 q 362 153 372 163 q 334 139 351 144 q 292 134 317 134 q 233 142 256 134 q 192 160 210 151 q 160 178 175 170 q 126 187 145 187 q 93 179 106 187 q 72 157 81 171 l 22 78 q 114 23 58 47 q 231 -8 169 0 l 199 -101 q 271 -115 250 -108 q 292 -137 292 -122 q 285 -151 292 -145 q 259 -158 277 -158 q 235 -155 244 -158 q 215 -153 225 -153 q 191 -172 195 -153 l 172 -236 q 222 -244 198 -242 q 274 -247 246 -247 q 350 -240 316 -247 q 409 -219 385 -233 q 447 -185 433 -205 q 460 -142 460 -166 q 455 -108 460 -124 q 436 -79 449 -92 q 402 -54 424 -65 q 347 -35 380 -43 l 354 -6 q 453 24 410 3 q 525 76 496 44 q 569 147 554 107 q 583 234 583 188 q 569 309 583 278 q 531 362 555 340 q 478 399 508 384 q 417 425 448 414 q 356 445 385 436 q 302 464 326 454 q 264 488 278 474 q 250 521 250 501 q 272 564 250 549 q 335 580 294 580 q 385 573 363 580 q 425 559 408 567 q 458 545 443 551 q 489 538 474 538 q 513 544 503 538 q 531 563 522 549 "},"ß":{"ha":865,"x_min":72,"x_max":836,"o":"m 460 1031 q 296 1004 368 1031 q 174 930 224 977 q 98 818 124 882 q 72 679 72 753 l 72 0 l 288 0 l 288 672 q 297 760 288 721 q 325 825 306 799 q 375 866 344 852 q 450 881 406 881 q 546 854 516 881 q 576 781 576 827 q 563 736 576 755 q 528 700 549 717 q 484 666 508 683 q 440 627 460 649 q 405 575 419 605 q 392 503 392 545 q 410 421 392 454 q 455 364 428 388 q 513 323 482 340 q 572 290 544 306 q 617 253 599 273 q 635 206 635 234 q 615 154 635 174 q 568 134 595 134 q 523 142 542 134 q 489 160 504 151 q 458 178 473 170 q 424 187 442 187 q 391 179 403 187 q 369 157 378 171 l 319 78 q 367 43 340 59 q 424 15 394 26 q 486 -4 454 3 q 549 -11 518 -11 q 657 5 605 -11 q 749 51 709 20 q 812 130 788 83 q 836 240 836 176 q 820 330 836 292 q 780 395 803 368 q 727 442 756 423 q 675 478 699 462 q 634 511 651 495 q 618 546 618 526 q 631 577 618 564 q 662 604 643 591 q 702 632 681 617 q 742 667 724 647 q 774 715 761 688 q 786 782 786 743 q 769 860 786 817 q 714 942 752 903 q 613 1006 675 980 q 460 1031 550 1031 "},"ſ":{"ha":442,"x_min":25,"x_max":511,"o":"m 126 760 l 126 719 l 25 719 l 25 634 q 40 599 25 611 q 79 582 55 588 l 126 572 l 126 0 l 342 0 l 342 753 q 348 813 342 788 q 368 852 355 837 q 403 874 382 867 q 453 881 424 881 q 487 886 471 881 q 504 910 503 892 l 511 1018 q 464 1028 487 1025 q 415 1031 442 1031 q 294 1012 347 1031 q 203 957 240 992 q 146 872 166 922 q 126 760 126 822 "},"t":{"ha":533,"x_min":18,"x_max":532,"o":"m 331 -11 q 438 5 386 -11 q 532 51 490 20 l 467 153 q 455 168 460 163 q 439 172 449 172 q 427 170 432 172 q 416 164 422 167 q 402 159 410 161 q 382 156 394 156 q 347 173 359 156 q 335 214 335 189 l 335 572 l 513 572 l 513 719 l 335 719 l 335 929 l 222 929 q 175 896 183 929 l 133 720 l 18 698 l 18 614 q 30 582 18 593 q 58 572 42 572 l 119 572 l 119 199 q 133 113 119 151 q 174 46 147 74 q 240 4 201 19 q 331 -11 279 -11 "},"ť":{"ha":533,"x_min":18,"x_max":643,"o":"m 331 -11 q 438 5 386 -11 q 532 51 490 20 l 467 153 q 455 168 460 163 q 439 172 449 172 q 427 170 432 172 q 416 164 422 167 q 402 159 410 161 q 382 156 394 156 q 347 173 359 156 q 335 214 335 189 l 335 572 l 513 572 l 513 719 l 335 719 l 335 929 l 222 929 q 175 896 183 929 l 133 720 l 18 698 l 18 614 q 30 582 18 593 q 58 572 42 572 l 119 572 l 119 199 q 133 113 119 151 q 174 46 147 74 q 240 4 201 19 q 331 -11 279 -11 m 610 1041 l 464 1041 l 418 790 l 494 790 q 539 796 522 790 q 568 826 556 803 q 607 912 592 878 q 630 966 622 946 q 641 997 638 986 q 643 1013 643 1007 q 642 1022 643 1017 q 638 1031 641 1026 q 628 1038 635 1035 q 610 1041 621 1041 "},"ŧ":{"ha":540,"x_min":19,"x_max":533,"o":"m 38 483 l 38 356 l 121 356 l 121 199 q 135 113 121 151 q 175 46 149 74 q 241 4 202 19 q 332 -11 281 -11 q 440 5 388 -11 q 533 51 492 20 l 468 153 q 456 168 462 163 q 440 172 450 172 q 428 170 433 172 q 417 164 423 167 q 403 159 411 161 q 383 156 395 156 q 348 173 360 156 q 336 214 336 189 l 336 356 l 522 356 l 522 483 l 336 483 l 336 572 l 515 572 l 515 719 l 336 719 l 336 929 l 224 929 q 176 896 185 929 l 134 720 l 19 698 l 19 614 q 31 582 19 593 q 60 572 43 572 l 121 572 l 121 483 l 38 483 "},"u":{"ha":792,"x_min":66,"x_max":719,"o":"m 719 720 l 503 720 l 503 207 q 443 166 474 181 q 377 151 413 151 q 306 181 330 151 q 281 263 281 210 l 281 720 l 66 720 l 66 263 q 82 153 66 203 q 129 67 98 103 q 206 9 160 30 q 310 -11 251 -11 q 375 -5 345 -11 q 430 14 404 2 q 477 41 455 25 q 520 78 499 58 l 533 36 q 585 0 545 0 l 719 0 l 719 720 "},"ų":{"ha":792,"x_min":66,"x_max":783,"o":"m 783 -206 l 751 -129 q 731 -116 746 -116 q 725 -117 728 -116 q 718 -119 722 -118 q 708 -121 714 -120 q 691 -122 701 -122 q 663 -111 672 -122 q 653 -85 653 -101 q 673 -36 653 -58 q 719 0 692 -15 l 719 720 l 503 720 l 503 207 q 443 166 474 181 q 377 151 413 151 q 306 181 330 151 q 281 263 281 210 l 281 720 l 66 720 l 66 263 q 82 153 66 203 q 129 67 98 103 q 206 9 160 30 q 310 -11 251 -11 q 375 -5 345 -11 q 430 14 404 2 q 477 41 455 25 q 520 78 499 58 l 533 36 q 585 0 545 0 l 593 0 q 517 -67 541 -31 q 494 -137 494 -102 q 532 -212 494 -183 q 645 -241 571 -241 q 722 -231 686 -241 q 783 -206 758 -221 "},"v":{"ha":749,"x_min":-3,"x_max":751,"o":"m 751 720 l 581 720 q 544 709 560 720 q 524 683 529 699 l 419 360 q 377 208 392 283 q 359 283 369 245 q 336 360 349 320 l 236 683 q 215 709 231 699 q 176 720 199 720 l -3 720 l 276 0 l 472 0 l 751 720 "},"w":{"ha":1136,"x_min":3,"x_max":1133,"o":"m 1133 720 l 969 720 q 933 709 948 720 q 912 683 917 699 l 835 360 q 818 288 826 322 q 805 218 810 253 q 786 288 797 253 q 766 360 776 323 l 680 683 q 659 710 674 699 q 620 721 643 721 l 524 721 q 488 710 503 721 q 467 683 473 699 l 377 360 q 355 289 365 323 q 336 219 345 254 q 324 289 331 254 q 308 360 317 323 l 235 683 q 214 709 230 699 q 176 720 199 720 l 3 720 l 227 0 l 394 0 q 440 36 429 0 l 544 394 q 557 442 551 418 q 568 491 563 467 q 579 443 573 467 q 592 395 585 419 l 695 36 q 710 8 701 17 q 734 0 720 0 l 909 0 l 1133 720 "},"x":{"ha":756,"x_min":-6,"x_max":762,"o":"m 762 0 l 520 382 l 752 720 l 555 720 q 528 713 539 720 q 508 691 517 706 l 416 531 q 402 506 408 518 q 392 481 396 494 l 263 694 q 244 714 255 708 q 210 720 233 720 l 3 720 l 235 372 l -6 0 l 185 0 q 219 12 206 0 q 242 38 233 24 l 348 217 q 358 236 353 226 q 367 258 363 247 l 495 38 q 518 11 503 22 q 555 0 532 0 l 762 0 "},"y":{"ha":747,"x_min":-6,"x_max":757,"o":"m 757 720 l 583 720 q 549 709 565 720 q 526 683 533 699 l 419 374 q 403 330 411 352 q 388 285 396 308 q 361 372 378 330 l 243 683 q 223 709 237 698 q 185 720 210 720 l -6 720 l 282 63 l 143 -228 l 304 -228 q 349 -218 335 -228 q 372 -187 363 -208 l 757 720 "},"z":{"ha":647,"x_min":32,"x_max":608,"o":"m 608 634 l 608 720 l 51 720 l 51 560 l 363 560 l 60 158 q 39 121 46 141 q 32 88 32 101 l 32 0 l 601 0 l 601 160 l 280 160 l 581 557 q 601 591 593 570 q 608 634 608 612 "},"ª":{"ha":510,"x_min":44,"x_max":444,"o":"m 294 753 l 294 708 q 262 686 277 692 q 228 681 247 681 q 199 686 208 681 q 191 708 191 692 q 195 724 191 717 q 210 737 199 731 q 241 747 221 743 q 294 753 261 751 m 65 958 l 91 910 q 109 891 99 900 q 135 882 119 882 q 164 886 153 882 q 186 895 175 890 q 210 904 197 900 q 244 908 223 908 q 280 897 267 908 q 294 853 294 885 l 294 842 q 170 826 218 840 q 93 792 122 813 q 55 748 65 772 q 44 701 44 724 q 80 611 44 643 q 178 579 115 579 q 218 582 201 579 q 251 592 236 585 q 281 609 267 599 q 312 633 296 619 l 320 614 q 340 590 329 596 q 372 585 351 585 l 444 585 l 444 853 q 431 922 444 890 q 394 977 418 953 q 338 1014 371 1001 q 263 1027 304 1027 q 156 1011 206 1027 q 65 958 106 994 "},"º":{"ha":554,"x_min":38,"x_max":516,"o":"m 278 1026 q 182 1010 226 1026 q 106 966 138 995 q 56 896 74 938 q 38 803 38 855 q 56 708 38 750 q 106 637 74 666 q 182 592 138 608 q 278 576 226 576 q 374 592 331 576 q 449 637 418 608 q 498 708 481 666 q 516 803 516 750 q 498 896 516 855 q 449 966 481 938 q 374 1010 418 995 q 278 1026 331 1026 m 278 697 q 223 721 240 697 q 206 801 206 745 q 223 881 206 858 q 278 905 240 905 q 331 881 314 905 q 348 801 348 858 q 331 721 348 745 q 278 697 314 697 "},"ⁿ":{"ha":442,"x_min":44,"x_max":403,"o":"m 167 969 l 162 983 q 147 1005 156 999 q 123 1012 138 1012 l 44 1012 l 44 638 l 192 638 l 192 892 q 210 901 201 897 q 228 904 219 904 q 255 875 255 904 l 255 638 l 403 638 l 403 875 q 395 931 403 905 q 370 976 387 956 q 330 1006 354 995 q 276 1017 306 1017 q 241 1014 256 1017 q 213 1004 226 1010 q 189 989 200 997 q 167 969 178 980 "},"`":{"ha":556,"x_min":22,"x_max":394,"o":"m 224 1023 l 22 1023 l 203 840 q 233 818 219 824 q 272 811 248 811 l 394 811 l 300 981 q 272 1012 288 1001 q 224 1023 256 1023 "},"´":{"ha":556,"x_min":174,"x_max":553,"o":"m 553 1023 l 344 1023 q 296 1012 312 1023 q 268 981 280 1001 l 174 811 l 303 811 q 342 818 327 811 q 372 840 356 824 l 553 1023 "},"ˆ":{"ha":556,"x_min":14,"x_max":542,"o":"m 542 811 l 379 1012 l 176 1012 l 14 811 l 163 811 q 188 816 175 811 q 210 831 200 821 l 264 888 q 273 897 268 892 q 281 908 277 902 q 290 897 285 902 q 299 888 294 892 l 351 831 q 374 815 363 819 q 399 811 386 811 l 542 811 "},"ˇ":{"ha":556,"x_min":14,"x_max":542,"o":"m 542 1012 l 399 1012 q 375 1007 386 1012 q 357 999 363 1003 l 299 935 q 290 925 294 931 q 281 915 285 920 q 271 926 276 921 q 263 935 267 931 l 204 999 q 186 1008 198 1004 q 163 1012 175 1012 l 14 1012 l 176 811 l 379 811 l 542 1012 "},"̕":{"ha":0,"x_min":172,"x_max":397,"o":"m 364 1041 l 218 1041 l 172 790 l 249 790 q 293 796 276 790 q 322 826 310 803 q 361 912 347 878 q 384 966 376 946 q 395 997 392 986 q 397 1013 397 1007 q 396 1022 397 1017 q 392 1031 395 1026 q 382 1038 389 1035 q 364 1041 375 1041 "},"˜":{"ha":556,"x_min":39,"x_max":518,"o":"m 350 963 q 323 971 338 963 q 288 989 307 979 q 247 1007 269 999 q 199 1015 224 1015 q 136 1001 165 1015 q 85 963 107 988 q 51 902 64 938 q 39 824 39 867 l 171 824 q 181 861 171 852 q 207 871 190 871 q 234 863 219 871 q 269 845 250 855 q 310 827 288 835 q 358 819 333 819 q 422 833 392 819 q 472 870 451 846 q 506 930 494 895 q 518 1009 518 965 l 388 1009 q 377 972 388 981 q 350 963 367 963 "},"¨":{"ha":556,"x_min":18,"x_max":538,"o":"m 242 899 q 233 942 242 922 q 208 977 224 963 q 172 1001 192 992 q 128 1010 151 1010 q 86 1001 106 1010 q 51 977 66 992 q 27 942 36 963 q 18 899 18 922 q 27 858 18 877 q 51 824 36 838 q 86 801 66 810 q 128 793 106 793 q 172 801 151 793 q 208 824 192 810 q 233 858 224 838 q 242 899 242 877 m 538 899 q 529 942 538 922 q 505 977 520 963 q 469 1001 490 992 q 425 1010 449 1010 q 382 1001 402 1010 q 347 977 362 992 q 323 942 331 963 q 314 899 314 922 q 323 858 314 877 q 347 824 331 838 q 382 801 362 810 q 425 793 402 793 q 469 801 449 793 q 505 824 490 810 q 529 858 520 838 q 538 899 538 877 "},"¯":{"ha":556,"x_min":63,"x_max":493,"o":"m 63 966 l 63 834 l 493 834 l 493 966 l 63 966 "},"˘":{"ha":556,"x_min":50,"x_max":506,"o":"m 278 805 q 387 822 343 805 q 457 866 431 838 q 494 932 483 894 q 506 1012 506 969 l 356 1012 q 352 978 356 993 q 341 955 349 964 q 317 940 332 945 q 278 935 301 935 q 239 940 253 935 q 215 955 224 945 q 203 978 206 964 q 200 1012 200 993 l 50 1012 q 61 932 50 969 q 99 866 72 894 q 169 822 125 838 q 278 805 213 805 "},"˚":{"ha":556,"x_min":108,"x_max":449,"o":"m 108 926 q 122 865 108 892 q 159 818 136 838 q 213 788 182 799 q 276 777 243 777 q 342 788 310 777 q 397 818 373 799 q 435 865 421 838 q 449 926 449 892 q 435 989 449 961 q 397 1038 421 1017 q 342 1068 373 1058 q 276 1079 310 1079 q 213 1068 243 1079 q 159 1038 182 1058 q 122 989 136 1017 q 108 926 108 961 m 224 926 q 237 968 224 953 q 279 983 251 983 q 319 968 304 983 q 333 926 333 953 q 319 886 333 902 q 279 871 304 871 q 237 886 251 871 q 224 926 224 902 "},"˝":{"ha":556,"x_min":81,"x_max":640,"o":"m 376 1023 l 238 1023 q 188 1012 205 1023 q 161 981 172 1001 l 81 811 l 168 811 q 208 817 192 811 q 238 840 224 823 l 376 1023 m 640 1023 l 488 1023 q 460 1020 472 1023 q 440 1012 449 1017 q 425 999 431 1006 q 411 981 418 991 l 289 811 l 390 811 q 429 818 415 811 q 460 840 444 824 l 640 1023 "},"˙":{"ha":556,"x_min":149,"x_max":408,"o":"m 408 918 q 398 967 408 944 q 369 1007 388 990 q 327 1034 351 1024 q 276 1044 303 1044 q 227 1034 250 1044 q 186 1007 204 1024 q 159 967 169 990 q 149 918 149 944 q 159 869 149 892 q 186 830 169 847 q 227 803 204 813 q 276 793 250 793 q 327 803 303 793 q 369 830 351 813 q 398 869 388 847 q 408 918 408 892 "},"¸":{"ha":556,"x_min":151,"x_max":440,"o":"m 326 -35 l 343 31 l 224 31 l 178 -101 q 250 -115 229 -108 q 272 -137 272 -122 q 264 -151 272 -145 q 238 -158 256 -158 q 214 -155 224 -158 q 194 -153 204 -153 q 170 -172 174 -153 l 151 -236 q 201 -244 177 -242 q 253 -247 225 -247 q 330 -240 295 -247 q 388 -219 364 -233 q 426 -185 413 -205 q 440 -142 440 -166 q 434 -108 440 -124 q 416 -79 428 -92 q 381 -54 403 -65 q 326 -35 359 -43 "},"˛":{"ha":556,"x_min":138,"x_max":426,"o":"m 375 -116 q 369 -117 372 -116 q 362 -119 366 -118 q 351 -121 358 -120 q 335 -122 345 -122 q 307 -111 316 -122 q 297 -85 297 -101 q 316 -36 297 -58 q 363 0 335 -15 l 251 8 q 165 -61 192 -24 q 138 -137 138 -99 q 176 -212 138 -183 q 289 -241 215 -241 q 366 -231 330 -241 q 426 -206 402 -221 l 394 -129 q 375 -116 390 -116 "},"Γ":{"ha":770,"x_min":98,"x_max":749,"o":"m 749 838 l 749 1012 l 98 1012 l 98 0 l 334 0 l 334 838 l 749 838 "},"Δ":{"ha":993,"x_min":7,"x_max":985,"o":"m 245 179 l 440 663 q 464 732 451 693 q 489 819 477 772 q 514 733 501 773 q 538 664 526 693 l 724 179 l 245 179 m 958 197 l 619 1012 l 378 1012 l 34 194 q 14 127 20 160 q 7 65 7 94 l 7 0 l 985 0 l 985 65 q 958 197 985 131 "},"Θ":{"ha":1131,"x_min":40,"x_max":1091,"o":"m 388 596 l 388 415 l 742 415 l 742 596 l 388 596 m 1091 506 q 1053 710 1091 615 q 947 874 1015 804 q 781 983 878 943 q 566 1023 684 1023 q 351 983 448 1023 q 184 874 253 944 q 77 710 115 805 q 40 506 40 616 q 77 302 40 397 q 184 138 115 208 q 351 28 253 68 q 566 -11 448 -11 q 781 28 684 -11 q 947 138 878 68 q 1053 302 1015 208 q 1091 506 1091 397 m 851 506 q 831 370 851 431 q 775 269 812 310 q 686 205 739 227 q 566 183 633 183 q 445 205 498 183 q 355 269 392 227 q 299 370 319 310 q 280 506 280 431 q 299 641 280 581 q 355 743 319 701 q 445 807 392 785 q 566 829 498 829 q 686 807 633 829 q 775 743 739 785 q 831 641 812 701 q 851 506 851 581 "},"Λ":{"ha":985,"x_min":-20,"x_max":1003,"o":"m 1003 0 l 598 1012 l 385 1012 l -20 0 l 156 0 q 205 16 185 0 q 233 51 225 31 l 427 592 q 453 670 441 628 q 475 758 465 712 q 500 670 487 712 q 527 592 513 628 l 723 51 q 751 14 733 28 q 801 0 770 0 l 1003 0 "},"Ξ":{"ha":869,"x_min":47,"x_max":824,"o":"m 824 1012 l 47 1012 l 47 824 l 824 824 l 824 1012 m 824 188 l 47 188 l 47 0 l 824 0 l 824 188 m 220 602 l 220 408 l 651 408 l 651 602 l 220 602 "},"Π":{"ha":1079,"x_min":98,"x_max":981,"o":"m 981 0 l 981 1012 l 98 1012 l 98 0 l 334 0 l 334 838 l 745 838 l 745 0 l 981 0 "},"Σ":{"ha":856,"x_min":38,"x_max":815,"o":"m 442 838 l 815 838 l 815 1012 l 38 1012 l 38 915 q 45 881 38 897 q 65 851 53 864 l 374 505 l 80 177 q 50 134 62 158 q 38 85 38 109 l 38 0 l 815 0 l 815 174 l 413 174 q 362 173 390 174 q 301 166 334 171 q 334 191 317 176 q 374 232 351 206 l 521 408 q 552 446 540 429 q 571 476 565 463 q 580 502 578 490 q 581 526 581 514 q 579 545 581 535 q 571 568 577 556 q 553 596 565 580 q 522 633 541 612 l 419 762 q 365 809 394 788 q 297 849 335 831 q 365 840 331 843 q 442 838 399 838 "},"Φ":{"ha":1208,"x_min":31,"x_max":1178,"o":"m 715 231 l 715 783 q 812 759 769 781 q 886 700 856 737 q 934 613 917 663 q 951 507 951 563 q 934 400 951 450 q 886 314 917 351 q 812 255 856 277 q 715 231 769 233 m 493 783 l 493 231 q 396 255 440 233 q 322 314 353 277 q 274 400 291 351 q 258 507 258 450 q 274 613 258 563 q 322 700 291 663 q 396 759 353 737 q 493 783 440 781 m 715 958 l 715 1089 l 493 1089 l 493 958 q 361 940 423 957 q 249 894 300 924 q 157 824 197 865 q 88 733 116 783 q 45 626 60 683 q 31 507 31 569 q 45 388 31 445 q 88 281 60 331 q 157 190 116 231 q 249 120 197 149 q 361 74 300 90 q 493 56 423 57 l 493 -76 l 715 -76 l 715 56 q 906 93 820 58 q 1051 190 991 129 q 1145 332 1112 251 q 1178 507 1178 414 q 1145 682 1178 600 q 1051 824 1112 763 q 906 920 991 885 q 715 958 820 956 "},"Ψ":{"ha":1179,"x_min":51,"x_max":1127,"o":"m 1127 1012 l 969 1012 q 911 990 932 1012 q 891 936 891 968 l 891 647 q 883 555 891 594 q 853 487 874 515 q 797 442 833 459 q 706 421 761 426 l 706 1012 l 469 1012 l 469 422 q 379 443 415 426 q 323 488 344 460 q 295 556 303 516 q 287 647 287 595 l 287 936 q 266 990 287 968 q 209 1012 246 1012 l 51 1012 l 51 647 q 77 487 51 559 q 156 362 103 415 q 287 278 209 310 q 469 240 365 247 l 469 0 l 706 0 l 706 239 q 889 277 810 246 q 1021 361 968 309 q 1100 486 1074 414 q 1127 647 1127 558 l 1127 1012 "},"Ω":{"ha":1142,"x_min":47,"x_max":1096,"o":"m 1096 186 l 972 186 q 891 182 933 186 q 810 173 850 178 q 919 235 870 196 q 1003 324 968 274 q 1057 436 1038 375 q 1076 564 1076 497 q 1038 744 1076 660 q 932 890 1000 828 q 772 987 865 951 q 572 1023 680 1023 q 370 987 463 1023 q 210 890 278 951 q 104 744 142 828 q 66 564 66 660 q 85 436 66 497 q 139 324 104 375 q 223 235 174 274 q 332 173 272 196 q 251 182 292 178 q 170 186 210 186 l 47 186 l 47 71 q 68 20 47 40 q 124 0 89 0 l 499 0 l 499 256 q 423 288 459 262 q 359 355 387 314 q 316 449 332 396 q 299 561 299 501 q 320 680 299 630 q 378 764 342 731 q 465 813 415 797 q 571 829 515 829 q 677 813 628 829 q 764 764 727 797 q 822 680 801 731 q 843 561 843 630 q 827 449 843 501 q 783 355 810 396 q 719 288 756 314 q 643 256 683 262 l 643 0 l 1018 0 q 1075 20 1053 0 q 1096 71 1096 40 l 1096 186 "},"α":{"ha":851,"x_min":36,"x_max":850,"o":"m 527 501 l 511 338 q 495 251 506 286 q 467 194 484 216 q 429 164 451 173 q 382 154 408 154 q 335 164 357 154 q 295 196 313 173 q 268 256 278 219 q 258 350 258 294 q 271 456 258 413 q 303 526 283 499 q 349 564 324 552 q 401 576 374 576 q 440 570 421 576 q 475 553 459 564 q 505 530 492 543 q 527 501 518 516 m 850 145 l 791 145 q 760 150 775 145 q 734 165 746 155 q 716 191 723 176 q 710 227 710 206 q 713 292 710 260 q 717 358 717 324 l 751 720 l 618 720 q 565 684 578 720 l 558 658 q 472 714 522 693 q 362 734 423 734 q 232 706 292 734 q 129 625 172 677 q 61 502 85 574 q 36 344 36 430 q 58 196 36 262 q 119 84 81 131 q 211 14 158 38 q 327 -11 265 -11 q 384 -6 354 -11 q 444 13 414 0 q 502 47 474 26 q 556 98 531 67 q 625 18 582 44 q 721 -8 669 -8 q 775 -2 751 -8 q 815 14 799 4 q 841 37 832 24 q 850 63 850 49 l 850 145 "},"β":{"ha":802,"x_min":72,"x_max":769,"o":"m 288 202 l 288 642 q 293 749 288 705 q 313 820 299 793 q 348 860 326 848 q 402 872 370 872 q 477 843 449 872 q 506 744 506 814 q 499 690 506 711 q 477 655 492 668 q 439 636 463 642 q 382 631 415 631 l 365 631 l 365 468 l 408 468 q 457 464 431 468 q 503 445 482 460 q 538 402 524 431 q 551 324 551 374 q 543 256 551 288 q 516 200 535 224 q 467 162 497 176 q 395 148 438 148 q 335 160 360 148 q 288 202 309 172 m 72 649 l 72 -230 l 288 -230 l 288 44 q 450 -11 351 -11 q 581 15 522 -11 q 682 83 640 40 q 747 183 724 126 q 769 300 769 239 q 720 458 769 391 q 580 554 672 525 q 677 638 645 583 q 708 763 708 694 q 692 856 708 810 q 640 940 676 903 q 546 999 603 976 q 406 1022 488 1022 q 257 995 319 1022 q 153 919 194 968 q 92 801 112 870 q 72 649 72 733 "},"γ":{"ha":797,"x_min":19,"x_max":798,"o":"m 798 720 l 613 720 q 575 707 592 720 q 552 658 558 693 q 536 574 546 619 q 512 482 526 529 q 481 386 498 434 q 442 293 463 338 q 406 467 431 388 q 342 605 381 547 q 248 695 303 663 q 122 728 194 728 q 71 722 91 728 q 40 706 51 716 q 24 681 28 695 q 19 651 19 667 l 19 575 l 46 575 q 110 552 81 575 q 165 490 140 528 q 210 400 190 451 q 245 293 230 349 q 270 182 260 238 q 286 78 281 126 l 286 -228 l 501 -228 l 501 85 q 564 185 533 133 q 626 293 596 238 q 683 404 656 348 q 732 515 710 460 q 771 622 754 569 q 798 720 788 674 "},"δ":{"ha":787,"x_min":33,"x_max":753,"o":"m 394 147 q 332 162 358 147 q 289 202 306 176 q 264 261 272 227 q 256 335 256 296 q 267 417 256 381 q 297 480 278 453 q 339 525 315 506 q 390 557 363 544 q 447 516 419 538 q 494 467 474 494 q 526 405 515 439 q 538 326 538 370 q 528 251 538 284 q 498 195 517 218 q 452 159 479 172 q 394 147 426 147 m 660 860 l 677 988 q 610 1000 647 994 q 535 1010 574 1006 q 461 1016 497 1014 q 397 1019 425 1019 q 277 1005 328 1019 q 191 965 226 990 q 139 904 156 940 q 122 824 122 868 q 132 762 122 790 q 159 713 142 735 q 199 672 176 690 q 249 637 222 653 q 86 513 140 591 q 33 328 33 435 q 58 192 33 253 q 130 85 83 130 q 243 16 176 40 q 394 -9 310 -9 q 547 17 480 -9 q 660 88 614 42 q 729 195 706 133 q 753 330 753 258 q 734 448 753 396 q 686 543 716 501 q 617 617 656 585 q 538 675 578 649 q 459 720 498 700 q 391 758 421 740 q 342 791 360 775 q 324 824 324 806 q 337 848 324 838 q 381 857 351 857 q 441 851 408 857 q 506 836 474 844 q 565 822 538 828 q 606 816 592 816 q 644 825 631 816 q 660 860 656 834 "},"ε":{"ha":640,"x_min":39,"x_max":627,"o":"m 627 113 l 565 190 q 526 208 551 208 q 491 199 506 208 q 459 177 476 189 q 417 157 441 166 q 356 147 393 147 q 282 171 306 147 q 258 231 258 195 q 284 285 258 266 q 376 304 311 304 l 492 304 l 492 438 l 376 438 q 290 457 319 438 q 260 508 260 476 q 286 556 260 540 q 360 573 312 573 q 416 566 393 573 q 456 551 439 559 q 485 536 472 543 q 511 529 498 529 q 536 535 526 529 q 558 558 547 540 l 607 639 q 503 706 564 680 q 356 731 442 731 q 224 715 281 731 q 128 672 167 699 q 70 607 90 644 q 51 528 51 569 q 56 485 51 507 q 74 443 62 463 q 104 405 85 423 q 149 373 122 387 q 69 310 100 349 q 39 213 39 270 q 65 117 39 158 q 133 48 90 76 q 230 5 175 19 q 344 -9 285 -9 q 408 -4 372 -9 q 481 14 443 1 q 556 51 518 27 q 627 113 594 74 "},"ζ":{"ha":577,"x_min":34,"x_max":600,"o":"m 590 926 l 570 1012 l 68 1012 l 68 912 q 73 888 68 900 q 88 866 78 876 q 116 850 99 856 q 157 844 133 844 l 241 844 q 297 847 270 844 q 348 855 323 849 q 222 722 279 788 q 122 591 164 657 q 57 457 81 525 q 34 315 34 388 q 49 213 34 258 q 95 133 65 168 q 172 73 126 99 q 281 26 219 47 q 341 2 318 14 q 378 -20 365 -9 q 396 -42 391 -31 q 401 -65 401 -53 q 397 -89 401 -76 q 389 -114 394 -101 q 377 -139 383 -127 q 365 -160 371 -151 l 532 -222 q 600 -20 600 -117 q 591 43 600 14 q 558 99 581 73 q 495 147 534 125 q 396 190 456 169 q 324 220 353 204 q 276 255 294 235 q 249 300 258 275 q 241 360 241 326 q 254 450 241 406 q 289 533 267 493 q 339 610 311 574 q 395 679 367 647 q 451 738 424 711 q 500 788 478 765 q 549 838 530 817 q 577 875 567 859 q 590 903 588 891 q 590 926 593 915 "},"η":{"ha":836,"x_min":12,"x_max":770,"o":"m 12 658 l 12 576 l 50 576 q 100 556 82 576 q 117 494 117 536 l 117 0 l 333 0 l 333 514 q 393 555 362 540 q 459 569 424 569 q 531 540 506 569 q 555 458 555 510 l 555 -228 l 770 -228 l 770 458 q 754 567 770 517 q 707 654 738 617 q 630 711 676 690 q 526 731 585 731 q 393 704 451 731 q 288 633 335 676 q 218 705 263 681 q 118 728 172 728 q 69 722 89 728 q 36 706 49 716 q 17 683 23 696 q 12 658 12 671 "},"θ":{"ha":844,"x_min":53,"x_max":791,"o":"m 263 447 l 581 447 q 565 310 577 367 q 533 218 553 253 q 485 167 513 183 q 424 151 458 151 q 360 167 388 151 q 311 218 332 183 q 278 310 291 253 q 263 447 266 367 m 580 589 l 264 589 q 281 716 268 664 q 314 802 294 769 q 362 850 335 835 q 424 865 390 865 q 483 850 456 865 q 530 802 510 835 q 563 716 550 769 q 580 589 576 664 m 424 1024 q 273 991 341 1024 q 156 893 205 958 q 80 732 107 828 q 53 508 53 635 q 80 283 53 380 q 156 120 107 186 q 273 22 205 55 q 424 -11 341 -11 q 573 22 506 -11 q 689 120 640 55 q 764 283 738 186 q 791 508 791 380 q 764 732 791 635 q 689 893 738 828 q 573 991 640 958 q 424 1024 506 1024 "},"ι":{"ha":408,"x_min":68,"x_max":422,"o":"m 68 720 l 68 214 q 81 127 68 167 q 117 56 93 86 q 178 9 142 26 q 263 -8 215 -8 q 318 -2 290 -8 q 369 15 347 4 q 407 43 392 26 q 422 82 422 60 l 422 144 l 351 144 q 299 165 314 144 q 283 226 283 186 l 283 720 l 68 720 "},"λ":{"ha":777,"x_min":4,"x_max":777,"o":"m 777 144 l 734 144 q 674 159 693 144 q 645 206 655 175 l 408 876 q 367 949 392 921 q 311 993 342 977 q 250 1015 281 1009 q 190 1021 218 1021 q 134 1015 156 1021 q 98 999 112 1009 q 79 974 85 988 q 74 944 74 960 l 74 869 l 131 869 q 167 866 152 869 q 193 856 182 863 q 212 835 204 849 q 228 800 220 822 l 281 640 l 4 0 l 190 0 q 229 11 215 0 q 250 38 243 22 l 358 332 q 381 399 371 366 q 388 366 383 383 q 399 331 392 350 l 461 147 q 502 70 477 100 q 556 22 526 40 q 619 -2 586 4 q 685 -9 653 -9 q 723 -6 706 -9 q 752 4 740 -3 q 770 25 764 12 q 777 61 777 39 l 777 144 "},"μ":{"ha":849,"x_min":73,"x_max":853,"o":"m 853 145 l 794 145 q 744 165 762 145 q 726 226 726 185 l 726 720 l 511 720 l 511 281 q 462 209 493 235 q 384 184 431 184 q 313 217 337 184 q 288 303 288 249 l 288 720 l 73 720 l 73 -142 q 98 -206 73 -184 q 167 -228 122 -228 l 274 -228 l 274 -83 q 271 -19 274 -53 q 258 46 268 15 q 370 15 303 15 q 469 44 426 15 q 547 128 512 74 q 576 68 558 93 q 617 26 594 42 q 667 1 640 9 q 724 -8 694 -8 q 777 -2 753 -8 q 818 14 801 4 q 844 37 835 24 q 853 63 853 49 l 853 145 "},"ν":{"ha":736,"x_min":-3,"x_max":737,"o":"m 737 720 l 552 720 q 514 707 531 720 q 492 663 497 694 q 474 559 485 615 q 450 445 464 503 q 417 331 436 388 q 372 226 398 275 q 356 292 365 259 q 335 360 347 325 l 235 683 q 214 709 230 699 q 176 720 199 720 l -3 720 l 276 0 l 409 0 q 480 105 445 48 q 548 223 515 161 q 609 348 580 284 q 663 476 639 413 q 706 602 688 540 q 737 720 725 664 "},"ξ":{"ha":575,"x_min":38,"x_max":584,"o":"m 580 926 l 580 1012 l 51 1012 l 51 937 q 70 878 51 900 q 140 857 90 857 l 189 857 q 145 826 165 843 q 110 788 125 808 q 88 742 96 767 q 79 690 79 717 q 103 597 79 635 q 172 534 126 558 q 107 484 133 513 q 65 424 81 456 q 44 362 50 393 q 38 303 38 331 q 60 188 38 237 q 122 104 83 140 q 211 45 160 69 q 316 7 261 22 q 369 -24 353 -4 q 385 -69 385 -44 q 381 -91 385 -79 q 373 -115 378 -103 q 361 -140 367 -128 q 349 -161 355 -152 l 516 -222 q 567 -118 551 -169 q 584 -12 584 -67 q 549 94 584 50 q 438 168 514 139 q 346 206 382 189 q 289 241 310 224 q 259 277 267 258 q 251 324 251 297 q 282 411 251 378 q 385 444 313 444 l 506 444 l 506 606 l 428 606 q 317 629 357 606 q 277 705 277 652 q 288 765 277 738 q 318 809 299 791 q 366 838 338 828 q 428 848 394 848 l 497 848 q 527 853 512 848 q 554 868 542 858 q 573 893 565 878 q 580 926 580 908 "},"π":{"ha":897,"x_min":44,"x_max":864,"o":"m 864 622 l 864 719 l 123 719 q 90 713 104 719 q 65 695 75 706 q 49 671 54 684 q 44 647 44 658 l 44 558 l 180 558 q 166 378 176 452 q 142 259 157 305 q 108 192 128 213 q 65 172 89 172 l 51 172 l 51 33 q 59 15 51 22 q 80 2 67 7 q 108 -5 93 -2 q 136 -7 123 -7 q 204 2 173 -7 q 259 33 235 10 q 303 97 284 56 q 335 200 322 137 q 356 351 348 263 q 367 558 364 439 l 550 558 q 541 454 547 500 q 531 370 535 408 q 522 300 526 333 q 519 236 519 268 q 531 136 519 181 q 566 60 542 92 q 627 11 590 28 q 715 -6 664 -6 q 763 -2 740 -6 q 803 11 786 3 q 831 33 821 20 q 842 63 842 46 l 842 145 l 806 145 q 782 149 792 145 q 762 168 771 153 q 746 210 753 183 q 735 283 740 237 q 728 397 731 329 q 725 558 726 464 l 799 558 q 847 577 830 558 q 864 622 864 597 "},"ρ":{"ha":800,"x_min":63,"x_max":765,"o":"m 278 208 l 278 404 q 289 476 278 445 q 318 528 299 507 q 360 559 336 549 q 411 569 384 569 q 465 559 440 569 q 506 525 489 549 q 533 462 524 501 q 542 366 542 423 q 532 265 542 306 q 503 197 522 223 q 460 159 485 171 q 405 147 435 147 q 340 161 374 147 q 278 208 306 175 m 63 404 l 63 -228 l 278 -228 l 278 48 q 359 5 315 20 q 456 -11 403 -11 q 582 17 525 -11 q 679 97 638 46 q 742 216 719 147 q 765 366 765 285 q 736 518 765 450 q 659 633 708 585 q 546 706 610 681 q 411 732 482 732 q 260 709 326 732 q 151 642 195 685 q 85 539 108 599 q 63 404 63 478 "},"σ":{"ha":876,"x_min":35,"x_max":893,"o":"m 461 563 l 492 563 q 519 528 508 551 q 536 478 530 506 q 546 417 543 449 q 549 356 549 385 q 514 199 549 249 q 403 149 478 149 q 292 197 327 149 q 257 345 257 246 q 306 510 257 458 q 461 563 356 563 m 893 720 l 463 720 q 287 695 366 720 q 152 623 208 670 q 65 506 96 576 q 35 349 35 437 q 61 199 35 265 q 137 85 88 132 q 253 14 185 39 q 403 -11 322 -11 q 553 16 485 -11 q 668 90 620 42 q 743 204 717 138 q 769 347 769 269 q 748 472 769 418 q 690 563 726 525 l 828 563 q 855 568 842 563 q 875 582 867 574 q 889 601 884 591 q 893 620 893 611 l 893 720 "},"ς":{"ha":666,"x_min":35,"x_max":658,"o":"m 601 549 l 658 625 q 543 704 607 677 q 394 731 479 731 q 239 703 306 731 q 127 628 172 675 q 58 518 81 581 q 35 387 35 456 q 47 272 35 322 q 81 184 59 222 q 133 118 103 146 q 200 71 164 91 q 277 36 236 51 q 360 8 317 21 q 414 -24 398 -4 q 429 -69 429 -43 q 426 -90 429 -78 q 417 -115 422 -102 q 406 -139 412 -127 q 394 -160 399 -151 l 560 -222 q 612 -117 595 -169 q 628 -12 628 -66 q 593 95 628 51 q 483 169 558 139 q 375 208 418 191 q 305 249 331 226 q 267 308 278 273 q 256 400 256 343 q 265 466 256 435 q 292 522 274 498 q 340 559 311 545 q 408 573 369 573 q 462 565 440 573 q 499 548 483 558 q 528 531 515 539 q 557 524 541 524 q 583 531 574 524 q 601 549 592 538 "},"τ":{"ha":677,"x_min":6,"x_max":669,"o":"m 669 638 l 669 719 l 77 719 q 45 714 59 719 q 23 699 32 708 q 10 678 15 690 q 6 653 6 666 l 6 565 l 206 565 l 206 215 q 218 127 206 167 q 255 57 231 87 q 316 9 279 26 q 401 -8 353 -8 q 456 -2 428 -8 q 507 16 484 4 q 544 44 530 27 q 559 83 559 60 l 559 145 l 488 145 q 436 166 451 145 q 421 226 421 186 l 421 565 l 596 565 q 650 584 631 565 q 669 638 669 603 "},"υ":{"ha":785,"x_min":65,"x_max":732,"o":"m 697 720 l 549 720 q 527 717 538 720 q 507 705 516 713 q 493 685 498 697 q 490 653 488 672 q 499 584 493 618 q 510 517 504 550 q 519 450 515 483 q 524 381 524 416 q 511 267 524 312 q 480 197 499 223 q 435 161 460 172 q 387 151 411 151 q 310 181 340 151 q 281 263 281 210 l 281 720 l 65 720 l 65 263 q 85 150 65 201 q 144 64 106 99 q 241 8 183 28 q 372 -11 298 -11 q 506 11 441 -11 q 621 82 571 34 q 701 204 671 130 q 732 381 732 278 q 729 466 732 424 q 721 550 726 508 q 710 634 716 592 q 697 720 703 676 "},"φ":{"ha":1119,"x_min":34,"x_max":1085,"o":"m 657 142 l 657 478 q 663 527 657 508 q 678 557 668 546 q 701 574 688 569 q 728 578 714 578 q 776 565 751 578 q 822 527 801 552 q 856 464 842 501 q 870 377 870 426 q 855 275 870 319 q 813 203 840 232 q 746 158 785 174 q 657 142 706 143 m 456 478 l 456 142 q 371 159 409 144 q 306 202 333 174 q 264 269 279 229 q 249 360 249 309 q 275 481 249 432 q 344 560 301 531 q 359 573 352 563 q 370 594 367 582 q 373 619 374 606 q 364 644 372 632 l 308 726 q 197 667 247 703 q 110 584 147 631 q 54 481 74 538 q 34 362 34 425 q 66 209 34 277 q 154 92 98 141 q 288 17 210 44 q 456 -11 365 -10 l 456 -228 l 657 -228 l 657 -11 q 827 17 749 -10 q 963 93 905 44 q 1053 215 1020 143 q 1085 377 1085 286 q 1060 517 1085 453 q 987 630 1034 582 q 874 704 940 677 q 728 731 808 731 q 616 717 667 731 q 530 673 566 703 q 475 594 494 642 q 456 478 456 547 "},"χ":{"ha":703,"x_min":-1,"x_max":715,"o":"m 592 -29 l 486 222 l 715 721 l 560 721 q 521 710 535 721 q 501 683 507 699 l 410 467 q 401 432 405 451 q 394 390 397 412 l 310 587 q 269 655 292 627 q 218 700 247 683 q 155 724 190 717 q 79 731 120 731 q 30 725 47 731 q 6 709 13 719 q -1 685 -1 699 q -1 655 -1 671 l -1 578 l 26 578 q 63 576 48 578 q 89 565 78 573 q 110 544 101 557 q 129 510 119 531 l 229 273 l 2 -227 l 157 -227 q 196 -216 182 -227 q 215 -190 210 -206 l 306 22 q 316 58 312 38 q 323 100 320 78 l 403 -87 q 447 -167 422 -136 q 500 -214 472 -197 q 563 -237 529 -231 q 633 -244 596 -244 q 671 -241 656 -244 q 695 -231 686 -238 q 708 -209 704 -223 q 712 -174 712 -196 l 712 -91 l 683 -91 q 623 -75 642 -91 q 592 -29 604 -59 "},"ψ":{"ha":1131,"x_min":62,"x_max":1076,"o":"m 1041 720 l 885 720 q 864 717 875 720 q 845 705 853 713 q 832 685 837 697 q 826 653 826 672 q 832 600 826 624 q 843 547 837 576 q 855 478 850 517 q 860 381 860 440 q 849 284 860 324 q 815 218 838 244 q 757 177 792 192 q 674 157 722 163 l 674 1012 l 459 1012 l 459 160 q 324 224 370 176 q 277 359 277 272 l 277 642 q 272 668 277 654 q 258 693 267 682 q 237 713 249 705 q 212 720 225 720 l 62 720 l 62 359 q 83 218 62 281 q 152 107 105 154 q 275 31 199 60 q 459 -8 351 1 l 459 -228 l 674 -228 l 674 -6 q 833 25 760 1 q 961 93 907 48 q 1045 208 1015 138 q 1076 381 1076 278 q 1074 466 1076 424 q 1067 550 1072 508 q 1056 634 1062 592 q 1041 720 1049 676 "},"ω":{"ha":1139,"x_min":40,"x_max":1100,"o":"m 1016 720 l 860 720 q 837 716 850 720 q 814 700 824 711 q 803 673 805 690 q 811 631 801 656 q 817 616 811 628 q 830 585 822 604 q 848 540 838 565 q 865 488 857 515 q 879 432 874 460 q 884 378 884 403 q 874 264 884 308 q 848 195 864 220 q 811 161 832 170 q 770 151 791 151 q 726 165 744 151 q 698 203 708 179 q 682 261 687 228 q 678 334 678 294 l 677 334 l 677 487 l 462 487 l 462 334 q 457 261 462 294 q 442 203 453 228 q 414 165 431 179 q 369 151 396 151 q 328 161 349 151 q 292 195 308 170 q 266 264 276 220 q 256 378 256 308 q 261 432 256 403 q 274 488 266 460 q 292 540 283 515 q 309 585 301 565 q 323 616 317 604 q 328 631 328 628 q 337 673 339 656 q 325 700 335 690 q 303 716 316 711 q 279 720 290 720 l 124 720 q 89 638 104 681 q 62 550 73 594 q 45 462 51 506 q 40 378 40 418 q 60 226 40 297 q 118 102 80 155 q 213 19 157 50 q 342 -11 269 -11 q 417 -3 383 -11 q 480 21 451 6 q 530 56 508 36 q 569 101 552 76 q 607 56 585 76 q 657 21 629 36 q 720 -3 685 6 q 798 -11 756 -11 q 926 19 870 -11 q 1021 102 983 50 q 1080 226 1060 155 q 1100 378 1100 297 q 1094 462 1100 418 q 1077 550 1088 506 q 1051 638 1066 594 q 1016 720 1035 681 "},"΄":{"ha":556,"x_min":214,"x_max":428,"o":"m 214 792 l 337 792 l 418 996 q 418 1042 428 1025 q 379 1059 408 1059 l 247 1059 l 214 792 "},"΅":{"ha":556,"x_min":15,"x_max":598,"o":"m 211 798 l 334 798 l 415 1002 q 415 1049 425 1031 q 376 1066 406 1066 l 244 1066 l 211 798 m 598 907 q 591 941 598 925 q 572 970 584 958 q 543 989 560 982 q 508 996 527 996 q 474 989 490 996 q 445 970 458 982 q 426 941 433 958 q 419 907 419 925 q 426 874 419 889 q 445 847 433 858 q 474 829 458 835 q 508 822 490 822 q 543 829 527 822 q 572 847 560 835 q 591 874 584 858 q 598 907 598 889 m 193 907 q 186 941 193 925 q 166 970 178 958 q 138 989 154 982 q 102 996 121 996 q 68 989 84 996 q 41 970 53 982 q 22 941 28 958 q 15 907 15 925 q 22 874 15 889 q 41 847 28 858 q 68 829 53 835 q 102 822 84 822 q 138 829 121 822 q 166 847 154 835 q 186 874 178 858 q 193 907 193 889 "},"ʹ":{"ha":328,"x_min":33,"x_max":296,"o":"m 263 1058 l 129 1058 q 87 1044 100 1058 q 74 1006 74 1029 l 74 914 q 104 853 98 881 q 104 800 110 826 q 81 748 97 774 q 42 693 64 722 q 35 665 33 681 q 56 637 36 649 l 124 597 q 260 814 224 697 q 263 1058 296 931 "},"͵":{"ha":328,"x_min":33,"x_max":296,"o":"m 263 283 l 129 283 q 87 269 100 283 q 74 231 74 254 l 74 139 q 104 78 98 106 q 104 25 110 51 q 81 -27 97 -1 q 42 -82 64 -53 q 35 -110 33 -94 q 56 -138 36 -126 l 124 -178 q 260 39 224 -78 q 263 283 296 156 "},"Б":{"ha":887,"x_min":98,"x_max":853,"o":"m 469 177 l 333 177 l 333 430 l 469 430 q 545 420 515 430 q 592 394 575 411 q 615 353 609 377 q 622 302 622 330 q 615 256 622 278 q 592 216 609 233 q 545 188 575 198 q 469 177 515 177 m 469 607 l 333 607 l 333 836 l 815 836 l 815 1012 l 98 1012 l 98 0 l 469 0 q 631 24 560 0 q 752 90 703 47 q 827 193 801 133 q 853 326 853 253 q 833 433 853 382 q 766 523 812 484 q 647 584 720 561 q 469 607 574 607 "},"Г":{"ha":756,"x_min":98,"x_max":735,"o":"m 735 838 l 735 1012 l 98 1012 l 98 0 l 334 0 l 334 838 l 735 838 "},"Ґ":{"ha":756,"x_min":98,"x_max":735,"o":"m 735 838 l 735 1233 l 555 1233 l 555 1012 l 98 1012 l 98 0 l 334 0 l 334 838 l 735 838 "},"Д":{"ha":1151,"x_min":10,"x_max":1119,"o":"m 733 174 l 374 174 q 419 277 398 217 q 458 417 440 337 q 488 602 475 498 q 510 838 501 706 l 733 838 l 733 174 m 1119 174 l 969 174 l 969 1012 l 288 1012 q 275 734 284 854 q 254 524 267 613 q 226 372 242 434 q 194 270 211 310 q 159 207 177 230 q 124 174 141 185 l 10 174 l 10 -236 l 151 -236 q 205 -219 184 -236 q 225 -172 225 -201 l 225 0 l 904 0 l 904 -236 l 1046 -236 q 1099 -219 1078 -236 q 1119 -172 1119 -201 l 1119 174 "},"Ж":{"ha":1520,"x_min":-8,"x_max":1528,"o":"m 1528 0 l 1297 422 q 1238 497 1269 469 q 1166 539 1206 524 q 1221 575 1199 552 q 1265 632 1244 598 l 1496 1012 l 1310 1012 q 1245 995 1274 1012 q 1197 949 1215 979 l 1033 651 q 996 612 1016 622 q 949 602 976 602 l 870 602 l 870 1012 l 649 1012 l 649 602 l 571 602 q 524 612 544 602 q 488 651 504 622 l 323 949 q 275 995 305 979 q 210 1012 246 1012 l 24 1012 l 255 632 q 299 575 276 598 q 354 539 322 552 q 282 497 314 524 q 224 422 251 469 l -8 0 l 149 0 q 235 21 199 0 q 293 78 272 42 l 456 374 q 496 418 474 406 q 551 431 519 431 l 649 431 l 649 0 l 870 0 l 870 431 l 969 431 q 1024 418 1001 431 q 1065 374 1047 406 l 1227 78 q 1285 21 1249 42 q 1372 0 1321 0 l 1528 0 "},"З":{"ha":815,"x_min":4,"x_max":769,"o":"m 40 915 l 99 806 q 120 781 109 790 q 150 773 132 773 q 186 783 167 773 q 232 806 206 793 q 292 828 258 818 q 371 838 326 838 q 488 810 449 838 q 526 734 526 782 q 484 648 526 678 q 354 619 442 619 l 226 619 l 226 437 l 374 437 q 445 430 413 438 q 500 407 477 422 q 536 368 524 391 q 549 315 549 345 q 538 251 549 277 q 506 208 527 224 q 454 184 485 191 q 385 176 424 176 q 291 190 331 176 q 222 219 251 203 q 169 248 192 235 q 125 261 147 261 q 95 253 109 261 q 74 233 82 245 l 4 124 q 80 69 37 94 q 171 27 122 45 q 273 0 220 10 q 378 -10 326 -10 q 544 16 472 -10 q 667 88 617 42 q 743 193 717 133 q 769 324 769 254 q 759 389 769 358 q 729 445 748 419 q 683 493 710 471 q 624 531 656 515 q 716 627 687 569 q 746 753 746 685 q 720 863 746 813 q 645 948 694 913 q 527 1003 597 983 q 373 1023 458 1023 q 186 994 272 1023 q 40 915 99 965 "},"И":{"ha":1079,"x_min":98,"x_max":981,"o":"m 981 1012 l 804 1012 q 772 1006 788 1012 q 744 989 757 999 q 720 967 731 979 q 701 942 709 954 l 394 416 q 357 350 376 388 q 322 268 338 312 q 332 362 330 318 q 334 446 334 406 l 334 1012 l 98 1012 l 98 0 l 275 0 q 307 6 292 0 q 335 23 322 13 q 359 45 349 33 q 378 70 370 58 l 685 596 q 722 662 703 624 q 757 744 741 700 q 748 650 750 694 q 745 567 745 606 l 745 0 l 981 0 l 981 1012 "},"К":{"ha":999,"x_min":98,"x_max":1003,"o":"m 1003 0 l 777 417 q 716 497 749 468 q 637 538 683 526 q 690 568 666 550 q 732 614 715 586 l 978 1012 l 777 1012 q 722 995 744 1012 q 683 952 699 978 l 499 647 q 464 612 483 622 q 419 602 445 602 l 333 602 l 333 1012 l 98 1012 l 98 0 l 333 0 l 333 431 l 438 431 q 491 421 470 431 q 528 381 512 411 l 697 65 q 736 17 715 33 q 789 0 758 0 l 1003 0 "},"Л":{"ha":1056,"x_min":-1,"x_max":958,"o":"m 958 0 l 958 1012 l 277 1012 q 265 744 274 860 q 245 540 257 627 q 220 392 234 453 q 190 290 206 331 q 157 226 174 249 q 123 191 140 203 q 89 176 106 179 q 57 174 72 174 l -1 174 l -1 31 q 24 0 -1 10 q 111 -11 50 -11 q 207 0 161 -11 q 292 43 252 11 q 365 134 331 76 q 424 287 398 192 q 469 516 451 381 q 499 838 488 651 l 722 838 l 722 0 l 958 0 "},"Љ":{"ha":1497,"x_min":-1,"x_max":1479,"o":"m 1094 177 l 958 177 l 958 430 l 1094 430 q 1171 420 1141 430 q 1218 394 1201 411 q 1241 353 1235 377 q 1247 302 1247 330 q 1241 256 1247 278 q 1218 216 1235 233 q 1171 188 1201 198 q 1094 177 1141 177 m 1094 607 l 958 607 l 958 1012 l 277 1012 q 265 744 274 860 q 245 540 257 627 q 220 392 234 453 q 190 290 206 331 q 157 226 174 249 q 123 191 140 203 q 89 176 106 179 q 57 174 72 174 l -1 174 l -1 31 q 24 0 -1 10 q 111 -11 50 -11 q 207 0 161 -11 q 292 43 252 11 q 365 134 331 76 q 424 287 398 192 q 469 516 451 381 q 499 838 488 651 l 722 838 l 722 0 l 1094 0 q 1257 24 1185 0 q 1378 90 1328 47 q 1453 193 1427 133 q 1479 326 1479 253 q 1458 433 1479 382 q 1392 523 1438 484 q 1273 584 1346 561 q 1094 607 1199 607 "},"Њ":{"ha":1520,"x_min":98,"x_max":1502,"o":"m 1117 177 l 981 177 l 981 430 l 1117 430 q 1194 420 1164 430 q 1241 394 1224 411 q 1264 353 1258 377 q 1270 302 1270 330 q 1264 256 1270 278 q 1241 216 1258 233 q 1194 188 1224 198 q 1117 177 1164 177 m 1117 607 l 981 607 l 981 1012 l 745 1012 l 745 589 l 334 589 l 334 1012 l 98 1012 l 98 0 l 334 0 l 334 428 l 745 428 l 745 0 l 1117 0 q 1280 24 1208 0 q 1401 90 1351 47 q 1476 193 1450 133 q 1502 326 1502 253 q 1481 433 1502 382 q 1415 523 1460 484 q 1295 584 1369 561 q 1117 607 1222 607 "},"Ѳ":{"ha":1131,"x_min":40,"x_max":1091,"o":"m 285 428 l 845 428 q 813 325 835 370 q 754 248 790 279 q 672 200 719 217 q 566 183 624 183 q 460 200 508 183 q 377 248 413 217 q 318 325 341 279 q 285 428 294 370 m 843 596 l 288 596 q 380 768 308 707 q 566 829 451 829 q 751 768 680 829 q 843 596 822 707 m 566 1023 q 351 983 448 1023 q 184 874 253 944 q 77 710 115 805 q 40 506 40 616 q 77 302 40 397 q 184 138 115 208 q 351 28 253 68 q 566 -11 448 -11 q 781 28 684 -11 q 947 138 878 68 q 1053 302 1015 208 q 1091 506 1091 397 q 1053 710 1091 615 q 947 874 1015 804 q 781 983 878 943 q 566 1023 684 1023 "},"П":{"ha":1048,"x_min":98,"x_max":950,"o":"m 950 0 l 950 1012 l 98 1012 l 98 0 l 334 0 l 334 838 l 714 838 l 714 0 l 950 0 "},"У":{"ha":919,"x_min":-24,"x_max":944,"o":"m 944 1012 l 750 1012 q 723 1007 735 1012 q 702 995 711 1003 q 685 979 692 988 q 674 961 678 970 l 539 660 q 508 592 522 626 q 484 523 494 558 q 458 592 473 558 q 425 660 444 626 l 275 961 q 245 998 263 983 q 197 1012 228 1012 l -24 1012 l 383 308 l 351 245 q 323 207 338 221 q 293 185 308 192 q 263 176 278 178 q 235 174 248 174 l 176 174 l 176 31 q 202 0 176 10 q 289 -11 228 -11 q 363 -5 328 -11 q 429 20 398 2 q 487 68 460 38 q 538 147 514 99 l 944 1012 "},"Ѵ":{"ha":1009,"x_min":-22,"x_max":1001,"o":"m 671 851 l 541 419 q 515 342 527 384 q 493 254 503 300 q 468 342 481 300 q 441 419 455 384 l 245 961 q 217 998 235 983 q 167 1012 198 1012 l -22 1012 l 384 0 l 597 0 l 876 765 q 910 819 890 803 q 963 836 931 836 l 1001 836 l 1001 978 q 998 997 1001 989 q 986 1010 995 1005 q 958 1018 976 1015 q 910 1020 940 1020 q 755 978 811 1020 q 671 851 699 937 "},"Ф":{"ha":1145,"x_min":32,"x_max":1113,"o":"m 684 294 l 684 758 q 762 738 726 757 q 824 688 798 719 q 865 616 850 657 q 879 526 879 574 q 865 437 879 478 q 824 364 850 395 q 762 314 798 333 q 684 294 726 296 m 462 758 l 462 294 q 383 314 419 296 q 322 364 347 333 q 281 437 296 395 q 267 526 267 478 q 281 616 267 574 q 322 688 296 657 q 383 738 347 719 q 462 758 419 757 m 684 933 l 684 1051 l 462 1051 l 462 933 q 291 896 370 929 q 155 808 213 863 q 65 681 97 753 q 32 526 32 609 q 65 371 32 444 q 155 244 97 299 q 292 156 213 189 q 462 119 370 123 l 462 0 l 684 0 l 684 119 q 854 156 776 123 q 990 244 933 189 q 1081 371 1048 299 q 1113 526 1113 444 q 1081 681 1113 609 q 990 808 1048 753 q 854 896 933 863 q 684 933 776 929 "},"Ц":{"ha":1122,"x_min":98,"x_max":1086,"o":"m 1086 174 l 950 174 l 950 1012 l 714 1012 l 714 174 l 334 174 l 334 1012 l 98 1012 l 98 0 l 871 0 l 871 -236 l 1013 -236 q 1066 -219 1045 -236 q 1086 -172 1086 -201 l 1086 174 "},"Џ":{"ha":1048,"x_min":98,"x_max":950,"o":"m 950 1012 l 714 1012 l 714 174 l 334 174 l 334 1012 l 98 1012 l 98 0 l 416 0 l 416 -236 l 558 -236 q 611 -219 590 -236 q 631 -172 631 -201 l 631 0 l 950 0 l 950 1012 "},"Ч":{"ha":958,"x_min":46,"x_max":860,"o":"m 860 1012 l 624 1012 l 624 541 q 450 517 517 517 q 346 535 383 516 q 295 590 308 553 q 282 675 282 626 l 282 1012 l 46 1012 l 46 676 q 66 535 46 594 q 122 436 85 476 q 211 376 159 397 q 327 350 263 356 q 466 353 392 344 q 624 380 541 361 l 624 0 l 860 0 l 860 1012 "},"Ш":{"ha":1518,"x_min":98,"x_max":1420,"o":"m 1420 1012 l 1184 1012 l 1184 174 l 877 174 l 877 1012 l 641 1012 l 641 174 l 334 174 l 334 1012 l 98 1012 l 98 0 l 1420 0 l 1420 1012 "},"Щ":{"ha":1592,"x_min":98,"x_max":1556,"o":"m 1556 174 l 1420 174 l 1420 1012 l 1184 1012 l 1184 174 l 877 174 l 877 1012 l 641 1012 l 641 174 l 334 174 l 334 1012 l 98 1012 l 98 0 l 1341 0 l 1341 -236 l 1483 -236 q 1536 -219 1515 -236 q 1556 -172 1556 -201 l 1556 174 "},"Ъ":{"ha":1075,"x_min":20,"x_max":1057,"o":"m 672 177 l 536 177 l 536 430 l 672 430 q 749 420 719 430 q 795 394 778 411 q 819 353 813 377 q 825 302 825 330 q 819 256 825 278 q 795 216 813 233 q 749 188 778 198 q 672 177 719 177 m 672 607 l 536 607 l 536 1012 l 20 1012 l 20 831 l 301 831 l 301 0 l 672 0 q 835 24 763 0 q 956 90 906 47 q 1031 193 1005 133 q 1057 326 1057 253 q 1036 433 1057 382 q 969 523 1015 484 q 850 584 924 561 q 672 607 777 607 "},"Ы":{"ha":1301,"x_min":98,"x_max":1203,"o":"m 469 177 l 333 177 l 333 430 l 469 430 q 545 420 515 430 q 592 394 575 411 q 615 353 609 377 q 622 302 622 330 q 615 256 622 278 q 592 216 609 233 q 545 188 575 198 q 469 177 515 177 m 469 607 l 333 607 l 333 1012 l 98 1012 l 98 0 l 469 0 q 631 24 560 0 q 752 90 703 47 q 827 193 801 133 q 853 326 853 253 q 833 433 853 382 q 766 523 812 484 q 647 584 720 561 q 469 607 574 607 m 1203 0 l 1203 1012 l 967 1012 l 967 0 l 1203 0 "},"Ь":{"ha":872,"x_min":98,"x_max":853,"o":"m 469 177 l 333 177 l 333 430 l 469 430 q 545 420 515 430 q 592 394 575 411 q 615 353 609 377 q 622 302 622 330 q 615 256 622 278 q 592 216 609 233 q 545 188 575 198 q 469 177 515 177 m 469 607 l 333 607 l 333 1012 l 98 1012 l 98 0 l 469 0 q 631 24 560 0 q 752 90 703 47 q 827 193 801 133 q 853 326 853 253 q 833 433 853 382 q 766 523 812 484 q 647 584 720 561 q 469 607 574 607 "},"Э":{"ha":918,"x_min":13,"x_max":877,"o":"m 25 888 l 104 782 q 122 764 112 772 q 151 756 133 756 q 186 768 170 756 q 226 793 203 779 q 284 818 249 806 q 374 829 318 829 q 465 814 423 829 q 541 769 508 799 q 596 695 574 739 q 629 596 619 652 l 200 596 l 200 428 l 631 428 q 597 322 621 368 q 538 245 572 276 q 460 198 503 214 q 369 182 417 182 q 310 185 336 182 q 261 195 284 188 q 218 215 238 203 q 177 246 198 227 q 159 257 169 253 q 139 262 149 262 q 122 259 131 262 q 106 248 114 256 l 13 150 q 166 30 74 70 q 384 -11 258 -11 q 591 28 499 -11 q 745 136 682 67 q 843 300 809 206 q 877 506 877 395 q 840 714 877 619 q 737 878 803 809 q 577 985 670 947 q 372 1023 484 1023 q 265 1013 315 1023 q 170 985 214 1003 q 90 942 126 967 q 25 888 53 917 "},"Є":{"ha":919,"x_min":42,"x_max":906,"o":"m 780 262 q 760 257 769 262 q 742 246 750 253 q 701 215 721 227 q 658 195 681 203 q 608 185 635 188 q 550 182 582 182 q 459 198 502 182 q 381 245 416 214 q 323 322 347 276 q 288 428 299 368 l 717 428 l 717 596 l 290 596 q 323 695 300 652 q 378 768 345 739 q 453 814 411 798 q 545 829 496 829 q 609 824 582 829 q 657 810 637 818 q 693 793 678 802 q 720 775 708 783 q 744 762 733 767 q 767 756 755 756 q 797 764 786 756 q 815 782 807 772 l 894 888 q 828 942 865 917 q 748 985 792 967 q 654 1013 704 1003 q 547 1023 603 1023 q 342 985 435 1023 q 182 878 249 947 q 78 714 115 809 q 42 506 42 619 q 76 300 42 395 q 173 136 110 206 q 328 28 237 67 q 535 -11 419 -11 q 752 30 660 -11 q 906 150 844 70 l 813 248 q 797 259 805 256 q 780 262 788 262 "},"Ю":{"ha":1510,"x_min":98,"x_max":1468,"o":"m 974 176 q 865 200 912 176 q 785 266 817 223 q 736 369 753 308 q 719 506 719 431 q 736 642 719 581 q 785 746 753 703 q 865 812 817 789 q 974 835 912 835 q 1082 812 1035 835 q 1162 746 1130 789 q 1211 642 1194 703 q 1228 506 1228 581 q 1211 369 1228 431 q 1162 266 1194 308 q 1082 200 1130 223 q 974 176 1035 176 m 485 590 l 334 590 l 334 1012 l 98 1012 l 98 0 l 334 0 l 334 416 l 485 416 q 538 245 499 323 q 640 110 578 167 q 787 21 703 53 q 974 -11 872 -11 q 1180 28 1088 -11 q 1335 138 1272 68 q 1434 302 1399 208 q 1468 506 1468 397 q 1434 710 1468 616 q 1335 874 1399 805 q 1180 983 1272 944 q 974 1023 1088 1023 q 785 991 870 1023 q 638 900 701 958 q 536 763 575 842 q 485 590 497 684 "},"Я":{"ha":961,"x_min":-17,"x_max":863,"o":"m 628 582 l 485 582 q 409 591 438 582 q 362 618 379 601 q 339 658 345 635 q 333 710 333 682 q 339 757 333 734 q 362 797 345 779 q 409 825 379 815 q 485 835 438 835 l 628 835 l 628 582 m 863 0 l 863 1012 l 485 1012 q 323 989 394 1012 q 202 925 251 966 q 127 829 153 885 q 101 708 101 774 q 113 624 101 664 q 150 550 125 583 q 215 490 176 516 q 306 448 253 464 q 241 407 269 432 q 190 345 213 382 l -17 0 l 161 0 q 248 21 212 0 q 306 78 284 42 l 447 336 q 497 391 470 377 q 556 406 524 406 l 628 406 l 628 0 l 863 0 "},"Ђ":{"ha":1060,"x_min":19,"x_max":1056,"o":"m 671 607 l 507 607 l 507 833 l 775 833 l 775 1012 l 19 1012 l 19 833 l 272 833 l 272 0 l 507 0 l 507 430 l 671 430 q 747 420 717 430 q 794 394 777 411 q 817 353 811 377 q 824 302 824 330 q 817 256 824 278 q 794 216 811 233 q 747 188 777 198 q 671 177 717 177 l 617 177 l 617 0 l 671 0 q 833 24 762 0 q 954 90 905 47 q 1030 193 1003 133 q 1056 326 1056 253 q 1035 433 1056 382 q 968 523 1014 484 q 849 584 922 561 q 671 607 776 607 "},"Ћ":{"ha":1066,"x_min":19,"x_max":1029,"o":"m 507 601 l 507 833 l 775 833 l 775 1012 l 19 1012 l 19 833 l 272 833 l 272 0 l 507 0 l 507 440 q 623 460 575 456 q 703 461 671 465 q 753 444 735 457 q 780 411 771 431 q 791 364 789 391 q 793 305 793 338 l 793 -1 l 1029 -1 l 1029 304 q 993 498 1029 426 q 889 602 956 570 q 724 632 821 635 q 507 601 628 629 "},"Ѣ":{"ha":1033,"x_min":26,"x_max":1015,"o":"m 631 177 l 494 177 l 494 430 l 631 430 q 707 420 677 430 q 754 394 737 411 q 777 353 771 377 q 783 302 783 330 q 777 256 783 278 q 754 216 771 233 q 707 188 737 198 q 631 177 677 177 m 631 607 l 494 607 l 494 717 l 777 717 l 777 883 l 494 883 l 494 1012 l 260 1012 l 260 883 l 26 883 l 26 717 l 260 717 l 260 0 l 631 0 q 793 24 722 0 q 914 90 865 47 q 989 193 963 133 q 1015 326 1015 253 q 994 433 1015 382 q 928 523 974 484 q 809 584 882 561 q 631 607 735 607 "},"б":{"ha":828,"x_min":53,"x_max":790,"o":"m 424 141 q 311 191 347 141 q 276 343 276 241 q 311 493 276 444 q 424 542 347 542 q 533 492 498 542 q 568 342 568 443 q 533 191 568 240 q 424 141 498 141 m 475 820 l 664 830 q 713 855 699 831 q 724 913 727 879 l 712 1022 l 457 1004 q 264 952 342 997 q 140 836 187 908 q 73 670 93 764 q 53 469 53 576 q 80 248 53 339 q 156 99 107 157 q 273 15 205 42 q 424 -11 341 -11 q 573 14 506 -11 q 689 84 640 38 q 764 195 737 130 q 790 342 790 260 q 768 486 790 422 q 706 597 747 551 q 608 668 665 643 q 478 694 550 694 q 402 685 438 694 q 338 663 367 677 q 284 629 308 649 q 243 586 260 609 q 260 678 246 637 q 302 751 274 720 q 373 799 330 781 q 475 820 415 817 "},"в":{"ha":706,"x_min":73,"x_max":668,"o":"m 383 142 l 277 142 l 277 299 l 383 299 q 428 293 410 299 q 455 276 445 287 q 467 252 464 266 q 470 223 470 238 q 447 164 470 185 q 383 142 423 142 m 277 585 l 368 585 q 411 579 394 585 q 439 562 428 572 q 453 538 449 551 q 458 512 458 525 q 433 450 458 474 q 368 426 408 426 l 277 426 l 277 585 m 374 720 l 73 720 l 73 0 l 384 0 q 489 12 438 0 q 580 50 540 24 q 644 116 619 76 q 668 215 668 157 q 657 275 668 249 q 625 322 645 302 q 576 356 604 342 q 515 378 548 370 q 580 407 555 389 q 620 448 606 426 q 641 495 635 471 q 647 544 647 520 q 630 614 647 582 q 580 670 614 647 q 495 707 547 694 q 374 720 444 720 "},"г":{"ha":594,"x_min":73,"x_max":580,"o":"m 580 566 l 580 720 l 73 720 l 73 0 l 288 0 l 288 566 l 580 566 "},"ґ":{"ha":594,"x_min":73,"x_max":580,"o":"m 580 889 l 384 889 l 384 720 l 73 720 l 73 0 l 288 0 l 288 566 l 580 566 l 580 889 "},"д":{"ha":900,"x_min":9,"x_max":881,"o":"m 540 148 l 314 148 q 344 217 330 178 q 370 308 358 257 q 391 422 382 358 q 407 561 401 485 l 540 561 l 540 148 m 881 154 l 748 154 l 748 720 l 231 720 q 213 491 224 586 q 186 333 201 397 q 154 233 172 269 q 116 177 136 196 q 73 153 95 158 q 26 148 50 148 l 9 148 l 9 -236 l 146 -236 q 172 -231 161 -236 q 191 -218 183 -226 q 201 -199 198 -210 q 205 -178 205 -189 l 205 0 l 685 0 l 685 -236 l 820 -236 q 864 -219 847 -236 q 881 -175 881 -203 l 881 154 "},"ж":{"ha":1172,"x_min":5,"x_max":1167,"o":"m 1167 0 l 1017 296 q 977 350 999 329 q 919 383 955 372 q 963 411 945 393 q 999 458 981 429 l 1150 720 l 980 720 q 926 706 951 720 q 888 666 902 691 l 793 476 q 766 444 782 453 q 721 435 750 435 l 690 435 l 690 720 l 482 720 l 482 435 l 448 435 q 405 444 419 435 q 379 476 390 453 l 284 666 q 246 706 270 691 q 192 720 222 720 l 22 720 l 174 458 q 209 411 191 429 q 253 383 227 393 q 195 350 217 372 q 156 296 173 329 l 5 0 l 153 0 q 203 4 182 0 q 240 17 224 8 q 267 39 256 26 q 286 71 278 53 l 363 252 q 393 288 373 276 q 438 299 413 299 l 482 299 l 482 0 l 690 0 l 690 299 l 734 299 q 780 288 760 299 q 810 252 799 276 l 886 71 q 906 39 894 53 q 932 17 917 26 q 969 4 948 8 q 1019 0 990 0 l 1167 0 "},"з":{"ha":628,"x_min":13,"x_max":588,"o":"m 33 639 l 82 558 q 104 535 94 540 q 129 529 115 529 q 155 536 142 529 q 185 551 168 543 q 224 566 201 559 q 281 573 247 573 q 354 556 328 573 q 380 508 380 540 q 351 457 380 476 q 264 438 322 438 l 183 438 l 183 304 l 264 304 q 356 285 329 304 q 383 231 383 266 q 358 171 383 195 q 280 147 333 147 q 222 157 244 147 q 181 177 199 166 q 149 199 164 189 q 115 208 134 208 q 76 190 89 208 l 13 113 q 84 50 47 74 q 159 13 122 26 q 232 -6 197 -1 q 294 -11 267 -11 q 401 3 349 -11 q 495 47 454 18 q 562 117 537 75 q 588 213 588 158 q 578 270 588 244 q 553 318 569 297 q 515 355 538 339 q 467 382 493 371 q 518 413 497 395 q 552 451 539 431 q 570 493 565 472 q 576 534 576 514 q 556 609 576 574 q 499 672 536 645 q 408 715 462 699 q 287 731 355 731 q 138 706 199 731 q 33 639 76 680 "},"и":{"ha":819,"x_min":73,"x_max":747,"o":"m 747 720 l 615 720 q 591 716 602 720 q 570 704 580 711 q 552 687 560 697 q 538 669 544 678 q 429 504 478 577 q 389 443 408 473 q 353 389 369 413 q 327 350 338 365 q 316 333 317 335 q 281 270 297 308 q 286 314 284 292 q 288 353 288 335 l 288 719 l 73 719 l 73 -1 l 205 -1 q 228 4 217 -1 q 249 16 240 8 q 267 32 259 23 q 281 51 275 42 q 390 215 342 142 q 431 276 411 247 q 466 330 451 306 q 492 369 482 354 q 503 386 502 385 q 539 449 522 412 q 533 406 535 427 q 531 367 531 385 l 531 0 l 747 0 l 747 720 "},"к":{"ha":788,"x_min":73,"x_max":783,"o":"m 497 666 l 401 476 q 376 444 390 453 q 333 435 362 435 l 288 435 l 288 720 l 73 720 l 73 0 l 288 0 l 288 299 l 342 299 q 388 288 368 299 q 418 252 408 276 l 494 71 q 517 40 505 53 q 547 18 530 27 q 584 5 563 9 q 634 0 606 0 l 783 0 l 632 296 q 592 350 615 328 q 535 383 570 372 q 578 411 560 393 q 614 458 597 429 l 765 720 l 595 720 q 539 705 566 720 q 497 666 513 690 "},"л":{"ha":847,"x_min":4,"x_max":774,"o":"m 774 0 l 774 720 l 251 720 q 232 495 244 589 q 206 339 221 402 q 173 237 191 275 q 135 180 155 199 q 93 154 115 160 q 49 148 72 148 l 4 148 l 4 19 q 24 -3 4 5 q 92 -11 44 -11 q 167 -5 130 -11 q 239 23 204 2 q 303 82 273 43 q 359 184 334 120 q 401 340 383 247 q 428 561 419 432 l 559 561 l 559 0 l 774 0 "},"љ":{"ha":1178,"x_min":4,"x_max":1158,"o":"m 880 149 l 774 149 l 774 317 l 880 317 q 919 311 902 317 q 946 293 935 304 q 962 266 957 281 q 967 235 967 251 q 945 173 967 197 q 880 149 923 149 m 879 465 l 774 465 l 774 720 l 251 720 q 232 495 244 589 q 206 339 221 402 q 173 237 191 275 q 135 180 155 199 q 93 154 115 160 q 49 148 72 148 l 4 148 l 4 19 q 24 -3 4 5 q 92 -11 44 -11 q 167 -5 130 -11 q 239 23 204 2 q 303 82 273 43 q 359 184 334 120 q 401 340 383 247 q 428 561 419 432 l 559 561 l 559 0 l 881 0 q 998 17 946 0 q 1085 66 1049 35 q 1140 141 1121 97 q 1158 236 1158 184 q 1143 324 1158 282 q 1094 397 1128 365 q 1008 447 1061 428 q 879 465 955 465 "},"м":{"ha":1009,"x_min":73,"x_max":936,"o":"m 936 721 l 756 721 q 711 712 733 721 q 674 674 690 703 l 552 428 q 526 375 538 403 q 504 318 515 347 q 482 375 494 347 q 456 428 470 403 l 335 674 q 298 711 319 702 q 253 721 276 721 l 73 721 l 73 0 l 267 0 l 267 341 q 264 401 267 368 q 256 465 261 435 l 433 122 q 493 87 452 87 l 516 87 q 576 122 557 87 l 753 464 q 744 401 747 434 q 742 341 742 367 l 742 0 l 936 0 l 936 721 "},"н":{"ha":799,"x_min":73,"x_max":726,"o":"m 726 720 l 510 720 l 510 458 l 288 458 l 288 720 l 73 720 l 73 0 l 288 0 l 288 304 l 510 304 l 510 0 l 726 0 l 726 720 "},"њ":{"ha":1130,"x_min":73,"x_max":1110,"o":"m 831 149 l 726 149 l 726 317 l 831 317 q 870 311 853 317 q 898 293 887 304 q 914 266 908 281 q 919 235 919 251 q 897 173 919 197 q 831 149 874 149 m 831 465 l 726 465 l 726 720 l 510 720 l 510 458 l 288 458 l 288 720 l 73 720 l 73 0 l 288 0 l 288 304 l 510 304 l 510 0 l 832 0 q 949 17 897 0 q 1036 66 1001 35 q 1091 141 1072 97 q 1110 236 1110 184 q 1094 324 1110 282 q 1046 397 1079 365 q 959 447 1013 428 q 831 465 906 465 "},"ѳ":{"ha":807,"x_min":35,"x_max":772,"o":"m 248 299 l 559 299 q 508 181 548 219 q 405 142 468 142 q 299 181 340 142 q 248 299 259 219 m 557 434 l 250 434 q 303 543 263 508 q 405 578 342 578 q 505 543 466 578 q 557 434 544 508 m 405 731 q 255 706 322 731 q 138 632 187 680 q 62 516 89 584 q 35 362 35 447 q 62 207 35 276 q 138 89 89 138 q 255 15 187 41 q 405 -11 322 -11 q 554 15 487 -11 q 670 89 622 41 q 745 207 718 138 q 772 362 772 276 q 745 516 772 447 q 670 632 718 584 q 554 706 622 680 q 405 731 487 731 "},"п":{"ha":799,"x_min":73,"x_max":726,"o":"m 726 0 l 726 720 l 73 720 l 73 0 l 288 0 l 288 566 l 510 566 l 510 0 l 726 0 "},"т":{"ha":722,"x_min":14,"x_max":708,"o":"m 708 566 l 708 720 l 14 720 l 14 566 l 253 566 l 253 0 l 469 0 l 469 566 l 708 566 "},"ѵ":{"ha":778,"x_min":-5,"x_max":761,"o":"m 477 575 l 420 360 q 398 280 408 318 q 379 202 388 241 q 361 281 372 242 q 337 360 351 319 l 234 683 q 213 709 228 699 q 174 720 197 720 l -5 720 l 277 0 l 473 0 l 663 539 q 692 575 672 564 q 739 586 713 586 l 761 586 l 761 701 q 758 710 761 705 q 744 719 754 715 q 717 727 735 724 q 671 731 699 731 q 607 724 636 731 q 553 701 578 718 q 510 653 529 683 q 477 575 491 623 "},"ф":{"ha":1049,"x_min":33,"x_max":1015,"o":"m 618 144 l 618 576 q 693 555 659 572 q 750 512 726 539 q 787 447 774 485 q 800 360 800 408 q 787 274 800 313 q 750 209 774 236 q 693 166 726 182 q 618 144 659 149 m 431 576 l 431 144 q 356 166 390 149 q 298 209 322 182 q 261 274 274 236 q 249 360 249 313 q 261 447 249 408 q 298 512 274 485 q 356 555 322 539 q 431 576 390 572 m 625 730 l 625 1012 l 424 1012 l 424 730 q 267 696 339 724 q 144 620 196 668 q 63 508 92 573 q 33 362 33 442 q 63 215 33 281 q 144 101 92 149 q 267 24 196 53 q 424 -10 339 -4 l 424 -236 l 625 -236 l 625 -10 q 781 24 710 -4 q 905 101 853 53 q 986 215 957 149 q 1015 362 1015 281 q 986 508 1015 442 q 905 620 957 573 q 781 696 853 668 q 625 730 710 724 "},"ц":{"ha":878,"x_min":73,"x_max":858,"o":"m 858 154 l 726 154 l 726 720 l 510 720 l 510 154 l 288 154 l 288 720 l 73 720 l 73 0 l 663 0 l 663 -236 l 798 -236 q 841 -219 824 -236 q 858 -175 858 -203 l 858 154 "},"џ":{"ha":799,"x_min":73,"x_max":726,"o":"m 726 720 l 510 720 l 510 154 l 288 154 l 288 720 l 73 720 l 73 0 l 301 0 l 301 -236 l 437 -236 q 480 -219 463 -236 q 497 -175 497 -203 l 497 0 l 726 0 l 726 720 "},"ч":{"ha":748,"x_min":40,"x_max":675,"o":"m 675 720 l 460 720 l 460 410 q 359 400 399 399 q 296 413 319 400 q 264 450 273 425 q 255 512 255 474 l 255 720 l 40 720 l 40 480 q 70 344 40 396 q 156 268 101 292 q 289 244 212 243 q 460 266 367 244 l 460 0 l 675 0 l 675 720 "},"ш":{"ha":1167,"x_min":73,"x_max":1094,"o":"m 1094 720 l 878 720 l 878 154 l 691 154 l 691 720 l 476 720 l 476 154 l 288 154 l 288 720 l 73 720 l 73 0 l 1094 0 l 1094 720 "},"щ":{"ha":1246,"x_min":73,"x_max":1226,"o":"m 1226 154 l 1094 154 l 1094 720 l 878 720 l 878 154 l 691 154 l 691 720 l 476 720 l 476 154 l 288 154 l 288 720 l 73 720 l 73 0 l 1031 0 l 1031 -236 l 1166 -236 q 1209 -219 1192 -236 q 1226 -175 1226 -203 l 1226 154 "},"ъ":{"ha":836,"x_min":15,"x_max":816,"o":"m 538 149 l 432 149 l 432 317 l 538 317 q 576 311 560 317 q 604 293 593 304 q 620 266 615 281 q 625 235 625 251 q 603 173 625 197 q 538 149 581 149 m 537 465 l 432 465 l 432 720 l 15 720 l 15 564 l 228 564 l 228 0 l 538 0 q 655 17 603 0 q 743 66 707 35 q 797 141 778 97 q 816 236 816 184 q 801 324 816 282 q 752 397 785 365 q 666 447 719 428 q 537 465 613 465 "},"ы":{"ha":1056,"x_min":73,"x_max":983,"o":"m 383 149 l 277 149 l 277 317 l 383 317 q 422 311 405 317 q 449 293 438 304 q 465 266 460 281 q 470 235 470 251 q 448 173 470 197 q 383 149 426 149 m 382 465 l 277 465 l 277 720 l 73 720 l 73 0 l 383 0 q 500 17 449 0 q 588 66 552 35 q 642 141 624 97 q 661 236 661 184 q 646 324 661 282 q 597 397 631 365 q 511 447 564 428 q 382 465 458 465 m 983 720 l 767 720 l 767 0 l 983 0 l 983 720 "},"ь":{"ha":681,"x_min":73,"x_max":661,"o":"m 383 149 l 277 149 l 277 317 l 383 317 q 422 311 405 317 q 449 293 438 304 q 465 266 460 281 q 470 235 470 251 q 448 173 470 197 q 383 149 426 149 m 382 465 l 277 465 l 277 720 l 73 720 l 73 0 l 383 0 q 500 17 449 0 q 588 66 552 35 q 642 141 624 97 q 661 236 661 184 q 646 324 661 282 q 597 397 631 365 q 511 447 564 428 q 382 465 458 465 "},"э":{"ha":683,"x_min":18,"x_max":647,"o":"m 24 625 l 78 556 q 97 537 88 544 q 122 531 106 531 q 151 537 138 531 q 181 552 165 544 q 219 566 198 560 q 274 573 241 573 q 375 538 337 573 q 426 438 413 503 l 155 438 l 155 297 l 428 297 q 375 186 415 224 q 276 147 335 147 q 216 156 239 147 q 178 174 194 164 q 149 193 162 185 q 116 201 135 201 q 77 183 90 201 l 18 113 q 88 50 51 74 q 164 13 125 26 q 241 -6 202 -1 q 317 -11 280 -11 q 443 14 383 -11 q 548 86 503 39 q 620 203 594 134 q 647 362 647 273 q 624 507 647 440 q 555 625 601 575 q 443 703 510 674 q 288 731 376 731 q 139 704 203 731 q 24 625 75 677 "},"є":{"ha":683,"x_min":35,"x_max":665,"o":"m 605 556 l 659 625 q 544 704 608 677 q 395 731 480 731 q 240 703 307 731 q 127 625 173 674 q 59 507 82 575 q 35 362 35 440 q 62 203 35 273 q 134 86 89 134 q 240 14 180 39 q 366 -11 300 -11 q 442 -6 403 -11 q 519 13 481 -1 q 594 50 558 26 q 665 113 631 74 l 606 183 q 567 201 592 201 q 534 193 547 201 q 505 174 521 185 q 466 156 489 164 q 406 147 444 147 q 307 185 347 147 q 254 297 267 224 l 528 297 l 528 438 l 256 438 q 308 538 270 502 q 409 573 346 573 q 463 566 441 573 q 501 552 485 560 q 531 537 518 544 q 560 531 544 531 q 586 537 577 531 q 605 556 595 544 "},"ю":{"ha":1140,"x_min":73,"x_max":1104,"o":"m 747 149 q 645 201 677 149 q 613 360 613 253 q 645 519 613 467 q 747 572 677 572 q 850 519 817 572 q 882 360 882 467 q 850 201 882 253 q 747 149 817 149 m 403 440 l 288 440 l 288 720 l 73 720 l 73 0 l 288 0 l 288 293 l 401 293 q 438 166 410 222 q 510 70 466 109 q 614 10 554 31 q 747 -11 674 -11 q 889 15 824 -11 q 1002 89 954 41 q 1077 207 1050 138 q 1104 362 1104 276 q 1078 516 1104 447 q 1005 632 1052 584 q 893 706 958 680 q 747 731 827 731 q 618 711 677 731 q 516 653 560 691 q 442 562 472 616 q 403 440 413 508 "},"я":{"ha":723,"x_min":-9,"x_max":650,"o":"m 446 405 l 376 405 q 311 430 336 405 q 286 497 286 454 q 290 528 286 512 q 305 557 294 544 q 333 577 315 569 q 376 585 350 585 l 446 585 l 446 405 m 650 720 l 369 720 q 233 702 290 720 q 140 654 176 684 q 86 585 103 624 q 69 505 69 547 q 78 450 69 478 q 108 396 88 422 q 161 350 128 370 q 242 319 194 330 q 188 290 211 308 q 148 240 165 271 l -9 0 l 140 0 q 189 5 168 0 q 224 18 209 9 q 251 40 240 26 q 272 71 262 53 l 350 222 q 363 243 356 233 q 378 261 369 253 q 402 273 388 269 q 438 277 416 277 l 446 277 l 446 0 l 650 0 l 650 720 "},"ђ":{"ha":793,"x_min":-29,"x_max":742,"o":"m 288 590 l 288 739 l 486 739 l 486 895 l 288 895 l 288 1040 l 72 1040 l 72 895 l -29 895 l -29 739 l 72 739 l 72 0 l 288 0 l 288 447 q 348 487 317 472 q 414 502 378 502 q 458 494 438 502 q 494 465 478 485 q 518 411 509 444 q 526 327 526 377 q 520 196 526 258 q 500 74 513 133 q 466 -43 487 15 q 419 -160 446 -101 l 592 -223 q 654 -93 626 -161 q 701 45 682 -26 q 731 187 721 115 q 742 327 742 258 q 678 580 742 494 q 481 665 615 665 q 372 644 417 665 q 288 590 326 624 "},"ѣ":{"ha":798,"x_min":17,"x_max":783,"o":"m 505 149 l 385 149 l 385 317 l 505 317 q 544 311 527 317 q 571 293 560 304 q 587 266 582 281 q 592 235 592 251 q 570 173 592 197 q 505 149 548 149 m 504 465 l 385 465 l 385 563 l 595 563 l 595 719 l 385 719 l 385 897 l 181 897 l 181 719 l 17 719 l 17 563 l 181 563 l 181 0 l 506 0 q 623 17 571 0 q 710 66 674 35 q 765 141 746 97 q 783 236 783 184 q 768 324 783 282 q 719 397 753 365 q 633 447 686 428 q 504 465 580 465 "},"!":{"ha":406,"x_min":79,"x_max":324,"o":"m 304 1012 l 103 1012 l 103 615 q 110 488 103 551 q 131 360 118 425 l 276 360 q 297 488 289 425 q 304 615 304 551 l 304 1012 m 79 109 q 89 62 79 84 q 114 24 98 40 q 153 -1 131 8 q 201 -10 175 -10 q 249 -1 227 -10 q 288 24 272 8 q 314 62 305 40 q 324 109 324 84 q 314 156 324 134 q 288 193 305 177 q 249 218 272 209 q 201 228 227 228 q 153 218 175 228 q 114 193 131 209 q 89 156 98 177 q 79 109 79 134 "},"?":{"ha":655,"x_min":42,"x_max":608,"o":"m 42 919 l 99 832 q 144 806 114 806 q 170 814 157 806 q 201 831 183 822 q 243 848 219 840 q 305 856 268 856 q 380 831 353 856 q 408 765 408 806 q 391 702 408 728 q 351 655 375 676 q 301 616 328 634 q 252 577 274 597 q 217 531 230 556 q 210 472 205 506 l 226 360 l 373 360 l 392 457 q 415 496 397 478 q 457 531 433 513 q 507 569 481 549 q 556 619 534 590 q 593 686 578 647 q 608 777 608 724 q 588 878 608 833 q 531 956 568 924 q 442 1006 494 988 q 324 1023 390 1023 q 238 1015 278 1023 q 163 993 198 1007 q 98 960 128 978 q 42 919 68 941 m 170 109 q 180 62 170 84 q 205 24 189 40 q 244 -1 222 8 q 292 -10 266 -10 q 340 -1 318 -10 q 379 24 363 8 q 405 62 396 40 q 415 109 415 84 q 405 156 415 134 q 379 193 396 177 q 340 218 363 209 q 292 228 318 228 q 244 218 266 228 q 205 193 222 209 q 180 156 189 177 q 170 109 170 134 "},"‽":{"ha":737,"x_min":43,"x_max":693,"o":"m 319 228 q 270 218 292 228 q 232 193 248 209 q 206 156 215 177 q 197 109 197 134 q 206 62 197 84 q 232 24 215 40 q 270 -1 248 8 q 319 -10 292 -10 q 367 -1 344 -10 q 406 24 389 8 q 432 62 422 40 q 441 109 441 84 q 432 156 441 134 q 406 193 422 177 q 367 218 389 209 q 319 228 344 228 m 301 1000 l 329 881 q 343 855 332 863 q 378 847 354 847 q 399 849 384 847 q 426 851 414 851 q 456 845 443 851 q 478 828 469 838 q 492 803 488 817 q 497 775 497 790 q 482 730 497 748 q 445 695 467 712 q 398 660 424 678 q 349 617 372 642 q 338 667 343 644 q 328 704 332 690 l 242 1036 l 43 988 l 178 569 q 217 461 196 517 q 260 358 238 406 l 394 358 l 413 456 q 443 511 419 489 q 498 551 467 533 q 563 589 528 569 q 626 635 597 608 q 674 701 656 662 q 693 799 693 740 q 674 897 693 855 q 621 966 655 938 q 541 1007 588 993 q 438 1020 494 1020 q 363 1015 400 1020 q 301 1000 326 1010 "},",":{"ha":333,"x_min":47,"x_max":285,"o":"m 74 -172 l 112 -205 q 187 -135 154 -174 q 241 -58 219 -97 q 274 21 263 -18 q 285 95 285 60 q 278 145 285 122 q 256 188 271 169 q 217 217 240 206 q 163 228 194 228 q 116 219 137 228 q 79 197 94 211 q 55 164 63 183 q 47 122 47 144 q 54 77 47 98 q 76 41 62 57 q 109 16 90 26 q 152 4 128 6 q 138 -33 147 -15 q 117 -65 128 -50 q 95 -91 106 -79 q 76 -112 84 -103 q 64 -126 69 -118 q 59 -141 59 -134 q 74 -172 59 -159 "},";":{"ha":388,"x_min":69,"x_max":314,"o":"m 103 -172 l 140 -205 q 215 -135 183 -174 q 270 -58 248 -97 q 303 21 292 -18 q 314 95 314 60 q 307 145 314 122 q 284 188 299 169 q 246 217 269 206 q 192 228 223 228 q 144 219 165 228 q 107 197 123 211 q 83 164 92 183 q 75 122 75 144 q 83 77 75 98 q 104 41 90 57 q 138 16 118 26 q 181 4 157 6 q 166 -33 176 -15 q 146 -65 157 -50 q 124 -91 135 -79 q 104 -112 113 -103 q 92 -126 97 -118 q 88 -141 88 -134 q 103 -172 88 -159 m 69 583 q 79 536 69 558 q 105 499 88 515 q 143 474 121 483 q 192 465 165 465 q 240 474 217 465 q 278 499 262 483 q 305 536 295 515 q 314 583 314 558 q 305 630 314 608 q 278 667 295 651 q 240 693 262 683 q 192 702 217 702 q 143 693 165 702 q 105 667 121 683 q 79 630 88 651 q 69 583 69 608 "},":":{"ha":368,"x_min":62,"x_max":306,"o":"m 62 109 q 71 62 62 84 q 97 24 81 40 q 135 -1 113 8 q 184 -10 158 -10 q 232 -1 210 -10 q 271 24 254 8 q 297 62 288 40 q 306 109 306 84 q 297 156 306 134 q 271 193 288 177 q 232 218 254 209 q 184 228 210 228 q 135 218 158 228 q 97 193 113 209 q 71 156 81 177 q 62 109 62 134 m 62 583 q 71 536 62 558 q 97 499 81 515 q 135 474 113 483 q 184 465 158 465 q 232 474 210 465 q 271 499 254 483 q 297 536 288 515 q 306 583 306 558 q 297 630 306 608 q 271 667 288 651 q 232 693 254 683 q 184 702 210 702 q 135 693 158 702 q 97 667 113 683 q 71 630 81 651 q 62 583 62 608 "},".":{"ha":332,"x_min":44,"x_max":288,"o":"m 44 109 q 53 62 44 84 q 79 24 63 40 q 117 -1 95 8 q 166 -10 140 -10 q 214 -1 192 -10 q 253 24 236 8 q 279 62 269 40 q 288 109 288 84 q 279 156 288 134 q 253 193 269 177 q 214 218 236 209 q 166 228 192 228 q 117 218 140 228 q 79 193 95 209 q 53 156 63 177 q 44 109 44 134 "},"…":{"ha":1099,"x_min":44,"x_max":1055,"o":"m 44 109 q 53 62 44 84 q 79 24 63 40 q 117 -1 95 8 q 166 -10 140 -10 q 214 -1 192 -10 q 253 24 236 8 q 279 62 269 40 q 288 109 288 84 q 279 156 288 134 q 253 193 269 177 q 214 218 236 209 q 166 228 192 228 q 117 218 140 228 q 79 193 95 209 q 53 156 63 177 q 44 109 44 134 m 810 109 q 820 62 810 84 q 845 24 829 40 q 884 -1 862 8 q 933 -10 906 -10 q 981 -1 958 -10 q 1019 24 1003 8 q 1045 62 1036 40 q 1055 109 1055 84 q 1045 156 1055 134 q 1019 193 1036 177 q 981 218 1003 209 q 933 228 958 228 q 884 218 906 228 q 845 193 862 209 q 820 156 829 177 q 810 109 810 134 m 427 109 q 436 62 427 84 q 462 24 446 40 q 501 -1 478 8 q 549 -10 523 -10 q 597 -1 575 -10 q 636 24 619 8 q 662 62 653 40 q 672 109 672 84 q 662 156 672 134 q 636 193 653 177 q 597 218 619 209 q 549 228 575 228 q 501 218 523 228 q 462 193 478 209 q 436 156 446 177 q 427 109 427 134 "},"‘":{"ha":315,"x_min":38,"x_max":274,"o":"m 101 634 l 231 682 q 259 707 251 690 q 251 749 266 724 q 217 834 223 792 q 217 910 211 875 q 237 970 224 944 q 263 1009 251 997 q 270 1020 267 1014 q 274 1034 274 1027 q 271 1049 274 1042 q 258 1061 267 1056 l 190 1101 q 95 999 131 1056 q 49 882 60 943 q 51 757 38 820 q 101 634 64 693 "},"’":{"ha":315,"x_min":45,"x_max":282,"o":"m 218 1078 l 89 1031 q 61 1006 68 1023 q 69 964 53 988 q 96 907 88 935 q 106 852 104 878 q 102 803 107 826 q 90 760 98 780 q 74 726 83 741 q 57 703 65 712 q 49 692 52 699 q 45 678 46 685 q 49 664 45 671 q 61 651 52 656 l 129 611 q 224 713 188 657 q 270 831 259 769 q 269 956 282 892 q 218 1078 256 1019 "},"“":{"ha":564,"x_min":38,"x_max":523,"o":"m 101 634 l 231 682 q 259 707 251 690 q 251 749 266 724 q 217 834 223 792 q 217 910 211 875 q 237 970 224 944 q 263 1009 251 997 q 270 1020 267 1014 q 274 1034 274 1027 q 271 1049 274 1042 q 258 1061 267 1056 l 190 1101 q 95 999 131 1056 q 49 882 60 943 q 51 757 38 820 q 101 634 64 693 m 350 634 l 479 682 q 507 707 500 690 q 499 749 515 724 q 466 834 472 792 q 466 910 460 875 q 486 970 472 944 q 511 1009 499 997 q 519 1020 516 1014 q 523 1034 522 1027 q 519 1049 523 1042 q 507 1061 516 1056 l 439 1101 q 344 999 379 1056 q 298 882 309 943 q 299 757 286 820 q 350 634 313 693 "},"”":{"ha":564,"x_min":45,"x_max":531,"o":"m 218 1078 l 89 1031 q 61 1006 68 1023 q 69 964 53 988 q 96 907 88 935 q 106 852 104 878 q 102 803 107 826 q 90 760 98 780 q 74 726 83 741 q 57 703 65 712 q 49 692 52 699 q 45 678 46 685 q 49 664 45 671 q 61 651 52 656 l 129 611 q 224 713 188 657 q 270 831 259 769 q 269 956 282 892 q 218 1078 256 1019 m 467 1078 l 338 1031 q 309 1006 317 1023 q 317 964 302 988 q 344 907 336 935 q 354 852 353 878 q 351 803 356 826 q 339 760 347 780 q 322 726 331 741 q 306 703 313 712 q 298 692 301 699 q 294 678 294 685 q 297 664 294 671 q 310 651 301 656 l 378 611 q 472 713 437 657 q 519 831 508 769 q 517 956 531 892 q 467 1078 504 1019 "},"‚":{"ha":306,"x_min":27,"x_max":264,"o":"m 200 232 l 71 184 q 43 159 50 176 q 51 117 35 142 q 78 60 69 88 q 88 6 86 32 q 84 -43 89 -20 q 72 -86 80 -67 q 56 -120 65 -106 q 39 -143 47 -135 q 31 -155 34 -148 q 27 -168 28 -161 q 31 -183 27 -176 q 43 -195 34 -190 l 111 -235 q 206 -133 170 -190 q 252 -16 241 -77 q 251 109 264 46 q 200 232 238 172 "},"„":{"ha":554,"x_min":27,"x_max":513,"o":"m 200 232 l 71 184 q 43 159 50 176 q 51 117 35 142 q 78 60 69 88 q 88 6 86 32 q 84 -43 89 -20 q 72 -86 80 -67 q 56 -120 65 -106 q 39 -143 47 -135 q 31 -155 34 -148 q 27 -168 28 -161 q 31 -183 27 -176 q 43 -195 34 -190 l 111 -235 q 206 -133 170 -190 q 252 -16 241 -77 q 251 109 264 46 q 200 232 238 172 m 449 232 l 319 184 q 291 159 299 176 q 299 117 284 142 q 326 60 318 88 q 336 6 335 32 q 333 -43 338 -20 q 321 -86 328 -67 q 304 -120 313 -106 q 288 -143 295 -135 q 280 -155 283 -148 q 276 -168 276 -161 q 279 -183 276 -176 q 292 -195 283 -190 l 360 -235 q 454 -133 419 -190 q 501 -16 490 -77 q 499 109 513 46 q 449 232 486 172 "},"‹":{"ha":416,"x_min":56,"x_max":345,"o":"m 331 196 l 248 346 q 223 378 236 367 q 248 410 235 390 l 331 560 q 341 606 345 584 q 309 639 336 627 l 238 671 l 56 392 l 56 365 l 238 85 l 309 117 q 341 150 336 129 q 331 196 345 172 "},"›":{"ha":416,"x_min":71,"x_max":360,"o":"m 360 392 l 178 671 l 107 639 q 75 606 80 627 q 85 560 71 584 l 168 410 q 193 378 181 390 q 168 346 180 367 l 85 196 q 75 150 71 172 q 107 117 80 129 l 178 85 l 360 365 l 360 392 "},"«":{"ha":666,"x_min":56,"x_max":595,"o":"m 331 196 l 248 346 q 223 378 236 367 q 248 410 235 390 l 331 560 q 341 606 345 584 q 309 639 336 627 l 238 671 l 56 392 l 56 365 l 238 85 l 309 117 q 341 150 336 129 q 331 196 345 172 m 581 196 l 498 346 q 473 378 486 367 q 498 410 485 390 l 581 560 q 591 606 595 584 q 559 639 586 627 l 488 671 l 306 392 l 306 365 l 488 85 l 559 117 q 591 150 586 129 q 581 196 595 172 "},"»":{"ha":666,"x_min":71,"x_max":610,"o":"m 360 392 l 178 671 l 107 639 q 75 606 80 627 q 85 560 71 584 l 168 410 q 193 378 181 390 q 168 346 180 367 l 85 196 q 75 150 71 172 q 107 117 80 129 l 178 85 l 360 365 l 360 392 m 610 392 l 428 671 l 357 639 q 325 606 330 627 q 335 560 321 584 l 418 410 q 443 378 431 390 q 418 346 430 367 l 335 196 q 325 150 321 172 q 357 117 330 129 l 428 85 l 610 365 l 610 392 "},"/":{"ha":665,"x_min":35,"x_max":630,"o":"m 240 8 l 630 1040 l 538 1040 q 472 1021 501 1040 q 430 967 444 1002 l 35 -69 l 127 -69 q 161 -64 144 -69 q 193 -49 178 -59 q 220 -25 208 -40 q 240 8 232 -10 "},"|":{"ha":375,"x_min":104,"x_max":271,"o":"m 104 1081 l 104 -236 l 271 -236 l 271 1081 l 104 1081 "},"¦":{"ha":379,"x_min":106,"x_max":273,"o":"m 106 1081 l 106 513 l 273 513 l 273 1081 l 106 1081 m 106 340 l 106 -228 l 273 -228 l 273 340 l 106 340 "},"\\":{"ha":665,"x_min":35,"x_max":630,"o":"m 35 1040 l 426 8 q 445 -25 433 -10 q 473 -49 458 -40 q 505 -64 488 -59 q 538 -69 522 -69 l 630 -69 l 235 967 q 193 1021 222 1002 q 127 1040 165 1040 l 35 1040 "},"-":{"ha":519,"x_min":72,"x_max":447,"o":"m 72 509 l 72 335 l 447 335 l 447 509 l 72 509 "},"–":{"ha":806,"x_min":118,"x_max":688,"o":"m 118 495 l 118 348 l 688 348 l 688 495 l 118 495 "},"—":{"ha":1114,"x_min":77,"x_max":1037,"o":"m 77 495 l 77 348 l 1037 348 l 1037 495 l 77 495 "},"_":{"ha":657,"x_min":55,"x_max":602,"o":"m 602 -75 l 55 -75 l 55 -210 l 602 -210 l 602 -75 "},"•":{"ha":806,"x_min":59,"x_max":747,"o":"m 59 411 q 86 281 59 342 q 160 175 113 220 q 269 103 206 130 q 402 77 331 77 q 536 103 474 77 q 645 175 599 130 q 719 281 692 220 q 747 411 747 342 q 719 542 747 481 q 645 649 692 603 q 536 721 599 694 q 402 747 474 747 q 269 721 331 747 q 160 649 206 694 q 86 542 113 603 q 59 411 59 481 "},"·":{"ha":400,"x_min":44,"x_max":356,"o":"m 44 414 q 56 355 44 383 q 89 307 68 328 q 139 275 110 287 q 199 263 167 263 q 261 275 232 263 q 311 307 290 287 q 344 355 332 328 q 356 414 356 383 q 344 473 356 445 q 311 521 332 501 q 261 553 290 542 q 199 565 232 565 q 139 553 167 565 q 89 521 110 542 q 56 473 68 501 q 44 414 44 445 "},"(":{"ha":390,"x_min":40,"x_max":358,"o":"m 226 435 q 234 573 226 503 q 258 710 242 642 q 295 842 274 778 q 346 965 317 906 q 356 994 355 981 q 354 1017 358 1007 q 343 1033 350 1026 q 326 1046 335 1040 l 231 1101 q 144 942 180 1023 q 85 779 108 862 q 51 610 62 696 q 40 435 40 524 q 51 260 40 346 q 85 91 62 174 q 144 -73 108 8 q 231 -231 180 -153 l 326 -176 q 343 -163 335 -170 q 354 -147 350 -156 q 356 -124 358 -137 q 346 -94 355 -111 q 295 28 317 -36 q 258 160 274 92 q 234 297 242 227 q 226 435 226 366 "},")":{"ha":390,"x_min":33,"x_max":350,"o":"m 164 435 q 156 297 164 366 q 132 160 148 227 q 94 28 117 92 q 44 -94 72 -36 q 34 -124 35 -111 q 36 -147 33 -137 q 48 -163 40 -156 q 64 -176 55 -170 l 160 -231 q 305 91 260 -75 q 350 435 350 256 q 305 778 350 613 q 160 1101 260 944 l 64 1046 q 48 1033 55 1040 q 36 1017 40 1026 q 34 994 33 1007 q 44 965 35 981 q 94 842 72 906 q 132 710 117 778 q 156 573 148 642 q 164 435 164 503 "},"[":{"ha":445,"x_min":104,"x_max":415,"o":"m 283 947 l 360 947 q 400 963 384 947 q 415 999 415 978 l 415 1081 l 104 1081 l 104 -225 l 415 -225 l 415 -142 q 400 -106 415 -122 q 360 -91 384 -91 l 283 -91 l 283 947 "},"]":{"ha":445,"x_min":30,"x_max":341,"o":"m 341 -225 l 341 1081 l 30 1081 l 30 999 q 45 963 30 978 q 85 947 61 947 l 162 947 l 162 -91 l 85 -91 q 45 -106 61 -91 q 30 -142 30 -122 l 30 -225 l 341 -225 "},"{":{"ha":431,"x_min":32,"x_max":397,"o":"m 397 988 l 397 1081 l 361 1081 q 235 1064 288 1081 q 148 1013 182 1046 q 97 934 113 981 q 81 832 81 888 q 84 768 81 800 q 93 705 88 736 q 102 642 98 674 q 106 581 106 611 q 102 543 106 560 q 90 514 98 526 q 67 495 81 502 q 32 488 53 488 l 32 368 q 90 343 74 368 q 106 276 106 317 q 102 214 106 245 q 93 151 98 183 q 84 88 88 120 q 81 24 81 56 q 97 -78 81 -32 q 148 -157 113 -124 q 235 -207 182 -190 q 361 -225 288 -225 l 397 -225 l 397 -132 q 392 -113 397 -121 q 381 -101 388 -106 q 366 -93 374 -96 q 353 -91 358 -91 q 289 -64 309 -91 q 268 11 268 -37 q 271 83 268 49 q 278 149 274 117 q 284 211 281 181 q 288 273 288 242 q 281 323 288 299 q 259 368 274 348 q 224 405 245 389 q 176 428 203 420 q 224 452 203 437 q 259 488 245 467 q 281 533 274 508 q 288 583 288 557 q 284 645 288 615 q 278 707 281 676 q 271 773 274 739 q 268 845 268 807 q 289 920 268 893 q 353 947 309 947 q 366 950 358 947 q 381 957 374 952 q 392 969 388 962 q 397 988 397 977 "},"}":{"ha":431,"x_min":34,"x_max":399,"o":"m 399 368 l 399 488 q 364 495 378 488 q 342 514 350 502 q 330 543 333 526 q 326 581 326 560 q 330 642 326 611 q 338 705 333 674 q 347 768 343 736 q 351 832 351 800 q 334 934 351 888 q 284 1013 318 981 q 197 1064 249 1046 q 70 1081 144 1081 l 34 1081 l 34 988 q 39 969 34 977 q 51 957 44 962 q 65 950 58 952 q 78 947 73 947 q 143 920 122 947 q 163 845 163 893 q 160 773 163 807 q 153 707 157 739 q 147 645 150 676 q 144 583 144 615 q 151 533 144 557 q 172 488 158 508 q 207 452 186 467 q 255 428 228 437 q 207 405 228 420 q 172 368 186 389 q 151 323 158 348 q 144 273 144 299 q 147 211 144 242 q 153 149 150 181 q 160 83 157 117 q 163 11 163 49 q 143 -64 163 -37 q 78 -91 122 -91 q 65 -93 73 -91 q 51 -101 58 -96 q 39 -113 44 -106 q 34 -132 34 -121 l 34 -225 l 70 -225 q 197 -207 144 -225 q 284 -157 249 -190 q 334 -78 318 -124 q 351 24 351 -32 q 347 88 351 56 q 338 151 343 120 q 330 214 333 183 q 326 276 326 245 q 342 343 326 317 q 399 368 358 368 "},"*":{"ha":590,"x_min":57,"x_max":533,"o":"m 432 834 l 533 893 l 483 976 l 382 917 q 358 901 369 909 q 338 883 347 893 q 344 910 342 896 q 346 938 346 924 l 346 1058 l 244 1058 l 244 937 q 253 883 244 908 q 208 917 236 901 l 107 978 l 57 894 l 158 834 q 185 820 172 826 q 212 813 199 815 q 158 790 185 806 l 57 731 l 107 649 l 208 708 q 232 723 221 715 q 252 741 243 731 q 246 715 248 728 q 244 686 244 701 l 244 566 l 346 566 l 346 688 q 338 741 346 716 q 382 708 354 723 l 483 647 l 533 730 l 432 790 q 378 813 406 807 q 405 821 392 815 q 432 834 418 826 "},"†":{"ha":806,"x_min":33,"x_max":772,"o":"m 486 562 l 772 562 l 772 631 q 766 665 772 649 q 748 693 760 681 q 717 713 736 706 q 672 720 698 720 q 630 717 652 720 q 584 708 608 713 q 536 697 560 703 q 487 687 511 692 l 514 1026 q 463 1045 491 1039 q 403 1052 434 1052 q 343 1045 372 1052 q 292 1026 315 1039 l 319 687 q 270 697 294 692 q 222 708 245 703 q 175 717 198 713 q 133 720 153 720 q 88 713 107 720 q 57 693 69 706 q 39 665 45 681 q 33 631 33 649 l 33 562 l 319 562 l 319 351 l 292 -218 q 343 -238 315 -231 q 403 -245 372 -245 q 463 -238 434 -245 q 514 -218 491 -231 l 486 351 l 486 562 "},"‡":{"ha":806,"x_min":33,"x_max":772,"o":"m 486 245 l 486 562 l 772 562 l 772 631 q 766 665 772 649 q 748 693 760 681 q 717 713 736 706 q 672 720 698 720 q 630 717 652 720 q 584 708 608 713 q 536 697 560 703 q 487 687 511 692 l 514 1026 q 463 1045 491 1039 q 403 1052 434 1052 q 343 1045 372 1052 q 292 1026 315 1039 l 319 687 q 270 697 294 692 q 222 708 245 703 q 175 717 198 713 q 133 720 153 720 q 88 713 107 720 q 57 693 69 706 q 39 665 45 681 q 33 631 33 649 l 33 562 l 319 562 l 319 245 l 33 245 l 33 176 q 39 143 33 159 q 57 114 45 126 q 88 94 69 101 q 133 87 107 87 q 175 90 153 87 q 222 99 198 94 q 270 110 245 104 q 319 121 294 116 l 292 -218 q 343 -238 315 -231 q 403 -245 372 -245 q 463 -238 434 -245 q 514 -218 491 -231 l 487 121 q 536 110 511 116 q 584 99 560 104 q 630 90 608 94 q 672 87 652 87 q 717 94 698 87 q 748 114 736 101 q 766 143 760 126 q 772 176 772 159 l 772 245 l 486 245 "},"§":{"ha":710,"x_min":53,"x_max":660,"o":"m 244 503 q 253 538 244 523 q 282 566 262 553 q 352 538 317 551 q 413 510 386 524 q 457 477 440 495 q 473 434 473 459 q 465 399 473 415 q 437 371 456 383 q 366 400 401 386 q 304 428 331 413 q 260 461 277 443 q 244 503 244 478 m 580 853 l 628 928 q 582 966 608 949 q 524 995 556 983 q 455 1015 492 1008 q 380 1022 419 1022 q 255 1003 308 1022 q 166 953 201 985 q 113 881 131 922 q 95 794 95 840 q 114 702 95 740 q 163 637 133 664 q 81 567 108 610 q 53 469 53 523 q 70 388 53 422 q 113 329 86 353 q 173 287 139 304 q 242 256 207 269 q 312 230 278 242 q 372 204 346 218 q 415 173 399 190 q 431 129 431 155 q 406 80 431 97 q 335 64 381 64 q 272 72 297 64 q 229 90 247 81 q 195 108 210 100 q 162 117 181 117 q 129 109 142 117 q 108 87 116 101 l 58 8 q 108 -27 78 -11 q 171 -56 137 -44 q 242 -74 206 -67 q 316 -81 279 -81 q 446 -63 390 -81 q 541 -12 503 -45 q 599 65 580 20 q 619 164 619 110 q 600 245 619 211 q 552 304 582 278 q 635 380 610 333 q 660 481 660 426 q 644 554 660 522 q 602 611 628 586 q 542 654 576 635 q 473 688 508 673 q 404 717 438 703 q 344 743 370 730 q 301 771 317 756 q 285 803 285 785 q 310 851 285 833 q 384 870 334 870 q 435 864 413 870 q 475 850 457 858 q 508 835 492 842 q 538 829 523 829 q 562 834 553 829 q 580 853 572 840 "},"¶":{"ha":1069,"x_min":42,"x_max":1019,"o":"m 1019 838 l 1019 1012 l 363 1012 q 231 990 290 1012 q 130 928 172 968 q 65 834 88 889 q 42 714 42 779 q 65 601 42 654 q 130 508 88 548 q 231 444 172 468 q 363 421 290 421 l 363 -150 l 550 -150 l 550 838 l 686 838 l 686 -150 l 874 -150 l 874 838 l 1019 838 "},"^":{"ha":806,"x_min":47,"x_max":758,"o":"m 758 465 l 469 1012 l 329 1012 l 47 465 l 214 465 q 248 474 235 465 q 268 498 262 483 l 365 731 q 402 826 388 781 q 419 780 410 803 q 442 731 429 757 l 549 498 q 569 474 556 483 q 600 465 581 465 l 758 465 "},"~":{"ha":806,"x_min":58,"x_max":752,"o":"m 509 470 q 467 478 490 470 q 416 496 444 486 q 356 514 388 506 q 287 522 324 522 q 190 505 233 522 q 118 454 147 487 q 73 374 89 421 q 58 267 58 326 l 231 267 q 249 331 231 309 q 301 352 267 352 q 343 344 319 352 q 394 326 366 336 q 454 308 422 316 q 523 300 486 300 q 620 318 577 300 q 692 368 663 335 q 736 449 721 401 q 752 555 752 496 l 578 555 q 560 492 578 513 q 509 470 542 470 "},"'":{"ha":303,"x_min":58,"x_max":245,"o":"m 245 1012 l 58 1012 l 58 813 l 77 703 q 102 646 85 666 q 151 626 119 626 q 203 646 188 626 q 226 703 219 666 l 245 813 l 245 1012 "},"\"":{"ha":581,"x_min":58,"x_max":523,"o":"m 245 1012 l 58 1012 l 58 813 l 77 703 q 102 646 85 666 q 151 626 119 626 q 203 646 188 626 q 226 703 219 666 l 245 813 l 245 1012 m 523 1012 l 335 1012 l 335 813 l 355 703 q 380 646 363 666 q 428 626 397 626 q 481 646 465 626 q 503 703 497 666 l 523 813 l 523 1012 "},"&":{"ha":1019,"x_min":41,"x_max":1023,"o":"m 331 449 l 564 201 q 489 167 529 179 q 402 155 449 155 q 344 166 370 155 q 299 196 318 176 q 270 242 281 215 q 260 303 260 269 q 276 380 260 344 q 331 449 292 417 m 1023 0 l 811 224 q 888 385 860 297 q 915 574 915 473 l 778 574 q 749 563 760 574 q 735 532 738 551 q 720 439 732 484 q 690 352 708 393 l 440 615 q 407 655 420 637 q 387 690 394 673 q 376 723 379 707 q 373 758 373 740 q 379 798 373 778 q 398 832 385 817 q 428 856 410 847 q 470 865 446 865 q 526 846 505 865 q 563 791 547 827 q 617 762 581 753 l 756 790 q 731 876 751 834 q 676 951 711 919 q 589 1003 640 983 q 470 1023 538 1023 q 343 1001 399 1023 q 250 943 288 980 q 193 859 213 907 q 173 756 173 810 q 188 662 173 710 q 235 563 202 613 q 157 512 192 541 q 95 448 122 483 q 55 372 69 413 q 41 285 41 331 q 69 163 41 217 q 142 69 97 108 q 245 10 187 31 q 363 -11 303 -11 q 530 14 451 -11 q 674 85 608 39 l 717 39 q 738 19 728 27 q 759 8 748 12 q 782 2 769 3 q 810 0 794 0 l 1023 0 "},"@":{"ha":1180,"x_min":55,"x_max":1134,"o":"m 699 547 l 649 358 q 632 311 642 330 q 608 281 621 292 q 580 265 594 269 q 549 260 565 260 q 505 280 521 260 q 490 341 490 300 q 504 421 490 383 q 542 488 518 459 q 598 533 566 516 q 665 549 630 549 q 699 547 682 549 m 815 381 l 883 644 q 843 659 863 652 q 803 669 824 665 q 756 676 781 674 q 701 678 731 678 q 583 664 636 678 q 488 625 530 649 q 416 566 447 600 q 365 495 385 533 q 334 416 344 457 q 324 335 324 375 q 336 252 324 290 q 370 186 347 214 q 427 143 393 158 q 506 127 461 127 q 603 147 558 127 q 690 212 649 166 q 714 172 699 188 q 748 145 729 156 q 787 131 766 135 q 830 126 808 126 q 952 155 896 126 q 1048 232 1008 183 q 1111 347 1089 281 q 1134 487 1134 413 q 1115 625 1134 560 q 1060 744 1095 690 q 977 840 1026 798 q 872 912 929 883 q 750 956 815 941 q 619 972 686 972 q 465 951 538 972 q 330 892 392 930 q 217 802 267 854 q 130 688 166 750 q 74 556 94 626 q 55 413 55 486 q 100 172 55 280 q 225 -11 144 65 q 415 -127 305 -87 q 655 -168 524 -168 q 775 -160 719 -168 q 880 -137 831 -152 q 971 -103 929 -123 q 1048 -61 1013 -84 l 1019 14 q 995 38 1011 33 q 956 31 978 43 q 906 8 935 19 q 840 -14 877 -4 q 756 -29 802 -23 q 655 -35 710 -35 q 478 -7 560 -35 q 337 78 397 22 q 244 218 278 134 q 210 413 210 302 q 241 579 210 501 q 325 714 271 656 q 454 806 379 772 q 619 839 529 839 q 768 816 701 839 q 882 749 835 793 q 956 639 930 704 q 981 487 981 573 q 972 394 981 437 q 947 321 963 352 q 909 272 931 290 q 862 254 887 254 q 831 260 844 254 q 811 280 818 266 q 805 319 805 294 q 815 381 806 343 "},"©":{"ha":1135,"x_min":50,"x_max":1085,"o":"m 706 376 q 683 369 692 376 q 661 356 674 363 q 630 343 649 349 q 578 338 610 338 q 527 349 550 338 q 487 381 503 360 q 461 435 470 403 q 451 508 451 467 q 487 634 451 588 q 593 680 523 680 q 642 674 624 680 q 673 660 660 667 q 695 646 685 652 q 719 640 706 640 q 742 647 733 640 q 756 660 750 654 l 813 735 q 719 805 777 777 q 582 833 662 833 q 456 809 515 833 q 355 741 398 785 q 286 639 311 698 q 261 508 261 579 q 283 381 261 440 q 344 278 304 322 q 440 209 383 234 q 567 183 497 183 q 707 210 647 183 q 806 289 768 237 l 735 362 q 722 372 729 368 q 706 376 714 376 m 50 506 q 68 369 50 435 q 120 246 87 303 q 201 142 154 189 q 306 61 249 94 q 430 9 364 27 q 567 -10 495 -10 q 705 9 638 -10 q 828 61 771 27 q 933 142 885 94 q 1014 246 981 189 q 1066 369 1048 303 q 1085 506 1085 435 q 1066 644 1085 578 q 1014 767 1048 710 q 933 872 981 824 q 828 952 885 919 q 705 1005 771 986 q 567 1023 638 1023 q 430 1005 495 1023 q 306 952 364 986 q 201 872 249 919 q 120 767 154 824 q 68 644 87 710 q 50 506 50 578 m 165 506 q 196 672 165 594 q 281 806 227 749 q 409 896 335 863 q 567 928 482 928 q 676 914 624 928 q 773 872 728 899 q 855 806 818 844 q 918 720 892 767 q 958 619 944 674 q 972 506 972 565 q 941 342 972 418 q 855 209 910 265 q 726 120 800 152 q 567 88 652 88 q 409 120 482 88 q 281 209 335 152 q 196 342 227 265 q 165 506 165 418 "},"℗":{"ha":1135,"x_min":50,"x_max":1085,"o":"m 575 512 l 531 512 l 531 685 l 589 685 q 633 678 617 685 q 658 661 649 672 q 668 634 666 649 q 671 601 671 619 q 668 566 671 582 q 656 537 666 549 q 627 518 647 525 q 575 512 608 512 m 589 821 l 344 821 l 344 195 l 531 195 l 531 383 l 589 383 q 709 401 658 383 q 791 450 759 419 q 839 519 824 480 q 854 601 854 558 q 839 685 854 645 q 791 755 824 725 q 709 803 759 785 q 589 821 658 821 m 567 88 q 409 120 482 88 q 281 209 335 152 q 196 342 227 265 q 165 506 165 418 q 196 672 165 594 q 281 806 227 749 q 409 896 335 863 q 567 928 482 928 q 676 914 624 928 q 773 872 728 899 q 855 806 818 844 q 918 720 892 767 q 958 619 944 674 q 972 506 972 565 q 941 342 972 418 q 855 209 910 265 q 726 120 800 152 q 567 88 652 88 m 567 1023 q 430 1005 495 1023 q 306 952 364 986 q 201 872 249 919 q 120 767 154 824 q 68 644 87 710 q 50 506 50 578 q 68 369 50 435 q 120 246 87 303 q 201 142 154 189 q 306 61 249 94 q 430 9 364 27 q 567 -10 495 -10 q 705 9 638 -10 q 828 61 771 27 q 933 142 885 94 q 1014 246 981 189 q 1066 369 1048 303 q 1085 506 1085 435 q 1066 644 1085 578 q 1014 767 1048 710 q 933 872 981 824 q 828 952 885 919 q 705 1005 771 986 q 567 1023 638 1023 "},"®":{"ha":1135,"x_min":50,"x_max":1085,"o":"m 554 533 l 510 533 l 510 685 l 568 685 q 612 680 596 685 q 637 666 628 675 q 648 643 645 656 q 650 611 650 629 q 648 577 650 592 q 635 553 645 563 q 607 538 626 543 q 554 533 588 533 m 860 215 l 774 393 q 748 432 762 415 q 715 459 735 449 q 768 489 746 471 q 805 530 791 507 q 826 579 819 552 q 833 635 833 606 q 818 714 833 679 q 770 772 803 749 q 688 808 738 796 q 568 821 638 821 l 324 821 l 324 195 l 510 195 l 510 405 l 532 405 q 557 400 549 405 q 574 383 566 394 l 638 222 q 690 195 652 195 l 841 195 q 717 116 787 144 q 567 88 647 88 q 409 120 482 88 q 281 209 335 152 q 196 342 227 265 q 165 506 165 418 q 196 672 165 594 q 281 806 227 749 q 409 896 335 863 q 567 928 482 928 q 676 914 624 928 q 773 872 728 899 q 855 806 818 844 q 918 720 892 767 q 958 619 944 674 q 972 506 972 565 q 942 345 972 419 q 860 215 913 271 m 567 1023 q 430 1005 495 1023 q 306 952 364 986 q 201 872 249 919 q 120 767 154 824 q 68 644 87 710 q 50 506 50 578 q 68 369 50 435 q 120 246 87 303 q 201 142 154 189 q 306 61 249 94 q 430 9 364 27 q 567 -10 495 -10 q 705 9 638 -10 q 828 61 771 27 q 933 142 885 94 q 1014 246 981 189 q 1066 369 1048 303 q 1085 506 1085 435 q 1066 644 1085 578 q 1014 767 1048 710 q 933 872 981 824 q 828 952 885 919 q 705 1005 771 986 q 567 1023 638 1023 "},"™":{"ha":1058,"x_min":53,"x_max":974,"o":"m 53 1012 l 53 894 l 156 894 l 156 586 l 303 586 l 303 894 l 407 894 l 407 1012 l 53 1012 m 974 1012 l 846 1012 q 819 1008 828 1012 q 799 990 810 1004 l 729 840 q 706 781 715 812 q 694 810 700 796 q 682 840 689 825 l 617 990 q 607 1001 611 997 q 597 1008 602 1006 q 585 1011 592 1010 q 569 1012 578 1012 l 442 1012 l 442 586 l 571 586 l 571 761 l 563 836 l 646 653 q 696 622 661 622 l 717 622 q 767 653 751 622 l 854 840 l 844 761 l 844 586 l 974 586 l 974 1012 "},"℠":{"ha":1066,"x_min":61,"x_max":982,"o":"m 357 912 l 383 976 q 320 1010 359 997 q 238 1024 281 1024 q 169 1012 199 1024 q 118 981 139 1001 q 86 937 97 962 q 76 887 76 913 q 89 820 76 845 q 123 780 103 794 q 167 757 143 765 q 210 745 190 750 q 244 733 231 740 q 258 713 258 726 q 251 694 258 701 q 226 687 244 687 q 193 692 207 687 q 169 702 180 697 q 148 713 158 708 q 126 717 138 717 q 109 713 117 717 q 97 701 101 708 l 61 636 q 94 613 75 624 q 135 594 114 602 q 179 582 157 587 q 222 578 201 578 q 292 590 261 578 q 343 622 322 601 q 375 670 364 642 q 386 729 386 697 q 373 791 386 767 q 339 830 359 815 q 295 853 319 845 q 251 867 272 862 q 218 878 231 872 q 204 892 204 883 q 215 911 204 906 q 239 916 226 916 q 267 913 255 916 q 290 905 280 909 q 309 897 301 900 q 326 893 318 893 q 344 897 337 893 q 357 912 351 901 m 982 1012 l 854 1012 q 827 1008 836 1012 q 807 990 819 1004 l 738 840 q 714 781 724 812 q 703 810 708 796 q 690 840 697 825 l 625 990 q 615 1001 619 997 q 605 1008 610 1006 q 593 1011 600 1010 q 578 1012 587 1012 l 450 1012 l 450 586 l 579 586 l 579 761 l 571 836 l 654 653 q 704 622 669 622 l 725 622 q 775 653 760 622 l 863 840 l 853 761 l 853 586 l 982 586 l 982 1012 "},"°":{"ha":578,"x_min":35,"x_max":542,"o":"m 35 777 q 55 682 35 727 q 108 604 74 638 q 189 551 142 571 q 288 531 235 531 q 388 551 342 531 q 469 604 435 571 q 523 682 503 638 q 542 777 542 727 q 523 874 542 828 q 469 952 503 919 q 388 1005 435 985 q 288 1024 342 1024 q 189 1005 235 1024 q 108 952 142 985 q 55 874 74 919 q 35 777 35 828 m 184 776 q 192 820 184 799 q 213 855 199 840 q 246 879 227 870 q 288 888 265 888 q 330 879 311 888 q 363 855 349 870 q 385 820 377 840 q 392 776 392 799 q 385 733 392 753 q 363 698 377 713 q 330 675 349 683 q 288 667 311 667 q 246 675 265 667 q 213 698 227 683 q 192 733 199 713 q 184 776 184 753 "},"¤":{"ha":806,"x_min":63,"x_max":743,"o":"m 403 358 q 361 366 381 358 q 328 390 342 375 q 306 426 314 406 q 297 468 297 446 q 306 512 297 492 q 328 547 314 532 q 361 571 342 563 q 403 580 381 580 q 444 571 425 580 q 478 547 464 563 q 501 512 493 532 q 510 468 510 492 q 501 426 510 446 q 478 390 493 406 q 444 366 464 375 q 403 358 425 358 m 635 135 l 743 238 l 636 344 q 659 403 651 372 q 667 468 667 434 q 658 536 667 503 q 633 597 649 568 l 739 701 l 632 806 l 526 701 q 467 723 498 715 q 403 731 436 731 q 335 722 367 731 q 275 699 303 714 l 171 801 l 63 699 l 170 593 q 147 533 155 565 q 139 468 139 502 q 148 400 139 433 q 172 339 156 368 l 67 235 l 174 131 l 281 235 q 339 213 308 221 q 403 206 369 206 q 470 214 438 206 q 531 238 501 222 l 635 135 "},"€":{"ha":806,"x_min":20,"x_max":787,"o":"m 20 660 l 20 545 l 89 545 q 88 526 88 535 q 88 506 88 516 l 88 482 l 20 482 l 20 367 l 99 367 q 143 213 112 283 q 222 94 174 144 q 336 18 270 45 q 484 -10 401 -10 q 661 31 583 -10 q 787 150 739 72 l 692 234 q 678 244 685 242 q 662 247 672 247 q 641 241 650 247 q 624 227 633 235 q 605 208 615 219 q 581 190 595 198 q 545 175 566 181 q 495 169 524 169 q 385 218 430 169 q 322 367 340 267 l 520 367 q 544 372 533 367 q 563 384 555 376 q 574 400 570 391 q 578 418 578 409 l 578 482 l 310 482 l 310 506 q 310 526 310 516 q 311 545 310 535 l 587 545 q 611 550 600 545 q 629 561 622 554 q 641 578 637 569 q 645 596 645 587 l 645 660 l 326 660 q 393 796 347 750 q 505 842 440 842 q 567 832 544 842 q 606 809 590 822 q 632 785 621 796 q 660 775 644 775 q 687 782 677 775 q 705 799 697 790 l 781 878 q 666 982 738 943 q 495 1022 594 1022 q 358 996 422 1022 q 244 923 294 970 q 157 809 193 876 q 103 660 121 742 l 20 660 "},"$":{"ha":806,"x_min":27,"x_max":769,"o":"m 450 167 l 472 395 q 539 356 514 379 q 565 292 565 333 q 450 167 565 185 m 385 843 l 365 633 q 297 675 323 650 q 270 742 270 701 q 276 776 270 760 q 296 806 283 792 q 332 828 310 819 q 385 843 353 838 m 492 591 l 516 838 q 557 823 538 831 q 592 808 576 815 q 623 795 609 801 q 648 790 638 790 q 677 798 665 790 q 701 824 689 806 l 753 901 q 662 967 716 936 q 533 1013 608 999 l 547 1149 l 467 1149 q 427 1133 443 1149 q 410 1098 412 1117 l 403 1021 q 260 990 322 1017 q 155 922 197 963 q 90 828 112 880 q 67 721 67 776 q 92 597 67 647 q 156 516 117 548 q 245 465 196 484 q 345 433 295 447 l 319 171 q 264 192 288 179 q 218 217 239 205 q 181 238 198 229 q 147 247 163 247 q 116 239 131 247 q 94 219 102 231 l 27 122 q 150 43 77 76 q 302 -3 222 10 l 288 -147 l 367 -147 q 407 -131 392 -147 q 424 -96 423 -115 l 433 -10 q 576 25 513 -3 q 681 98 638 53 q 747 200 724 142 q 769 324 769 258 q 758 403 769 369 q 727 463 747 437 q 680 509 707 490 q 623 543 653 528 q 558 570 592 558 q 492 591 525 581 "},"¢":{"ha":806,"x_min":69,"x_max":742,"o":"m 413 569 l 371 164 q 304 237 327 188 q 281 360 281 286 q 313 501 281 447 q 413 569 344 556 m 742 111 l 683 185 q 666 198 676 193 q 644 203 656 203 q 615 196 628 203 q 586 180 601 189 q 550 161 570 170 q 501 147 531 151 l 542 563 q 572 551 558 557 q 596 540 585 545 q 617 531 607 535 q 637 528 626 528 q 663 534 653 528 q 680 552 672 540 l 735 625 q 655 684 698 660 q 558 719 611 708 l 574 877 l 495 877 q 456 861 471 877 q 438 826 440 845 l 428 729 q 274 695 341 725 q 161 616 207 665 q 92 501 115 567 q 69 360 69 435 q 91 221 69 283 q 151 112 113 158 q 242 36 190 65 q 354 -5 294 6 l 340 -147 l 419 -147 q 458 -131 443 -147 q 476 -96 474 -115 l 485 -8 q 553 2 519 -6 q 620 24 588 10 q 684 59 653 38 q 742 111 715 81 "},"£":{"ha":806,"x_min":19,"x_max":785,"o":"m 19 476 l 19 409 l 148 409 l 148 244 q 138 199 148 218 q 113 165 128 179 q 75 142 97 151 q 31 129 54 133 l 31 0 l 694 0 q 732 8 715 0 q 760 29 749 16 q 779 58 772 42 q 785 89 785 74 l 785 177 l 437 177 q 374 173 405 177 q 311 163 342 169 q 353 225 338 192 q 369 301 369 259 l 369 409 l 573 409 q 597 414 586 409 q 616 426 608 418 q 628 443 624 433 q 633 463 633 452 l 633 544 l 369 544 l 369 695 q 396 808 369 769 q 480 847 424 847 q 532 834 510 847 q 580 794 553 821 q 630 768 603 769 q 687 781 658 766 l 773 835 q 726 909 753 875 q 663 969 699 944 q 582 1009 627 994 q 480 1023 536 1023 q 333 996 395 1023 q 230 924 271 969 q 168 820 188 879 q 148 694 148 760 l 148 544 l 90 544 q 36 524 54 544 q 19 476 19 503 "},"¥":{"ha":806,"x_min":-12,"x_max":817,"o":"m 546 444 l 817 1012 l 637 1012 q 588 996 608 1012 q 560 961 569 981 l 447 666 q 422 599 431 630 q 405 537 412 567 q 386 598 397 567 q 360 666 376 629 l 245 961 q 217 998 235 985 q 167 1012 198 1012 l -12 1012 l 260 444 l 87 444 l 87 329 l 295 329 l 295 268 l 87 268 l 87 153 l 295 153 l 295 0 l 510 0 l 510 153 l 719 153 l 719 268 l 510 268 l 510 329 l 719 329 l 719 444 l 546 444 "},"℅":{"ha":1214,"x_min":19,"x_max":1201,"o":"m 847 980 l 84 0 l 245 0 q 283 9 267 0 q 309 31 299 17 l 1072 1012 l 915 1012 q 872 1002 888 1012 q 847 980 857 992 m 385 658 q 358 649 370 658 q 327 631 342 635 q 289 628 311 628 q 250 636 268 628 q 217 662 231 645 q 194 703 203 678 q 186 760 186 728 q 213 858 186 825 q 283 892 239 892 q 320 887 306 892 q 342 877 333 883 q 359 866 351 871 q 379 862 367 862 q 399 867 392 862 q 411 879 406 872 l 467 953 q 392 1006 440 985 q 283 1026 344 1026 q 176 1007 225 1026 q 93 951 128 987 q 39 867 58 916 q 19 760 19 818 q 36 656 19 704 q 86 572 53 608 q 168 515 119 535 q 278 494 216 494 q 391 515 342 494 q 472 581 440 536 l 406 650 q 385 658 397 658 m 1201 256 q 1181 358 1201 310 q 1124 443 1161 407 q 1035 501 1087 480 q 919 522 983 522 q 803 501 856 522 q 714 444 751 480 q 657 359 677 408 q 637 256 637 310 q 657 153 637 201 q 714 68 677 105 q 803 11 751 32 q 919 -10 856 -10 q 1035 11 983 -10 q 1124 68 1087 32 q 1181 153 1161 105 q 1201 256 1201 201 m 1035 256 q 1006 159 1035 194 q 919 124 976 124 q 832 159 861 124 q 803 256 803 194 q 832 352 803 317 q 919 388 861 388 q 1006 352 976 388 q 1035 256 1035 317 "},"№":{"ha":1658,"x_min":120,"x_max":1608,"o":"m 797 1012 l 797 476 q 798 425 797 452 q 803 368 799 397 l 322 976 q 304 994 312 988 q 288 1005 297 1001 q 269 1010 280 1009 q 244 1012 259 1012 l 120 1012 l 120 0 l 327 0 l 327 542 q 326 590 327 565 q 322 642 325 615 l 799 39 q 836 9 817 17 q 881 0 854 0 l 1003 0 l 1003 1012 l 797 1012 m 1355 888 q 1419 862 1397 888 q 1441 789 1441 835 q 1419 716 1441 742 q 1355 690 1397 690 q 1290 716 1312 690 q 1269 789 1269 742 q 1290 862 1269 835 q 1355 888 1312 888 m 1356 549 q 1459 568 1413 549 q 1539 620 1506 588 q 1590 695 1572 652 q 1608 787 1608 738 q 1590 878 1608 835 q 1539 954 1572 922 q 1459 1005 1506 986 q 1356 1024 1413 1024 q 1253 1006 1299 1024 q 1173 955 1206 987 q 1122 879 1140 922 q 1104 787 1104 835 q 1122 695 1104 738 q 1173 620 1140 652 q 1253 568 1206 588 q 1356 549 1299 549 m 1109 497 l 1109 349 l 1599 349 l 1599 497 l 1109 497 "},"#":{"ha":806,"x_min":7,"x_max":801,"o":"m 469 589 l 441 425 l 326 425 l 354 589 l 469 589 m 801 739 l 666 739 l 702 941 q 701 969 705 956 q 687 991 697 982 q 664 1006 678 1001 q 634 1012 651 1012 l 538 1012 l 490 739 l 374 739 l 423 1012 l 324 1012 q 266 993 291 1012 q 234 942 240 975 l 198 739 l 151 739 q 84 724 105 739 q 56 676 63 708 l 40 589 l 178 589 l 149 425 l 26 425 l 15 358 q 21 293 7 313 q 67 274 35 274 l 128 274 l 80 0 l 176 0 q 208 4 192 0 q 236 17 224 8 q 259 41 249 26 q 272 75 268 55 l 306 274 l 420 274 l 387 85 q 387 53 383 68 q 399 26 390 38 q 420 7 408 14 q 448 0 433 0 l 548 0 l 597 274 l 734 274 l 745 341 q 739 406 753 387 q 692 425 725 425 l 617 425 l 646 589 l 690 589 q 757 604 735 589 q 784 651 778 619 l 801 739 "},"₀":{"ha":464,"x_min":28,"x_max":435,"o":"m 435 103 q 419 222 435 172 q 376 305 403 272 q 310 353 348 338 q 230 369 273 369 q 150 353 187 369 q 86 305 113 338 q 44 222 59 272 q 28 103 28 172 q 44 -15 28 35 q 86 -98 59 -65 q 150 -147 113 -131 q 230 -162 187 -162 q 310 -147 273 -162 q 376 -98 348 -131 q 419 -15 403 -65 q 435 103 435 35 m 281 103 q 277 25 281 54 q 266 -19 273 -3 q 250 -39 259 -35 q 230 -44 240 -44 q 211 -39 220 -44 q 197 -19 203 -35 q 186 25 190 -3 q 183 103 183 54 q 185 182 183 153 q 194 226 188 211 q 209 246 200 242 q 230 251 218 251 q 252 246 242 251 q 268 226 262 242 q 278 182 274 211 q 281 103 281 153 "},"₁":{"ha":464,"x_min":40,"x_max":408,"o":"m 408 -62 l 337 -62 l 337 364 l 208 364 l 40 226 l 87 163 q 97 154 90 158 q 113 147 104 149 q 133 147 122 145 q 153 156 143 149 l 188 182 l 184 144 l 184 -62 l 94 -62 l 94 -157 l 408 -157 l 408 -62 "},"₂":{"ha":464,"x_min":31,"x_max":427,"o":"m 376 -22 l 328 -22 q 288 -26 310 -22 q 243 -37 266 -30 l 313 34 q 351 75 333 55 q 384 117 370 95 q 407 162 399 138 q 416 214 416 185 q 405 273 416 245 q 371 323 394 301 q 315 357 349 344 q 237 369 281 369 q 161 360 196 369 q 99 330 126 350 q 55 280 72 310 q 31 207 38 249 l 117 194 q 143 192 133 191 q 162 196 154 192 q 176 206 170 200 q 188 222 183 213 q 205 244 197 237 q 228 251 214 251 q 253 238 247 251 q 260 208 260 225 q 255 180 260 195 q 241 148 250 164 q 220 115 232 131 q 194 85 208 99 l 56 -50 q 37 -79 42 -63 q 31 -109 31 -95 l 31 -157 l 427 -157 l 427 -69 q 414 -35 427 -48 q 376 -22 400 -22 "},"₃":{"ha":464,"x_min":29,"x_max":421,"o":"m 42 207 l 121 194 q 147 191 136 191 q 164 195 157 192 q 177 206 172 199 q 189 223 183 213 q 204 242 195 235 q 229 248 213 248 q 258 236 251 248 q 265 206 265 224 q 263 183 265 193 q 250 167 260 174 q 224 158 241 161 q 179 154 207 154 l 179 57 q 222 55 205 57 q 249 48 239 53 q 263 32 259 42 q 267 4 267 22 q 255 -28 267 -16 q 222 -40 243 -40 q 197 -33 210 -40 q 174 -8 183 -26 q 144 13 165 8 q 96 8 122 17 l 29 -19 q 64 -90 44 -62 q 109 -134 84 -118 q 164 -157 134 -151 q 231 -162 194 -162 q 299 -153 265 -162 q 360 -122 333 -143 q 404 -69 387 -101 q 421 10 421 -36 q 401 74 421 49 q 342 111 381 98 q 397 159 381 129 q 413 233 413 190 q 401 281 413 257 q 368 325 390 306 q 314 357 347 345 q 238 369 281 369 q 167 360 200 369 q 108 330 134 350 q 65 280 83 310 q 42 207 48 249 "},"₄":{"ha":464,"x_min":5,"x_max":437,"o":"m 253 48 l 144 48 l 259 208 q 255 163 256 185 q 253 124 253 142 l 253 48 m 437 48 l 381 48 l 381 364 l 233 364 l 5 41 l 17 -23 q 32 -45 21 -36 q 63 -53 43 -53 l 253 -53 l 253 -157 l 381 -157 l 381 -53 l 409 -53 q 429 -45 422 -53 q 437 -26 437 -37 l 437 48 "},"₅":{"ha":464,"x_min":35,"x_max":417,"o":"m 208 183 l 216 233 l 307 233 q 375 253 355 233 q 394 302 394 272 l 394 364 l 111 364 l 64 78 l 156 54 q 184 64 169 60 q 216 68 200 68 q 250 56 236 68 q 264 15 264 44 q 260 -12 264 -1 q 249 -28 256 -22 q 233 -37 242 -35 q 217 -40 225 -40 q 184 -35 197 -40 q 161 -22 171 -29 q 141 -10 151 -15 q 118 -4 131 -4 q 98 -9 108 -4 q 81 -24 88 -14 l 35 -85 q 109 -140 66 -117 q 207 -162 153 -162 q 293 -148 254 -162 q 359 -107 332 -133 q 402 -46 387 -81 q 417 32 417 -10 q 406 94 417 65 q 373 143 394 122 q 320 175 351 163 q 249 186 290 186 q 228 185 239 186 q 208 183 218 185 "},"₆":{"ha":464,"x_min":33,"x_max":431,"o":"m 238 -51 q 199 -35 213 -51 q 185 8 185 -19 q 199 54 185 39 q 238 69 213 69 q 277 53 265 69 q 290 7 290 37 q 286 -16 290 -6 q 274 -34 281 -26 q 257 -46 267 -42 q 238 -51 247 -51 m 285 224 l 408 364 l 274 364 q 226 354 247 364 q 194 331 205 344 l 90 190 q 48 115 63 153 q 33 31 33 76 q 47 -46 33 -10 q 85 -107 60 -81 q 148 -148 111 -133 q 233 -162 185 -162 q 314 -147 278 -162 q 377 -106 351 -132 q 417 -46 403 -80 q 431 26 431 -12 q 416 97 431 68 q 380 144 402 126 q 333 169 358 162 q 286 177 308 177 q 243 170 263 177 q 206 152 223 164 q 248 190 226 173 q 285 224 269 206 "},"₇":{"ha":464,"x_min":49,"x_max":425,"o":"m 425 364 l 49 364 l 49 261 q 59 239 49 249 q 82 229 69 229 l 272 229 q 249 200 259 215 q 228 165 238 184 l 67 -157 l 185 -157 q 215 -153 203 -157 q 234 -142 226 -149 q 246 -126 242 -135 q 254 -110 251 -118 l 414 238 q 422 259 418 248 q 425 284 425 271 l 425 364 "},"₈":{"ha":464,"x_min":38,"x_max":426,"o":"m 232 -51 q 211 -47 219 -51 q 199 -35 203 -42 q 193 -18 194 -28 q 192 1 192 -9 q 193 24 192 15 q 198 41 194 34 q 210 51 202 47 q 232 54 218 54 q 255 51 247 54 q 267 41 263 47 q 272 24 271 34 q 272 1 272 15 q 271 -18 272 -9 q 265 -35 269 -28 q 253 -47 261 -42 q 232 -51 245 -51 m 232 261 q 262 248 253 261 q 271 221 271 234 q 261 179 271 190 q 232 167 252 167 q 204 179 212 167 q 196 221 196 190 q 197 234 196 227 q 203 248 199 242 q 214 257 207 253 q 232 261 221 261 m 350 115 q 410 223 410 147 q 396 281 410 254 q 359 328 383 308 q 302 358 335 347 q 232 369 270 369 q 162 358 194 369 q 105 328 129 347 q 68 281 81 308 q 54 223 54 254 q 114 115 54 147 q 54 66 70 97 q 38 -1 38 35 q 52 -67 38 -37 q 92 -118 66 -97 q 153 -151 117 -140 q 232 -162 189 -162 q 311 -151 276 -162 q 373 -118 347 -140 q 413 -67 399 -97 q 426 -1 426 -37 q 423 34 426 17 q 410 66 419 51 q 387 93 401 81 q 350 115 372 106 "},"₉":{"ha":464,"x_min":39,"x_max":421,"o":"m 185 206 q 197 244 185 231 q 233 258 208 258 q 268 245 254 258 q 282 208 282 232 q 269 165 282 176 q 235 153 256 153 q 197 165 208 153 q 185 206 185 177 m 188 1 l 53 -157 l 190 -157 q 237 -147 217 -157 q 268 -124 258 -137 l 349 -7 q 379 40 366 17 q 402 88 392 63 q 416 140 411 113 q 421 198 421 167 q 408 269 421 238 q 372 323 396 301 q 312 357 347 345 q 231 369 276 369 q 151 354 186 369 q 90 315 115 339 q 52 260 65 290 q 39 199 39 229 q 53 134 39 162 q 89 88 67 106 q 137 59 111 69 q 188 50 163 50 q 216 52 202 50 q 242 58 229 53 q 215 29 228 42 q 188 1 201 16 "},"₊":{"ha":464,"x_min":53,"x_max":411,"o":"m 411 39 l 411 147 l 292 147 l 292 275 l 171 275 l 171 147 l 53 147 l 53 39 l 171 39 l 171 -90 l 292 -90 l 292 39 l 411 39 "},"₋":{"ha":464,"x_min":64,"x_max":400,"o":"m 64 147 l 64 39 l 400 39 l 400 147 l 64 147 "},"₌":{"ha":464,"x_min":64,"x_max":400,"o":"m 64 76 l 64 -31 l 400 -31 l 400 76 l 64 76 m 64 215 l 64 108 l 400 108 l 400 215 l 64 215 "},"₍":{"ha":232,"x_min":23,"x_max":208,"o":"m 152 90 q 156 157 152 123 q 165 223 159 190 q 180 288 172 256 q 199 347 189 319 q 207 368 206 359 q 205 383 208 376 q 198 393 203 389 q 187 402 192 398 l 120 441 q 47 274 70 363 q 23 90 23 185 q 47 -94 23 -6 q 120 -260 70 -182 l 187 -220 q 198 -212 192 -217 q 205 -201 203 -208 q 207 -186 208 -194 q 199 -166 206 -178 q 180 -107 189 -138 q 165 -42 172 -76 q 156 25 159 -9 q 152 90 152 58 "},"₎":{"ha":232,"x_min":20,"x_max":209,"o":"m 80 90 q 67 -42 80 26 q 33 -166 55 -110 q 27 -201 20 -189 q 47 -220 34 -213 l 113 -260 q 186 -94 163 -182 q 209 90 209 -6 q 186 274 209 185 q 113 441 163 363 l 47 402 q 35 393 40 398 q 27 383 30 389 q 25 368 24 376 q 33 347 26 359 q 52 288 44 319 q 67 223 61 256 q 77 157 74 190 q 80 90 80 123 "},"⁄":{"ha":194,"x_min":-299,"x_max":492,"o":"m -102 59 l 492 1012 l 401 1012 q 337 994 363 1012 q 290 944 310 976 l -299 0 l -208 0 q -176 3 -191 0 q -149 12 -162 6 q -125 30 -136 19 q -102 59 -113 42 "},"⅔":{"ha":1051,"x_min":52,"x_max":1002,"o":"m 358 59 l 952 1012 l 860 1012 q 797 994 823 1012 q 749 944 770 976 l 160 0 l 252 0 q 283 3 269 0 q 311 12 298 6 q 335 30 324 19 q 358 59 347 42 m 397 626 l 349 626 q 309 623 331 626 q 264 612 287 619 l 334 683 q 372 724 353 703 q 405 765 391 744 q 428 810 419 787 q 437 863 437 834 q 426 922 437 894 q 392 972 415 950 q 336 1006 369 993 q 258 1018 302 1018 q 182 1008 217 1018 q 120 979 147 999 q 76 928 93 959 q 52 856 58 898 l 138 842 q 164 840 153 840 q 183 845 175 841 q 197 855 191 849 q 209 870 203 861 q 226 892 217 885 q 249 899 235 899 q 274 886 267 899 q 281 857 281 874 q 276 828 281 844 q 262 796 271 813 q 241 764 253 780 q 215 733 228 747 l 77 599 q 58 569 63 585 q 52 540 52 553 l 52 492 l 448 492 l 448 579 q 434 614 448 601 q 397 626 421 626 m 623 364 l 702 351 q 728 348 717 348 q 745 352 738 349 q 759 363 753 356 q 770 380 765 369 q 785 399 776 392 q 810 405 794 405 q 840 393 833 405 q 847 363 847 381 q 844 340 847 350 q 832 324 841 331 q 805 315 822 318 q 760 311 788 311 l 760 214 q 803 212 786 214 q 830 205 820 210 q 844 189 840 199 q 848 161 848 178 q 836 129 848 141 q 803 117 824 117 q 778 124 791 117 q 755 149 765 131 q 725 169 747 165 q 677 165 703 174 l 610 138 q 645 67 626 94 q 690 23 665 39 q 745 0 715 6 q 812 -6 776 -6 q 880 4 846 -6 q 941 35 914 14 q 985 88 968 56 q 1002 167 1002 121 q 982 231 1002 206 q 924 268 963 255 q 978 316 962 286 q 994 390 994 347 q 983 438 994 414 q 950 482 972 463 q 895 514 928 502 q 819 526 862 526 q 748 517 781 526 q 690 487 715 507 q 647 437 664 467 q 623 364 629 406 "},"⅖":{"ha":1022,"x_min":50,"x_max":971,"o":"m 356 59 l 950 1012 l 858 1012 q 794 994 821 1012 q 747 944 768 976 l 158 0 l 250 0 q 281 3 267 0 q 309 12 296 6 q 333 30 322 19 q 356 59 344 42 m 394 626 l 347 626 q 307 623 329 626 q 262 612 285 619 l 332 683 q 370 724 351 703 q 403 765 389 744 q 426 810 417 787 q 435 863 435 834 q 424 922 435 894 q 390 972 413 950 q 334 1006 367 993 q 256 1018 300 1018 q 180 1008 215 1018 q 118 979 144 999 q 74 928 91 959 q 50 856 56 898 l 136 842 q 162 840 151 840 q 181 845 173 841 q 195 855 189 849 q 207 870 201 861 q 224 892 215 885 q 247 899 233 899 q 272 886 265 899 q 279 857 279 874 q 274 828 279 844 q 260 796 269 813 q 239 764 251 780 q 213 733 226 747 l 75 599 q 56 569 61 585 q 50 540 50 553 l 50 492 l 446 492 l 446 579 q 432 614 446 601 q 394 626 419 626 m 762 340 l 770 390 l 861 390 q 929 410 909 390 q 949 459 949 429 l 949 521 l 665 521 l 618 235 l 710 211 q 739 221 723 217 q 770 225 754 225 q 804 213 790 225 q 818 172 818 201 q 814 145 818 156 q 803 128 810 135 q 788 119 796 122 q 771 117 779 117 q 738 122 751 117 q 715 135 725 128 q 695 147 705 142 q 672 153 685 153 q 652 148 662 153 q 635 133 642 143 l 589 72 q 664 17 620 40 q 761 -6 707 -6 q 847 9 808 -6 q 914 50 886 24 q 956 111 941 76 q 971 189 971 147 q 960 251 971 222 q 927 300 949 279 q 875 332 906 320 q 803 343 844 343 q 783 342 793 343 q 762 340 772 342 "},"+":{"ha":806,"x_min":59,"x_max":747,"o":"m 747 390 l 747 544 l 490 544 l 490 819 l 315 819 l 315 544 l 59 544 l 59 390 l 315 390 l 315 113 l 490 113 l 490 390 l 747 390 "},"−":{"ha":806,"x_min":87,"x_max":719,"o":"m 87 544 l 87 390 l 719 390 l 719 544 l 87 544 "},"×":{"ha":806,"x_min":63,"x_max":744,"o":"m 631 129 l 744 238 l 515 467 l 731 682 l 617 791 l 403 578 l 189 792 l 76 683 l 293 467 l 63 237 l 176 128 l 404 356 l 631 129 "},"÷":{"ha":806,"x_min":59,"x_max":747,"o":"m 59 544 l 59 390 l 747 390 l 747 544 l 59 544 m 280 714 q 289 667 280 689 q 315 629 299 645 q 353 604 331 613 q 402 595 376 595 q 450 604 428 595 q 489 629 472 613 q 515 667 506 645 q 524 714 524 689 q 515 760 524 739 q 489 798 506 782 q 450 823 472 814 q 402 833 428 833 q 353 823 376 833 q 315 798 331 814 q 289 760 299 782 q 280 714 280 739 m 280 219 q 289 173 280 194 q 315 135 299 151 q 353 110 331 119 q 402 101 376 101 q 450 110 428 101 q 489 135 472 119 q 515 173 506 151 q 524 219 524 194 q 515 266 524 244 q 489 303 506 288 q 450 329 472 319 q 402 338 428 338 q 353 329 376 338 q 315 303 331 319 q 289 266 299 288 q 280 219 280 244 "},"=":{"ha":806,"x_min":87,"x_max":719,"o":"m 87 416 l 87 262 l 719 262 l 719 416 l 87 416 m 87 671 l 87 516 l 719 516 l 719 671 l 87 671 "},"≠":{"ha":806,"x_min":87,"x_max":719,"o":"m 515 516 l 719 516 l 719 671 l 596 671 l 670 813 l 517 813 l 443 671 l 87 671 l 87 516 l 362 516 l 309 416 l 87 416 l 87 262 l 228 262 l 147 107 l 299 107 l 381 262 l 719 262 l 719 416 l 462 416 l 515 516 "},"≈":{"ha":806,"x_min":96,"x_max":707,"o":"m 551 643 q 489 653 522 643 q 420 676 456 663 q 348 698 385 688 q 274 708 310 708 q 222 704 247 708 q 173 691 197 700 q 130 667 150 681 q 96 631 110 652 l 125 503 q 142 517 129 509 q 173 533 154 526 q 213 546 191 541 q 260 551 235 551 q 322 541 289 551 q 391 519 356 531 q 464 496 426 506 q 538 486 501 486 q 585 490 561 486 q 632 502 610 494 q 673 524 653 510 q 707 556 692 537 l 683 688 q 667 676 679 684 q 636 661 654 669 q 597 649 619 654 q 551 643 575 643 m 551 386 q 489 396 522 386 q 420 418 456 406 q 348 441 385 431 q 274 451 310 451 q 222 447 247 451 q 173 433 197 442 q 130 409 150 424 q 96 374 110 394 l 125 247 q 142 260 129 252 q 173 276 154 268 q 213 289 191 283 q 260 294 235 294 q 322 284 289 294 q 391 261 356 274 q 464 239 426 249 q 538 229 501 229 q 585 233 561 229 q 632 245 610 237 q 673 266 653 253 q 707 298 692 279 l 683 431 q 667 419 679 426 q 636 404 654 411 q 597 391 619 397 q 551 386 575 386 "},"<":{"ha":806,"x_min":99,"x_max":661,"o":"m 429 497 l 626 603 q 653 626 645 613 q 661 656 661 640 l 661 805 l 99 510 l 99 426 l 661 133 l 661 282 q 653 311 661 298 q 626 334 645 325 l 429 441 q 349 469 394 458 q 429 497 394 479 "},">":{"ha":806,"x_min":144,"x_max":707,"o":"m 707 510 l 144 805 l 144 656 q 152 626 144 640 q 179 603 160 613 l 376 497 q 457 469 412 479 q 376 441 412 458 l 179 334 q 152 311 160 325 q 144 282 144 298 l 144 133 l 707 426 l 707 510 "},"±":{"ha":806,"x_min":59,"x_max":747,"o":"m 59 210 l 59 56 l 747 56 l 747 210 l 59 210 m 747 650 l 490 650 l 490 883 l 315 883 l 315 650 l 59 650 l 59 495 l 315 495 l 315 274 l 490 274 l 490 495 l 747 495 l 747 650 "},"≤":{"ha":806,"x_min":113,"x_max":675,"o":"m 113 210 l 113 56 l 675 56 l 675 210 l 113 210 m 443 594 l 631 675 q 666 700 658 685 q 675 731 675 715 l 675 874 l 113 610 l 113 526 l 675 259 l 675 402 q 666 433 675 418 q 630 458 657 447 l 443 542 q 400 557 423 551 q 353 569 378 563 q 443 594 402 579 "},"≥":{"ha":806,"x_min":131,"x_max":693,"o":"m 131 210 l 131 56 l 693 56 l 693 210 l 131 210 m 693 610 l 131 874 l 131 731 q 139 700 131 715 q 175 675 148 685 l 363 594 q 453 569 403 579 q 405 557 428 563 q 363 542 383 551 l 176 458 q 140 433 149 447 q 131 402 131 418 l 131 259 l 693 526 l 693 610 "},"¬":{"ha":806,"x_min":82,"x_max":714,"o":"m 714 196 l 714 544 l 82 544 l 82 390 l 532 390 l 532 196 l 714 196 "},"℮":{"ha":1129,"x_min":56,"x_max":1083,"o":"m 792 658 l 792 626 l 370 626 l 370 656 q 386 753 370 709 q 430 827 401 797 q 497 875 458 858 q 584 892 537 892 q 674 876 635 892 q 739 830 713 860 q 779 756 765 799 q 792 658 792 713 m 370 381 l 370 497 l 1083 497 q 1065 629 1080 564 q 1023 752 1051 694 q 954 859 995 810 q 858 944 913 908 q 731 1000 802 980 q 574 1020 660 1020 q 431 1002 499 1020 q 306 950 363 983 q 202 868 248 916 q 123 763 156 821 q 74 638 91 705 q 56 498 56 571 q 93 288 56 383 q 199 126 130 194 q 365 21 267 58 q 583 -16 462 -16 q 739 -2 669 -16 q 863 40 808 13 q 960 107 918 67 q 1034 197 1001 147 l 919 276 q 858 205 890 234 q 789 157 825 176 q 713 131 753 139 q 631 122 674 122 q 522 142 570 122 q 440 196 474 161 q 388 278 406 231 q 370 381 370 325 "},"ℓ":{"ha":842,"x_min":36,"x_max":821,"o":"m 583 869 q 624 850 610 869 q 639 801 639 832 q 619 731 639 766 q 562 664 599 697 q 474 601 525 631 q 362 545 423 571 q 401 672 376 613 q 456 774 426 731 q 519 843 486 818 q 583 869 552 869 m 36 450 l 63 313 q 102 322 83 318 q 142 332 122 326 q 164 173 145 238 q 213 68 182 108 q 286 10 244 28 q 378 -8 328 -8 q 498 11 441 -8 q 602 65 555 30 q 685 148 649 99 q 743 255 722 196 l 565 296 q 541 249 556 273 q 508 207 526 226 q 468 175 490 188 q 425 163 447 163 q 392 173 407 163 q 368 208 378 183 q 352 278 358 234 q 346 392 346 323 q 540 472 452 428 q 690 569 627 517 q 786 682 752 622 q 821 811 821 742 q 808 895 821 856 q 769 963 795 934 q 705 1008 743 992 q 615 1024 666 1024 q 497 1003 553 1024 q 392 943 440 981 q 303 853 343 905 q 232 740 263 801 q 180 611 201 679 q 149 475 159 544 q 93 461 122 467 q 36 450 65 456 "},"∞":{"ha":1010,"x_min":50,"x_max":960,"o":"m 710 317 q 677 324 692 317 q 648 344 662 331 q 622 374 634 356 q 597 411 609 391 q 622 449 609 431 q 648 478 634 466 q 677 498 662 491 q 710 506 692 506 q 741 501 726 506 q 767 485 756 496 q 785 456 778 474 q 792 411 792 438 q 785 367 792 385 q 767 338 778 349 q 741 322 756 326 q 710 317 726 317 m 300 317 q 269 322 284 317 q 243 338 255 326 q 225 367 232 349 q 218 411 218 385 q 225 456 218 438 q 243 485 232 474 q 269 501 255 496 q 300 506 284 506 q 333 498 318 506 q 363 478 349 491 q 389 449 376 466 q 414 411 401 431 q 389 374 401 391 q 363 344 376 356 q 333 324 349 331 q 300 317 318 317 m 719 673 q 650 664 681 673 q 593 639 619 655 q 545 602 567 624 q 505 557 524 581 q 465 602 487 581 q 418 639 444 624 q 360 664 392 655 q 291 673 328 673 q 199 653 242 673 q 122 599 155 634 q 69 516 89 565 q 50 411 50 468 q 69 306 50 353 q 122 223 89 258 q 199 168 155 188 q 291 149 242 149 q 360 158 328 149 q 418 183 392 167 q 465 219 444 199 q 505 265 487 240 q 545 219 524 240 q 593 183 567 199 q 650 158 619 167 q 719 149 681 149 q 811 168 767 149 q 888 223 855 188 q 940 306 921 258 q 960 411 960 353 q 940 516 960 468 q 888 599 921 565 q 811 653 855 634 q 719 673 767 673 "},"∂":{"ha":819,"x_min":37,"x_max":780,"o":"m 369 150 q 288 188 317 150 q 259 297 259 226 q 269 385 259 344 q 299 454 278 425 q 350 499 319 483 q 426 515 382 515 q 479 505 456 515 q 517 480 501 496 q 543 442 533 464 q 560 397 553 421 q 527 280 547 327 q 482 203 507 232 q 427 162 456 174 q 369 150 399 150 m 191 926 l 238 846 q 262 819 251 826 q 285 813 274 813 q 315 819 298 813 q 351 835 331 826 q 393 850 371 843 q 438 857 415 857 q 498 843 470 857 q 545 801 525 829 q 576 730 565 773 q 587 629 587 687 l 587 604 q 511 657 556 638 q 403 676 467 676 q 260 647 327 676 q 143 566 193 617 q 65 445 94 515 q 37 294 37 376 q 60 167 37 224 q 124 72 83 111 q 222 10 165 32 q 344 -11 278 -11 q 536 34 454 -11 q 672 163 618 79 q 753 365 726 246 q 780 631 780 483 q 756 794 780 722 q 691 917 733 866 q 592 994 649 967 q 469 1021 535 1021 q 384 1014 422 1021 q 313 995 346 1008 q 250 966 280 983 q 191 926 220 948 "},"∫":{"ha":690,"x_min":-3,"x_max":695,"o":"m 288 854 l 199 44 q 189 -11 196 12 q 167 -48 182 -33 q 126 -69 151 -62 q 62 -76 101 -76 q 35 -79 45 -76 q 19 -87 25 -82 q 11 -101 13 -93 q 8 -119 8 -109 l -3 -207 q 56 -227 25 -222 q 113 -233 87 -233 q 222 -217 172 -233 q 308 -165 271 -200 q 370 -76 346 -130 q 404 50 394 -23 l 492 860 q 503 914 496 892 q 525 951 510 937 q 565 973 540 966 q 630 980 590 980 q 657 983 647 980 q 673 992 667 986 q 681 1005 678 997 q 684 1024 683 1013 l 695 1111 q 636 1131 667 1125 q 578 1137 605 1137 q 470 1120 519 1137 q 383 1068 421 1103 q 321 980 346 1033 q 288 854 297 927 "},"√":{"ha":857,"x_min":14,"x_max":864,"o":"m 864 1181 l 721 1181 q 685 1170 700 1181 q 664 1144 669 1160 l 425 360 q 410 303 417 331 q 399 249 404 276 q 388 318 395 284 q 369 386 381 353 l 329 547 q 308 573 324 563 q 269 584 292 584 l 14 584 l 14 517 q 20 478 14 494 q 38 452 27 463 q 64 438 49 442 q 94 433 78 433 l 145 433 l 303 0 l 485 0 l 864 1181 "},"∏":{"ha":997,"x_min":49,"x_max":949,"o":"m 949 838 l 949 1012 l 49 1012 l 49 838 l 153 838 l 153 -228 l 375 -228 l 375 838 l 622 838 l 622 -228 l 844 -228 l 844 838 l 949 838 "},"∑":{"ha":949,"x_min":48,"x_max":892,"o":"m 892 838 l 892 1012 l 48 1012 l 48 940 q 53 908 48 925 q 70 878 58 892 l 462 394 l 70 -95 q 53 -125 58 -109 q 48 -157 48 -142 l 48 -228 l 892 -228 l 892 -55 l 377 -55 l 699 361 l 699 422 l 377 838 l 892 838 "},"◊":{"ha":806,"x_min":42,"x_max":764,"o":"m 558 510 l 451 272 q 422 203 434 237 q 403 135 410 170 q 384 204 395 170 q 356 272 372 238 l 251 510 l 361 759 q 386 819 376 789 q 403 881 396 849 q 421 818 410 849 q 447 757 431 788 l 558 510 m 764 510 l 478 1068 l 328 1068 l 42 510 l 328 -49 l 478 -49 l 764 510 "},"←":{"ha":1389,"x_min":59,"x_max":1319,"o":"m 59 452 l 476 37 l 551 111 q 570 154 574 132 q 545 196 566 176 l 451 301 q 406 341 427 323 q 365 374 385 359 q 483 363 422 367 q 606 358 544 358 l 1319 358 l 1319 544 l 606 544 q 484 540 544 544 q 367 529 424 536 q 407 562 387 544 q 451 603 428 581 l 545 707 q 569 749 565 726 q 551 792 574 771 l 476 866 l 59 452 "},"→":{"ha":1389,"x_min":69,"x_max":1330,"o":"m 1330 451 l 913 866 l 838 792 q 819 749 815 771 q 844 707 823 726 l 938 602 q 982 562 961 580 q 1023 529 1003 544 q 906 540 967 536 q 783 544 844 544 l 69 544 l 69 358 l 783 358 q 905 363 844 358 q 1022 374 966 367 q 938 300 983 343 l 844 196 q 819 155 824 176 q 838 111 815 133 l 913 37 l 1330 451 "},"↑":{"ha":1042,"x_min":104,"x_max":938,"o":"m 938 686 l 522 1101 l 104 686 l 182 613 q 227 596 204 592 q 270 619 250 599 l 365 724 q 406 767 387 747 q 440 805 424 787 q 428 693 432 751 q 424 576 424 635 l 424 -157 l 618 -157 l 618 576 q 614 692 618 634 q 602 804 610 750 q 678 724 633 768 l 772 619 q 815 596 792 600 q 860 614 838 592 l 938 686 "},"↓":{"ha":1042,"x_min":103,"x_max":937,"o":"m 937 169 l 859 242 q 814 259 837 263 q 771 235 791 256 l 676 131 q 635 88 654 108 q 601 50 617 68 q 613 163 609 104 q 617 279 617 221 l 617 1012 l 423 1012 l 423 279 q 427 163 423 221 q 439 51 431 105 q 405 89 423 69 q 363 131 386 108 l 269 235 q 226 259 249 255 q 181 242 203 263 l 103 169 l 519 -246 l 937 169 "},"↗":{"ha":1042,"x_min":19,"x_max":979,"o":"m 979 944 l 390 945 l 391 841 q 410 798 391 811 q 458 785 428 785 l 591 785 q 704 792 655 786 q 613 720 659 758 q 524 640 567 681 l 19 122 l 156 -10 l 661 508 q 743 593 703 549 q 818 681 783 638 q 814 630 815 657 q 813 572 813 603 l 813 424 q 826 378 813 397 q 870 360 839 360 l 979 358 l 979 944 "},"↖":{"ha":1042,"x_min":63,"x_max":1023,"o":"m 1023 122 l 518 640 q 429 720 475 681 q 338 792 383 758 q 451 785 387 786 l 584 785 q 632 798 613 785 q 651 841 651 811 l 652 945 l 63 944 l 63 358 l 172 360 q 216 378 203 360 q 229 424 229 397 l 229 572 q 228 630 229 603 q 224 681 226 657 q 298 593 258 638 q 381 508 338 549 l 885 -10 l 1023 122 "},"↘":{"ha":1042,"x_min":19,"x_max":979,"o":"m 979 587 l 870 585 q 826 567 839 585 q 813 522 813 549 l 813 373 q 814 315 813 342 q 818 265 815 289 q 743 352 783 308 q 661 438 703 396 l 156 956 l 19 824 l 524 306 q 613 225 567 264 q 704 153 659 187 q 591 160 655 159 l 458 160 q 410 147 428 160 q 391 104 391 134 l 390 0 l 979 1 l 979 587 "},"↙":{"ha":1042,"x_min":63,"x_max":1023,"o":"m 63 0 l 652 -1 l 651 103 q 632 147 651 133 q 584 159 613 160 l 451 159 q 338 153 387 158 q 429 225 383 186 q 518 305 475 263 l 1023 823 l 885 955 l 381 437 q 298 351 338 395 q 224 264 258 307 q 228 314 226 288 q 229 372 229 341 l 229 521 q 216 566 229 548 q 172 585 203 585 l 63 586 l 63 0 "},"↔":{"ha":1389,"x_min":59,"x_max":1330,"o":"m 1330 451 l 913 866 l 838 792 q 819 749 815 771 q 844 707 823 726 l 938 602 q 982 562 961 580 q 1023 529 1003 544 q 906 540 967 536 q 783 544 844 544 l 386 544 q 451 603 416 569 l 545 707 q 569 749 565 726 q 551 792 574 771 l 476 866 l 59 452 l 476 37 l 551 111 q 570 154 574 132 q 545 196 566 176 l 451 301 q 417 332 433 317 q 385 358 401 346 l 783 358 q 905 363 844 358 q 1022 374 966 367 q 938 300 983 343 l 844 196 q 819 155 824 176 q 838 111 815 133 l 913 37 l 1330 451 "},"↕":{"ha":1042,"x_min":104,"x_max":938,"o":"m 520 -246 l 938 169 l 860 242 q 815 259 838 263 q 772 235 792 256 l 677 131 q 645 98 660 114 q 618 69 631 83 l 618 576 q 614 692 618 634 q 602 803 609 750 q 636 766 617 785 q 678 724 655 746 l 772 619 q 815 596 792 600 q 860 614 838 592 l 938 686 l 522 1101 l 104 686 l 182 613 q 227 596 204 592 q 270 619 250 599 l 365 724 q 405 767 387 747 q 440 805 424 787 q 428 692 432 751 q 424 576 424 634 l 424 69 q 364 131 398 98 l 270 235 q 227 259 250 255 q 182 242 204 263 l 104 169 l 520 -246 "},"Ơ":{"ha":1213,"x_min":40,"x_max":1197,"o":"m 566 183 q 445 205 498 183 q 355 269 392 227 q 299 370 319 310 q 280 506 280 431 q 299 641 280 581 q 355 743 319 701 q 445 807 392 785 q 566 829 498 829 q 686 807 633 829 q 775 743 739 785 q 831 641 812 701 q 851 506 851 581 q 831 370 851 431 q 775 269 812 310 q 686 205 739 227 q 566 183 633 183 m 1188 1115 l 1076 1115 q 991 1095 1018 1115 q 965 1033 965 1074 q 969 1002 965 1015 q 978 978 973 989 q 987 957 983 967 q 991 935 991 947 q 979 902 991 917 q 943 878 967 887 q 778 984 874 946 q 566 1023 683 1023 q 351 983 448 1023 q 184 874 253 944 q 77 710 115 805 q 40 506 40 616 q 77 302 40 397 q 184 138 115 208 q 351 28 253 68 q 566 -11 448 -11 q 781 28 684 -11 q 947 138 878 68 q 1053 302 1015 208 q 1091 506 1091 397 q 1072 654 1091 584 q 1017 783 1053 724 q 1098 824 1064 799 q 1154 882 1132 849 q 1187 954 1176 915 q 1197 1034 1197 992 q 1194 1079 1197 1057 q 1188 1115 1192 1101 "},"Ư":{"ha":1245,"x_min":85,"x_max":1267,"o":"m 1257 1115 l 1146 1115 q 1061 1095 1088 1115 q 1034 1033 1034 1074 q 1038 1002 1034 1015 q 1047 978 1042 989 q 1056 957 1052 967 q 1060 935 1060 947 q 1035 889 1060 909 q 955 868 1010 869 l 955 1012 l 720 1012 l 720 413 q 707 317 720 359 q 667 246 693 275 q 605 201 642 217 q 520 185 567 185 q 436 201 473 185 q 373 246 399 217 q 334 318 347 276 q 320 413 320 360 l 320 1012 l 85 1012 l 85 413 q 115 242 85 319 q 201 108 145 164 q 338 20 258 51 q 520 -11 419 -11 q 701 20 621 -11 q 838 108 782 51 q 925 242 894 164 q 955 413 955 319 l 955 764 q 1097 787 1038 765 q 1193 846 1156 809 q 1249 931 1231 883 q 1267 1034 1267 980 q 1264 1079 1267 1057 q 1257 1115 1261 1101 "},"ơ":{"ha":886,"x_min":35,"x_max":922,"o":"m 405 149 q 293 201 328 149 q 258 360 258 253 q 293 519 258 467 q 405 572 328 572 q 514 519 479 572 q 549 360 549 467 q 514 201 549 253 q 405 149 479 149 m 913 831 l 810 831 q 731 812 756 831 q 706 756 706 792 q 711 726 706 738 q 722 703 716 713 q 732 684 727 693 q 737 665 737 675 q 726 632 737 647 q 693 606 715 616 q 571 699 644 667 q 405 731 498 731 q 255 706 322 731 q 138 632 187 680 q 62 516 89 584 q 35 362 35 447 q 62 207 35 276 q 138 89 89 138 q 255 15 187 41 q 405 -11 322 -11 q 554 15 487 -11 q 670 89 622 41 q 745 207 718 138 q 772 362 772 276 q 765 444 772 406 q 744 518 758 483 q 825 555 791 531 q 880 609 858 578 q 911 677 901 640 q 922 753 922 714 q 919 797 922 776 q 913 831 916 817 "},"ư":{"ha":940,"x_min":66,"x_max":980,"o":"m 971 831 l 868 831 q 789 812 814 831 q 765 756 765 792 q 769 726 765 738 q 780 703 774 713 q 790 684 785 693 q 795 665 795 675 q 777 623 795 642 q 719 597 758 603 l 719 720 l 503 720 l 503 207 q 443 166 474 181 q 377 151 413 151 q 306 181 330 151 q 281 263 281 210 l 281 720 l 66 720 l 66 263 q 82 153 66 203 q 129 67 98 103 q 206 9 160 30 q 310 -11 251 -11 q 375 -5 345 -11 q 430 14 404 2 q 477 41 455 25 q 520 78 499 58 l 533 36 q 585 0 545 0 l 719 0 l 719 506 q 839 531 790 510 q 920 586 889 552 q 966 663 951 619 q 980 753 980 706 q 977 797 980 776 q 971 831 974 817 "},"₫":{"ha":877,"x_min":45,"x_max":819,"o":"m 55 -53 l 55 -181 l 801 -181 l 801 -53 l 55 -53 m 517 497 l 517 222 q 461 172 490 189 q 392 154 433 154 q 339 164 363 154 q 300 197 316 174 q 276 254 284 219 q 267 340 267 290 q 278 435 267 396 q 307 499 288 474 q 351 535 325 524 q 407 546 376 546 q 465 535 436 546 q 517 497 493 524 m 819 907 l 733 907 l 733 1040 l 517 1040 l 517 907 l 356 907 l 356 779 l 517 779 l 517 645 q 448 688 486 672 q 356 704 410 704 q 229 677 286 704 q 131 600 172 649 q 68 483 90 551 q 45 334 45 415 q 65 193 45 257 q 121 84 85 130 q 207 14 157 39 q 319 -11 258 -11 q 381 -4 352 -11 q 436 17 410 3 q 486 49 463 31 q 530 91 509 68 l 547 36 q 599 0 559 0 l 733 0 l 733 779 l 819 779 l 819 907 "},"○":{"ha":920,"x_min":79,"x_max":840,"o":"m 79 450 q 109 302 79 372 q 191 181 139 233 q 312 99 242 129 q 460 69 381 69 q 608 99 538 69 q 729 181 677 129 q 810 302 781 233 q 840 450 840 372 q 810 598 840 528 q 729 719 781 667 q 608 801 677 771 q 460 831 538 831 q 312 801 381 831 q 191 719 242 771 q 109 598 139 667 q 79 450 79 528 m 269 450 q 284 528 269 492 q 325 592 299 565 q 386 634 351 619 q 460 650 420 650 q 534 634 499 650 q 595 592 569 619 q 636 528 621 565 q 651 450 651 492 q 636 373 651 409 q 595 310 621 337 q 534 268 569 283 q 460 252 499 252 q 386 268 420 252 q 325 310 351 283 q 284 373 299 337 q 269 450 269 409 "},"◌":{"ha":920,"x_min":70,"x_max":851,"o":"m 403 783 q 420 744 403 760 q 460 728 437 728 q 501 744 484 728 q 517 783 517 760 q 513 805 517 794 q 501 822 508 815 q 483 834 493 829 q 460 838 472 838 q 438 834 449 838 q 420 822 428 829 q 408 805 413 815 q 403 783 403 794 m 530 758 q 534 736 530 747 q 547 719 539 726 q 565 707 554 712 q 587 703 575 703 q 609 707 599 703 q 627 719 619 712 q 639 736 635 726 q 644 758 644 747 q 627 797 644 781 q 587 813 610 813 q 547 797 563 813 q 530 758 530 781 m 638 687 q 643 666 638 676 q 655 648 647 656 q 673 636 663 641 q 695 632 683 632 q 717 636 707 632 q 735 648 728 641 q 748 666 743 656 q 752 687 752 676 q 735 726 752 710 q 695 742 719 742 q 655 726 672 742 q 638 687 638 710 m 708 578 q 713 557 708 567 q 725 540 717 547 q 743 528 733 533 q 765 524 753 524 q 788 528 777 524 q 806 540 798 533 q 818 557 813 547 q 822 578 822 567 q 806 618 822 601 q 765 634 789 634 q 725 618 742 634 q 708 578 708 601 m 738 449 q 742 428 738 438 q 754 411 747 418 q 772 399 762 403 q 794 394 783 394 q 817 399 806 394 q 835 411 827 403 q 847 428 842 418 q 851 449 851 438 q 835 489 851 472 q 794 505 818 505 q 754 489 771 505 q 738 449 738 472 m 274 758 q 279 736 274 747 q 291 719 283 726 q 309 707 299 712 q 331 703 319 703 q 353 707 343 703 q 372 719 364 712 q 384 736 379 726 q 388 758 388 747 q 372 797 388 781 q 331 813 355 813 q 291 797 308 813 q 274 758 274 781 m 166 687 q 170 666 166 676 q 183 648 175 656 q 201 636 190 641 q 223 632 211 632 q 245 636 235 632 q 263 648 256 641 q 275 666 271 656 q 280 687 280 676 q 263 726 280 710 q 223 742 247 742 q 183 726 199 742 q 166 687 166 710 m 95 578 q 100 557 95 567 q 112 540 104 547 q 130 528 119 533 q 152 524 140 524 q 174 528 164 524 q 192 540 185 533 q 205 557 200 547 q 209 578 209 567 q 192 618 209 601 q 152 634 176 634 q 112 618 128 634 q 95 578 95 601 m 70 449 q 75 428 70 438 q 87 411 79 418 q 105 399 94 403 q 127 394 115 394 q 149 399 139 394 q 167 411 160 403 q 180 428 175 418 q 184 449 184 438 q 167 489 184 472 q 127 505 151 505 q 87 489 103 505 q 70 449 70 472 m 708 323 q 713 302 708 312 q 725 284 717 292 q 743 273 733 277 q 765 268 753 268 q 788 273 777 268 q 806 284 798 277 q 818 302 813 292 q 822 323 822 312 q 806 362 822 346 q 765 378 789 378 q 725 362 742 378 q 708 323 708 346 m 95 323 q 100 302 95 312 q 112 284 104 292 q 130 273 119 277 q 152 268 140 268 q 174 273 164 268 q 192 284 185 277 q 205 302 200 292 q 209 323 209 312 q 192 362 209 346 q 152 378 176 378 q 112 362 128 378 q 95 323 95 346 m 638 215 q 643 193 638 203 q 655 176 647 183 q 673 164 663 169 q 695 160 683 160 q 717 164 707 160 q 735 176 728 169 q 748 193 743 183 q 752 215 752 203 q 735 254 752 238 q 695 270 719 270 q 655 254 672 270 q 638 215 638 238 m 166 215 q 170 193 166 203 q 183 176 175 183 q 201 164 190 169 q 223 160 211 160 q 245 164 235 160 q 263 176 256 169 q 275 193 271 183 q 280 215 280 203 q 263 254 280 238 q 223 270 247 270 q 183 254 199 270 q 166 215 166 238 m 530 144 q 534 123 530 133 q 547 106 539 113 q 565 94 554 99 q 587 90 575 90 q 609 94 599 90 q 627 106 619 99 q 639 123 635 113 q 644 144 644 133 q 627 184 644 167 q 587 200 610 200 q 547 184 563 200 q 530 144 530 167 m 274 144 q 279 123 274 133 q 291 106 283 113 q 309 94 299 99 q 331 90 319 90 q 353 94 343 90 q 372 106 364 99 q 384 123 379 113 q 388 144 388 133 q 372 184 388 167 q 331 200 355 200 q 291 184 308 200 q 274 144 274 167 m 403 115 q 408 94 403 104 q 420 77 413 84 q 438 65 428 69 q 460 60 449 60 q 483 65 472 60 q 501 77 493 69 q 513 94 508 84 q 517 115 517 104 q 501 155 517 138 q 460 171 484 171 q 420 155 437 171 q 403 115 403 138 "},"͏":{"ha":0,"x_min":0,"x_max":0,"o":""},"᷂":{"ha":0,"x_min":-118,"x_max":139,"o":"m -118 -61 q -107 -80 -118 -70 q -80 -97 -96 -89 q -47 -111 -65 -106 q -17 -119 -30 -117 q -2 -118 -8 -119 q 7 -115 3 -117 q 16 -110 11 -112 q 29 -108 21 -108 q 41 -114 41 -108 q 25 -122 41 -118 q -11 -133 8 -125 q -47 -153 -31 -140 q -63 -190 -63 -167 q -55 -217 -63 -206 q -35 -234 -47 -227 q -9 -244 -23 -240 q 17 -250 5 -248 q 37 -253 29 -252 q 45 -256 45 -254 q 33 -260 45 -259 q 6 -266 20 -262 q -22 -280 -9 -271 q -34 -308 -34 -290 q -15 -342 -34 -329 q 40 -359 5 -354 q 43 -356 42 -359 q 44 -351 44 -353 q 42 -346 44 -346 q 25 -340 29 -343 q 20 -331 20 -336 q 34 -317 20 -322 q 65 -307 48 -312 q 96 -290 82 -301 q 110 -255 110 -278 q 97 -220 110 -232 q 68 -204 83 -209 q 39 -197 52 -199 q 26 -193 26 -196 q 34 -189 26 -191 q 55 -184 42 -187 q 82 -176 67 -181 q 110 -163 97 -171 q 131 -144 122 -156 q 139 -117 139 -133 q 120 -78 139 -93 q 76 -54 101 -62 q 52 -43 63 -49 q 32 -33 42 -37 q 13 -25 22 -28 q -8 -22 3 -22 q -40 -26 -21 -22 q -76 -37 -58 -31 q -106 -50 -93 -43 q -118 -61 -118 -56 "},"Ɓ":{"ha":1174,"x_min":15,"x_max":1125,"o":"m 742 177 l 576 177 l 576 429 l 740 429 q 814 421 785 429 q 861 397 843 413 q 886 360 878 382 q 893 310 893 338 q 887 262 893 285 q 864 219 881 238 q 818 189 847 201 q 742 177 788 177 m 576 836 l 714 836 q 782 830 753 836 q 830 809 811 824 q 858 770 849 794 q 867 710 867 747 q 855 649 867 674 q 822 611 844 625 q 769 592 800 597 q 699 586 738 586 l 576 586 l 576 836 m 714 1012 l 339 1012 q 201 993 261 1012 q 99 939 140 974 q 36 855 58 904 q 15 744 15 806 q 23 667 15 701 q 45 596 31 633 l 182 625 q 207 636 198 629 q 220 652 216 643 q 224 670 224 660 q 221 690 224 680 q 216 710 219 695 q 213 742 213 724 q 219 789 213 769 q 240 822 226 808 q 279 841 255 835 q 339 848 303 848 l 342 848 l 342 0 l 746 0 q 908 23 837 0 q 1027 88 978 47 q 1100 185 1075 129 q 1125 305 1125 240 q 1077 445 1125 391 q 929 524 1029 499 q 1008 563 975 540 q 1061 614 1040 586 q 1092 673 1082 641 q 1101 738 1101 704 q 1080 851 1101 801 q 1013 938 1059 902 q 892 992 966 973 q 714 1012 819 1012 "},"Ƅ":{"ha":1010,"x_min":2,"x_max":993,"o":"m 610 177 l 431 177 l 431 499 l 608 499 q 682 485 653 499 q 729 450 711 472 q 754 400 747 428 q 761 344 761 372 q 755 291 761 320 q 732 237 749 263 q 686 194 715 211 q 610 177 656 177 m 597 676 l 430 676 l 430 1012 l 258 1012 l 2 708 l 196 576 l 196 0 l 614 0 q 776 26 705 0 q 895 98 847 52 q 968 205 943 143 q 993 340 993 267 q 969 468 993 407 q 897 575 946 529 q 773 649 848 622 q 597 676 699 676 "},"Ɔ":{"ha":912,"x_min":6,"x_max":870,"o":"m 132 262 q 115 259 124 262 q 99 248 107 256 l 6 150 q 159 30 67 70 q 377 -11 251 -11 q 584 28 492 -11 q 739 136 675 67 q 836 300 802 206 q 870 506 870 395 q 833 714 870 619 q 730 878 797 809 q 570 985 663 947 q 365 1023 477 1023 q 258 1013 308 1023 q 163 985 207 1003 q 83 942 119 967 q 18 888 47 917 l 97 782 q 115 764 105 772 q 144 756 126 756 q 180 768 163 756 q 219 793 196 779 q 277 818 242 806 q 367 829 311 829 q 473 808 425 829 q 557 745 522 786 q 611 643 592 703 q 630 506 630 583 q 609 368 630 428 q 551 266 588 308 q 466 203 515 225 q 362 182 417 182 q 303 185 329 182 q 254 195 277 188 q 211 215 231 203 q 170 246 191 227 q 152 257 162 253 q 132 262 142 262 "},"Ƈ":{"ha":919,"x_min":43,"x_max":1113,"o":"m 702 1008 l 702 1001 q 628 1017 667 1012 q 548 1023 590 1023 q 343 985 436 1023 q 183 878 250 947 q 80 714 117 809 q 43 506 43 619 q 77 300 43 395 q 175 136 111 206 q 330 28 238 67 q 536 -11 421 -11 q 754 30 662 -11 q 907 150 846 70 l 814 248 q 798 259 806 256 q 781 262 790 262 q 761 257 771 262 q 743 246 751 253 q 702 215 722 227 q 659 195 682 203 q 610 185 636 188 q 551 182 583 182 q 447 203 496 182 q 362 266 399 225 q 305 368 326 308 q 283 506 283 428 q 302 643 283 583 q 357 745 322 703 q 440 808 392 786 q 547 829 488 829 q 611 824 583 829 q 659 810 638 818 q 694 793 679 802 q 722 775 709 783 q 745 762 734 767 q 769 756 756 756 q 798 764 788 756 q 816 782 808 772 l 895 888 l 895 956 q 913 1040 895 1012 q 972 1069 930 1069 q 996 1067 984 1069 q 1015 1064 1008 1065 q 1036 1062 1026 1062 q 1055 1065 1046 1062 q 1071 1077 1064 1069 q 1083 1101 1078 1086 l 1113 1219 q 1076 1231 1094 1226 q 1039 1241 1058 1237 q 997 1247 1019 1244 q 948 1249 975 1249 q 828 1227 876 1249 q 753 1172 781 1206 q 714 1094 725 1138 q 702 1008 702 1051 "},"Ɗ":{"ha":1301,"x_min":15,"x_max":1260,"o":"m 735 181 l 578 181 l 578 831 l 735 831 q 855 809 802 831 q 944 744 908 786 q 1000 642 981 702 q 1019 506 1019 581 q 1000 370 1019 431 q 944 268 981 310 q 855 203 908 226 q 735 181 802 181 m 735 1012 l 339 1012 q 201 993 261 1012 q 99 939 140 974 q 36 855 58 904 q 15 744 15 806 q 23 667 15 701 q 45 596 31 633 l 182 625 q 207 636 198 629 q 220 652 216 643 q 224 670 224 660 q 221 690 224 680 q 216 710 219 695 q 213 742 213 724 q 219 789 213 769 q 240 822 226 808 q 279 841 255 835 q 339 848 303 848 l 342 848 l 342 0 l 735 0 q 950 38 853 0 q 1115 143 1047 76 q 1222 304 1184 211 q 1260 506 1260 397 q 1222 708 1260 615 q 1115 868 1184 801 q 950 974 1047 935 q 735 1012 853 1012 "},"Ƌ":{"ha":887,"x_min":33,"x_max":789,"o":"m 554 177 l 418 177 q 341 188 371 177 q 295 216 312 198 q 272 256 278 233 q 265 302 265 278 q 272 353 265 330 q 295 394 278 377 q 341 420 312 411 q 418 430 371 430 l 554 430 l 554 177 m 789 1012 l 72 1012 l 72 836 l 554 836 l 554 607 l 418 607 q 240 584 313 607 q 121 523 167 561 q 54 433 75 484 q 33 326 33 382 q 59 193 33 253 q 135 90 85 133 q 256 24 184 47 q 418 0 327 0 l 789 0 l 789 1012 "},"Ǝ":{"ha":790,"x_min":41,"x_max":692,"o":"m 692 0 l 692 1012 l 41 1012 l 41 831 l 456 831 l 456 595 l 138 595 l 138 422 l 456 422 l 456 181 l 41 181 l 41 0 l 692 0 "},"Ə":{"ha":1030,"x_min":38,"x_max":988,"o":"m 266 407 l 741 407 q 713 311 733 354 q 663 239 694 269 q 589 192 631 208 q 492 176 547 176 q 393 193 435 176 q 323 242 351 211 q 280 316 294 274 q 266 407 266 358 m 44 854 l 116 769 q 139 750 125 757 q 171 743 153 743 q 225 756 198 743 q 285 786 253 769 q 357 815 317 802 q 450 828 397 828 q 653 763 578 828 q 742 561 727 697 l 106 561 q 72 556 85 561 q 51 539 59 551 q 41 505 44 526 q 38 450 38 483 q 72 255 38 340 q 165 109 105 169 q 308 19 225 50 q 491 -12 391 -12 q 698 27 606 -12 q 855 135 790 67 q 954 294 919 203 q 988 486 988 385 q 948 720 988 619 q 838 890 908 822 q 676 993 769 958 q 477 1027 583 1027 q 369 1020 426 1027 q 256 994 313 1013 q 145 941 199 974 q 44 854 91 907 "},"Ɛ":{"ha":826,"x_min":48,"x_max":819,"o":"m 819 161 l 733 258 q 717 269 726 266 q 701 273 709 273 q 681 268 690 273 q 663 256 671 264 q 628 229 645 242 q 590 205 612 215 q 541 187 569 194 q 472 181 513 181 q 391 192 425 181 q 333 223 356 203 q 299 269 310 243 q 288 325 288 296 q 297 369 288 347 q 324 411 306 392 q 374 442 343 430 q 448 454 404 454 l 638 454 l 638 616 l 469 616 q 350 647 387 616 q 313 733 313 677 q 320 773 313 753 q 344 806 328 792 q 387 830 360 821 q 451 838 413 838 q 543 829 506 838 q 605 809 580 820 q 648 790 631 799 q 683 781 666 781 q 710 786 695 781 q 741 818 726 792 l 794 907 q 652 992 734 960 q 458 1024 571 1024 q 291 1001 364 1024 q 167 938 218 977 q 90 848 117 899 q 64 744 64 798 q 72 686 64 715 q 96 631 79 657 q 141 582 113 605 q 211 544 169 560 q 145 503 176 527 q 94 448 115 478 q 60 381 72 417 q 48 304 48 345 q 64 207 48 251 q 106 128 79 163 q 167 67 132 93 q 243 24 203 41 q 326 -1 283 7 q 409 -10 368 -10 q 518 -3 464 -10 q 625 23 573 4 q 725 75 676 42 q 819 161 774 108 "},"Ƒ":{"ha":787,"x_min":-120,"x_max":749,"o":"m 334 831 l 749 831 l 749 1012 l 98 1012 l 98 46 q 81 -39 98 -10 q 22 -67 63 -67 q -3 -66 9 -67 q -22 -62 -15 -64 q -43 -60 -33 -60 q -62 -64 -53 -60 q -78 -76 -71 -67 q -90 -100 -85 -85 l -120 -217 q -83 -230 -101 -224 q -45 -239 -65 -235 q 0 -245 -24 -243 q 55 -247 24 -247 q 181 -225 128 -247 q 268 -164 234 -203 q 318 -71 302 -124 q 334 46 334 -17 l 334 394 l 680 394 l 680 575 l 334 575 l 334 831 "},"Ɠ":{"ha":1009,"x_min":40,"x_max":1169,"o":"m 951 887 l 951 956 q 968 1040 951 1012 q 1027 1069 985 1069 q 1051 1067 1040 1069 q 1071 1064 1063 1065 q 1091 1062 1081 1062 q 1110 1065 1101 1062 q 1127 1077 1119 1069 q 1138 1101 1134 1086 l 1169 1219 q 1132 1231 1150 1226 q 1094 1241 1114 1237 q 1053 1247 1075 1244 q 1003 1249 1031 1249 q 884 1227 931 1249 q 809 1172 837 1206 q 769 1094 781 1138 q 758 1008 758 1051 l 758 997 q 671 1016 717 1009 q 574 1023 626 1023 q 353 985 452 1023 q 184 878 254 947 q 77 714 115 809 q 40 506 40 619 q 79 300 40 395 q 187 136 118 206 q 351 28 256 67 q 556 -11 445 -11 q 672 -5 618 -11 q 773 15 726 1 q 863 48 821 28 q 944 97 905 69 l 944 524 l 584 524 l 584 395 q 597 365 584 377 q 631 353 609 353 l 731 353 l 731 200 q 660 178 698 186 q 574 169 623 169 q 457 192 510 169 q 364 258 403 215 q 302 363 324 301 q 280 506 280 426 q 300 639 280 579 q 357 740 320 698 q 447 806 394 783 q 566 829 500 829 q 630 826 601 829 q 684 815 658 822 q 734 795 710 807 q 787 766 759 783 q 841 753 816 748 q 883 783 867 759 l 951 887 "},"Ɣ":{"ha":989,"x_min":-38,"x_max":1028,"o":"m 411 191 l 443 243 q 470 283 459 262 q 490 328 482 305 l 585 198 q 599 183 592 190 q 615 170 607 176 l 385 170 q 411 191 402 181 m 635 447 l 1028 1011 l 803 1011 q 776 1004 787 1011 q 756 982 765 997 l 510 599 l 247 982 q 223 1005 234 999 q 190 1012 213 1012 l -38 1012 l 361 458 l 23 0 l 967 0 l 635 447 "},"Ɩ":{"ha":496,"x_min":94,"x_max":474,"o":"m 94 1013 l 94 231 q 107 138 94 181 q 147 61 120 94 q 212 11 173 29 q 303 -8 251 -8 q 365 -3 335 -8 q 420 13 396 2 q 459 43 444 24 q 474 89 474 62 l 474 163 l 397 163 q 344 182 358 163 q 330 244 330 201 l 330 1013 l 94 1013 "},"Ƙ":{"ha":1016,"x_min":98,"x_max":1017,"o":"m 333 602 l 333 1012 l 98 1012 l 98 0 l 333 0 l 333 431 l 390 431 q 441 423 422 431 q 473 394 460 415 l 702 43 q 717 25 709 33 q 735 11 724 17 q 759 3 745 6 q 794 0 774 0 l 1003 0 l 698 469 q 608 542 660 524 q 654 572 633 553 q 691 617 675 590 l 785 791 q 826 831 799 815 q 888 847 853 847 q 912 846 899 847 q 933 843 925 844 q 950 843 941 842 q 968 847 960 843 q 984 858 977 850 q 995 882 991 867 l 1017 998 q 961 1014 994 1008 q 875 1021 929 1021 q 781 1013 824 1021 q 699 986 737 1005 q 630 937 662 967 q 572 861 598 906 l 450 640 q 416 610 436 619 q 370 602 397 602 l 333 602 "},"Ɯ":{"ha":1534,"x_min":89,"x_max":1436,"o":"m 1436 1012 l 1200 1012 l 1200 336 q 1167 257 1185 290 q 1125 203 1148 224 q 1077 172 1103 182 q 1023 163 1051 163 q 955 177 982 163 q 911 219 927 192 q 888 285 894 246 q 881 372 881 324 l 881 1012 l 644 1012 l 644 372 q 602 215 644 267 q 481 163 560 163 q 419 175 447 163 q 369 214 390 188 q 337 280 349 240 q 325 372 325 319 l 325 1012 l 89 1012 l 89 372 q 109 209 89 281 q 170 89 128 138 q 277 15 213 40 q 432 -11 342 -11 q 513 -3 472 -11 q 593 24 554 6 q 666 71 631 42 q 726 141 700 100 q 820 30 760 72 q 974 -11 881 -11 q 1054 -2 1018 -11 q 1119 26 1090 8 q 1172 71 1148 44 q 1217 131 1195 97 l 1240 53 q 1266 16 1248 29 q 1313 3 1285 3 l 1436 3 l 1436 1012 "},"Ɲ":{"ha":1079,"x_min":-120,"x_max":981,"o":"m 981 1012 l 774 1012 l 774 476 q 776 425 774 452 q 781 368 777 397 l 299 976 q 282 994 290 988 q 266 1005 274 1001 q 247 1010 258 1009 q 222 1012 237 1012 l 98 1012 l 98 19 q 81 -66 98 -37 q 22 -94 63 -94 q -3 -93 9 -94 q -22 -90 -15 -91 q -43 -87 -33 -87 q -62 -91 -53 -87 q -78 -103 -71 -94 q -90 -127 -85 -112 l -120 -244 q -83 -257 -101 -251 q -46 -266 -65 -262 q -4 -272 -26 -270 q 45 -274 18 -274 q 167 -252 117 -274 q 247 -191 217 -230 q 291 -98 278 -151 q 305 19 305 -44 l 305 542 q 304 590 305 565 q 300 642 303 615 l 777 39 q 814 9 795 17 q 859 0 832 0 l 981 0 l 981 1012 "},"Ɵ":{"ha":1131,"x_min":40,"x_max":1091,"o":"m 285 428 l 845 428 q 813 325 835 370 q 754 248 790 279 q 672 200 719 217 q 566 183 624 183 q 460 200 508 183 q 377 248 413 217 q 318 325 341 279 q 285 428 294 370 m 843 596 l 288 596 q 380 768 308 707 q 566 829 451 829 q 751 768 680 829 q 843 596 822 707 m 566 1023 q 351 983 448 1023 q 184 874 253 944 q 77 710 115 805 q 40 506 40 616 q 77 302 40 397 q 184 138 115 208 q 351 28 253 68 q 566 -11 448 -11 q 781 28 684 -11 q 947 138 878 68 q 1053 302 1015 208 q 1091 506 1091 397 q 1053 710 1091 615 q 947 874 1015 804 q 781 983 878 943 q 566 1023 684 1023 "},"Ƣ":{"ha":1467,"x_min":42,"x_max":1375,"o":"m 536 176 q 427 200 474 176 q 348 266 380 223 q 299 369 315 308 q 282 506 282 431 q 299 642 282 581 q 348 746 315 703 q 427 812 380 789 q 536 835 474 835 q 645 812 597 835 q 725 746 692 789 q 774 642 757 703 q 790 506 790 581 q 774 369 790 431 q 725 266 757 308 q 645 200 692 223 q 536 176 597 176 m 1139 735 l 1139 -236 l 1375 -236 l 1375 735 q 1357 855 1375 801 q 1305 945 1340 908 q 1220 1002 1271 982 q 1103 1022 1169 1022 q 963 995 1024 1022 q 851 920 902 967 q 712 996 790 969 q 536 1023 633 1023 q 327 983 419 1023 q 172 874 235 944 q 75 710 108 805 q 42 506 42 616 q 75 302 42 397 q 172 138 108 208 q 327 28 235 68 q 536 -11 419 -11 q 745 28 653 -11 q 900 138 837 68 q 997 302 964 208 q 1031 506 1031 397 q 1011 666 1031 591 q 953 804 991 741 q 1000 830 976 820 q 1051 839 1025 839 q 1089 831 1073 839 q 1117 809 1106 823 q 1133 775 1128 794 q 1139 735 1139 756 "},"Ƥ":{"ha":1127,"x_min":15,"x_max":1106,"o":"m 699 515 l 576 515 l 576 836 l 699 836 q 775 825 743 836 q 829 793 808 814 q 860 744 850 773 q 871 681 871 716 q 831 559 871 603 q 699 515 790 515 m 699 1012 l 339 1012 q 201 993 261 1012 q 99 939 140 974 q 36 855 58 904 q 15 744 15 806 q 23 667 15 701 q 45 596 31 633 l 182 625 q 207 636 198 629 q 220 652 216 643 q 224 670 224 660 q 221 690 224 680 q 216 710 219 695 q 213 742 213 724 q 219 789 213 769 q 240 822 226 808 q 279 841 255 835 q 339 848 303 848 l 342 848 l 342 0 l 576 0 l 576 338 l 699 338 q 880 364 803 338 q 1007 434 957 389 q 1081 542 1057 479 q 1106 681 1106 606 q 1082 812 1106 751 q 1009 917 1058 872 q 882 986 959 961 q 699 1012 806 1012 "},"Ʀ":{"ha":875,"x_min":98,"x_max":926,"o":"m 427 398 l 333 398 l 333 698 l 427 698 q 561 660 518 698 q 605 556 605 623 q 595 494 605 523 q 564 444 585 465 q 509 410 542 422 q 427 398 475 398 m 926 -138 l 710 214 q 674 256 694 238 q 631 285 654 274 q 718 333 681 304 q 782 400 756 363 q 821 481 808 437 q 834 574 834 524 q 812 693 834 638 q 741 788 790 748 q 614 851 692 828 q 427 874 537 874 l 333 874 l 333 1023 l 98 1023 l 98 0 l 333 0 l 333 236 l 392 236 q 434 227 419 236 q 460 200 449 219 l 628 -94 q 663 -127 641 -115 q 713 -138 684 -138 l 926 -138 "},"Ƨ":{"ha":764,"x_min":31,"x_max":740,"o":"m 58 915 l 117 806 q 139 781 127 790 q 168 773 150 773 q 202 783 184 773 q 244 806 221 793 q 297 828 267 818 q 365 838 326 838 q 453 809 424 838 q 482 734 482 781 q 463 680 482 701 q 411 641 443 658 q 339 609 380 624 q 256 578 299 594 q 173 539 214 561 q 101 485 133 517 q 50 409 69 453 q 31 303 31 365 q 55 175 31 233 q 125 76 79 117 q 239 12 172 35 q 393 -11 306 -11 q 489 -1 440 -11 q 584 26 538 8 q 670 68 630 44 q 740 122 710 92 l 671 232 q 649 252 663 244 q 619 260 635 260 q 577 247 599 260 q 530 217 556 233 q 468 188 503 201 q 386 175 433 175 q 299 199 332 175 q 265 278 265 222 q 285 339 265 315 q 336 380 304 363 q 408 410 367 397 q 490 439 448 424 q 573 476 533 455 q 645 530 613 497 q 696 611 676 563 q 715 728 715 659 q 692 839 715 785 q 625 933 669 892 q 516 998 581 974 q 368 1023 451 1023 q 277 1016 322 1023 q 194 994 233 1008 q 120 960 154 980 q 58 915 85 940 "},"Ƭ":{"ha":969,"x_min":18,"x_max":948,"o":"m 948 826 l 948 1012 l 343 1012 q 205 993 265 1012 q 103 939 144 974 q 40 855 61 904 q 18 744 18 806 q 26 667 18 701 q 49 596 34 633 l 185 625 q 210 636 201 629 q 223 652 219 643 q 227 670 227 660 q 224 690 227 680 q 220 709 223 695 q 217 740 217 724 q 222 780 217 763 q 240 806 226 796 q 278 821 253 817 q 343 826 303 826 l 428 826 l 428 0 l 663 0 l 663 826 l 948 826 "},"Ʈ":{"ha":846,"x_min":21,"x_max":825,"o":"m 540 -6 l 540 826 l 825 826 l 825 1012 l 21 1012 l 21 826 l 306 826 l 306 19 q 322 -98 306 -44 q 373 -191 338 -152 q 464 -252 408 -230 q 601 -274 520 -274 q 679 -267 644 -274 q 751 -244 714 -260 l 728 -153 q 707 -122 721 -129 q 681 -114 694 -114 q 657 -117 669 -114 q 627 -121 644 -121 q 561 -89 582 -121 q 540 -6 540 -58 "},"Ʊ":{"ha":1142,"x_min":47,"x_max":1096,"o":"m 572 -11 q 772 25 680 -11 q 932 122 865 60 q 1038 268 1000 184 q 1076 448 1076 352 q 1057 575 1076 515 q 1003 687 1038 636 q 920 776 969 738 q 812 838 871 815 q 892 829 851 833 q 972 826 933 826 l 1096 826 l 1096 942 q 1075 992 1096 973 q 1018 1012 1053 1012 l 643 1012 l 643 756 q 719 724 683 750 q 783 657 756 698 q 827 563 810 616 q 843 451 843 510 q 822 332 843 382 q 764 248 801 281 q 677 199 727 215 q 571 183 628 183 q 465 199 515 183 q 378 248 415 215 q 320 332 342 281 q 299 451 299 382 q 316 563 299 510 q 359 657 332 616 q 423 724 387 698 q 499 756 459 750 l 499 1012 l 124 1012 q 68 992 89 1012 q 47 942 47 973 l 47 826 l 170 826 q 250 829 210 826 q 331 838 291 833 q 222 776 271 815 q 139 687 174 738 q 85 575 104 636 q 66 448 66 515 q 104 268 66 352 q 210 122 142 184 q 370 25 278 60 q 572 -11 463 -11 "}}}
